<svg width="182" height="1364" viewBox="0 0 182 1364" fill="none" xmlns="http://www.w3.org/2000/svg">
<circle cx="92" cy="90" r="90" fill="#4700DD"/>
<circle cx="92" cy="90" r="90" fill="#4700DD"/>
<circle cx="92" cy="90" r="58" fill="white"/>
<path d="M102.513 85.9728C102.513 84.7691 101.537 83.7935 100.333 83.7935H77.8864C76.6827 83.7935 75.707 84.7691 75.707 85.9728C75.707 87.1764 76.6827 88.1521 77.8864 88.1521H100.333C101.537 88.1521 102.513 87.1764 102.513 85.9728Z" fill="#0063BE"/>
<path d="M77.8864 92.5107C76.6827 92.5107 75.707 93.4864 75.707 94.6901C75.707 95.8937 76.6827 96.8694 77.8864 96.8694H91.5193C92.7229 96.8694 93.6986 95.8937 93.6986 94.6901C93.6986 93.4864 92.7229 92.5107 91.5193 92.5107H77.8864Z" fill="#0063BE"/>
<path d="M83.006 113.432H75.7173C73.314 113.432 71.3587 111.477 71.3587 109.074V70.7173C71.3587 68.314 73.314 66.3587 75.7173 66.3587H102.511C104.914 66.3587 106.87 68.314 106.87 70.7173V84.1202C106.87 85.3238 107.845 86.2995 109.049 86.2995C110.253 86.2995 111.228 85.3238 111.228 84.1202V70.7173C111.228 65.9106 107.318 62 102.511 62H75.7173C70.9106 62 67 65.9106 67 70.7173V109.074C67 113.88 70.9106 117.791 75.7173 117.791H83.006C84.2096 117.791 85.1853 116.815 85.1853 115.612C85.1853 114.408 84.2096 113.432 83.006 113.432Z" fill="#0063BE"/>
<path d="M115.088 93.5537C112.539 91.0046 108.391 91.0045 105.843 93.552L93.8786 105.49C93.6245 105.744 93.4371 106.056 93.3327 106.4L90.727 114.978C90.4959 115.739 90.6972 116.565 91.2523 117.133C91.6681 117.56 92.233 117.791 92.8124 117.791C93.0062 117.791 93.2019 117.765 93.394 117.712L102.19 115.275C102.552 115.175 102.882 114.983 103.148 114.717L115.088 102.8C117.637 100.251 117.637 96.1031 115.088 93.5537ZM100.475 111.228L96.0492 112.454L97.3443 108.19L105.417 100.134L108.5 103.217L100.475 111.228ZM112.007 99.7167L111.585 100.138L108.503 97.0559L108.924 96.636C109.774 95.7862 111.156 95.7862 112.006 96.636C112.856 97.4857 112.856 98.8682 112.007 99.7167Z" fill="#0063BE"/>
<path d="M100.333 75.0757H77.8864C76.6827 75.0757 75.707 76.0514 75.707 77.255C75.707 78.4587 76.6827 79.4343 77.8864 79.4343H100.333C101.537 79.4343 102.513 78.4587 102.513 77.255C102.513 76.0514 101.537 75.0757 100.333 75.0757Z" fill="#0063BE"/>
<circle cx="91" cy="688" r="90" fill="#4700DD"/>
<circle cx="91" cy="688" r="58" fill="white"/>
<path d="M101.513 683.973C101.513 682.769 100.537 681.793 99.3335 681.793H76.8864C75.6827 681.793 74.707 682.769 74.707 683.973C74.707 685.176 75.6827 686.152 76.8864 686.152H99.3335C100.537 686.152 101.513 685.176 101.513 683.973Z" fill="#0063BE"/>
<path d="M76.8864 690.511C75.6827 690.511 74.707 691.486 74.707 692.69C74.707 693.894 75.6827 694.869 76.8864 694.869H90.5193C91.7229 694.869 92.6986 693.894 92.6986 692.69C92.6986 691.486 91.7229 690.511 90.5193 690.511H76.8864Z" fill="#0063BE"/>
<path d="M82.006 711.432H74.7173C72.314 711.432 70.3587 709.477 70.3587 707.074V668.717C70.3587 666.314 72.314 664.359 74.7173 664.359H101.511C103.914 664.359 105.87 666.314 105.87 668.717V682.12C105.87 683.324 106.845 684.3 108.049 684.3C109.253 684.3 110.228 683.324 110.228 682.12V668.717C110.228 663.911 106.318 660 101.511 660H74.7173C69.9106 660 66 663.911 66 668.717V707.074C66 711.88 69.9106 715.791 74.7173 715.791H82.006C83.2096 715.791 84.1853 714.815 84.1853 713.612C84.1853 712.408 83.2096 711.432 82.006 711.432Z" fill="#0063BE"/>
<path d="M114.088 691.554C111.539 689.005 107.391 689.004 104.843 691.552L92.8786 703.49C92.6245 703.744 92.4371 704.056 92.3327 704.4L89.727 712.978C89.4959 713.739 89.6972 714.565 90.2523 715.133C90.6681 715.56 91.233 715.791 91.8124 715.791C92.0062 715.791 92.2019 715.765 92.394 715.712L101.19 713.275C101.552 713.175 101.882 712.983 102.148 712.717L114.088 700.8C116.637 698.251 116.637 694.103 114.088 691.554ZM99.4746 709.228L95.0492 710.454L96.3443 706.19L104.417 698.134L107.5 701.217L99.4746 709.228ZM111.007 697.717L110.585 698.138L107.503 695.056L107.924 694.636C108.774 693.786 110.156 693.786 111.006 694.636C111.856 695.486 111.856 696.868 111.007 697.717Z" fill="#0063BE"/>
<path d="M99.3335 673.076H76.8864C75.6827 673.076 74.707 674.051 74.707 675.255C74.707 676.459 75.6827 677.434 76.8864 677.434H99.3335C100.537 677.434 101.513 676.459 101.513 675.255C101.513 674.051 100.537 673.076 99.3335 673.076Z" fill="#0063BE"/>
<circle cx="90" cy="1274" r="90" fill="#4700DD"/>
<circle cx="90" cy="1274" r="58" fill="white"/>
<path d="M100.513 1269.97C100.513 1268.77 99.5371 1267.79 98.3335 1267.79H75.8864C74.6827 1267.79 73.707 1268.77 73.707 1269.97C73.707 1271.18 74.6827 1272.15 75.8864 1272.15H98.3335C99.5371 1272.15 100.513 1271.18 100.513 1269.97Z" fill="#0063BE"/>
<path d="M75.8864 1276.51C74.6827 1276.51 73.707 1277.49 73.707 1278.69C73.707 1279.89 74.6827 1280.87 75.8864 1280.87H89.5193C90.7229 1280.87 91.6986 1279.89 91.6986 1278.69C91.6986 1277.49 90.7229 1276.51 89.5193 1276.51H75.8864Z" fill="#0063BE"/>
<path d="M81.006 1297.43H73.7173C71.314 1297.43 69.3587 1295.48 69.3587 1293.07V1254.72C69.3587 1252.31 71.314 1250.36 73.7173 1250.36H100.511C102.914 1250.36 104.87 1252.31 104.87 1254.72V1268.12C104.87 1269.32 105.845 1270.3 107.049 1270.3C108.253 1270.3 109.228 1269.32 109.228 1268.12V1254.72C109.228 1249.91 105.318 1246 100.511 1246H73.7173C68.9106 1246 65 1249.91 65 1254.72V1293.07C65 1297.88 68.9106 1301.79 73.7173 1301.79H81.006C82.2096 1301.79 83.1853 1300.82 83.1853 1299.61C83.1853 1298.41 82.2096 1297.43 81.006 1297.43Z" fill="#0063BE"/>
<path d="M113.088 1277.55C110.539 1275 106.391 1275 103.843 1277.55L91.8786 1289.49C91.6245 1289.74 91.4371 1290.06 91.3327 1290.4L88.727 1298.98C88.4959 1299.74 88.6972 1300.56 89.2523 1301.13C89.6681 1301.56 90.233 1301.79 90.8124 1301.79C91.0062 1301.79 91.2019 1301.77 91.394 1301.71L100.19 1299.28C100.552 1299.17 100.882 1298.98 101.148 1298.72L113.088 1286.8C115.637 1284.25 115.637 1280.1 113.088 1277.55ZM98.4746 1295.23L94.0492 1296.45L95.3443 1292.19L103.417 1284.13L106.5 1287.22L98.4746 1295.23ZM110.007 1283.72L109.585 1284.14L106.503 1281.06L106.924 1280.64C107.774 1279.79 109.156 1279.79 110.006 1280.64C110.856 1281.49 110.856 1282.87 110.007 1283.72Z" fill="#0063BE"/>
<path d="M98.3335 1259.08H75.8864C74.6827 1259.08 73.707 1260.05 73.707 1261.26C73.707 1262.46 74.6827 1263.43 75.8864 1263.43H98.3335C99.5371 1263.43 100.513 1262.46 100.513 1261.26C100.513 1260.05 99.5371 1259.08 98.3335 1259.08Z" fill="#0063BE"/>
<rect x="81" y="166" width="20" height="441" fill="#4700DD"/>
<rect x="80" y="757" width="20" height="441" fill="#4700DD"/>
<line x1="92" y1="137" x2="92" y2="638" stroke="white" stroke-width="4"/>
<line x1="91" y1="725" x2="91" y2="1226" stroke="white" stroke-width="4"/>
</svg>
