<svg width="512" height="512" viewBox="0 0 512 512" fill="none" xmlns="http://www.w3.org/2000/svg">
<path d="M499.402 225.573L286.428 12.5982C269.63 -4.19939 242.387 -4.19939 225.589 12.5982C208.792 29.3957 208.792 56.6388 225.589 73.4363L408.125 255.971L225.589 438.505C208.792 455.302 208.792 482.545 225.589 499.343C242.387 516.14 269.63 516.14 286.428 499.343L499.402 286.369C516.199 269.613 516.199 242.371 499.402 225.573ZM243.325 212.677L74.2415 34.4696C57.2516 16.5853 29.7325 16.5853 12.7425 34.4696C-4.24749 52.3538 -4.24749 81.3662 12.7425 99.2723L151.088 245.078L12.7425 390.884C-4.24749 408.769 -4.24749 437.801 12.7425 455.686C29.7325 473.571 57.2516 473.571 74.2415 455.686L243.325 277.479C260.315 259.595 260.315 230.583 243.325 212.677Z" fill="white" fill-opacity="0.3"/>
</svg>
