<svg width="185" height="91" viewBox="0 0 185 91" fill="none" xmlns="http://www.w3.org/2000/svg">
<path d="M23.9864 29.445L4 46.6335L6.45447 46.2827L8.20766 45.7565L9.25957 44.8796L11.0128 44.178L11.5387 43.4764L13.1166 43.1256L13.6426 42.4241H14.5191L15.0451 40.6702H16.7983L18.2008 39.7932L18.5515 39.0916L22.0579 38.39V39.0916L21.3566 39.7932V41.8979L19.2528 44.178C18.8791 46.3205 19.5247 46.4364 22.0579 44.8796L23.4604 44.178L25.9149 42.4241L27.4928 40.6702L29.4213 41.0209L29.246 39.7932H33.6289V40.6702L36.2587 41.5471L38.3625 43.1256H39.5898L39.9404 44.0026H41.1677L52.7387 54L47.6545 44.7042L46.2519 43.1256V41.5471L45.0247 41.1963L44.4987 39.0916H43.7974L43.6221 37.6885L42.7455 37.1623L42.9208 35.0576H48.5311V34.5314L49.7583 34.1806L50.1089 32.9529H50.8102V29.9712L53.0894 27.5157H58.5243L59.2255 28.2173L61.68 29.6204L64.8357 31.5497L67.1149 33.6544L70.7966 35.7592L73.2511 38.0393L75.8808 39.267L78.16 41.7225L80.2638 42.9503L84.8221 45.9319C86.4112 46.5329 86.8269 46.3086 86.4 44.5288L84.6468 38.0393L77.8094 28.2173L76.7574 25.9372V23.6571H77.8094L78.686 20.8508L84.4715 20.6754L84.8221 19.9738L86.7506 19.623L87.1013 18.3953L90.0817 16.8168H91.3089L91.4842 15.7644L94.64 16.1152L97.7957 19.9738H99.023L103.055 24.534H104.283L106.386 26.8141V27.8665L97.0945 36.6361L96.7438 38.0393L96.0425 38.2147L96.3932 41.7225L99.1983 41.8979L100.951 42.2487L101.127 40.8455L106.386 40.6702L108.49 39.267V35.7592L111.295 32.7775H114.626L114.802 34.0052L126.548 44.0026L119.535 35.233L132.334 45.4058H142.327C143.667 45.458 144.037 45.2129 143.379 43.8272L136.541 33.6544L137.243 26.1126L143.028 25.7618L144.606 25.2356V24.3586L146.184 24.7094L146.359 23.6571L149.34 21.9031L152.495 22.0785L178.267 45.2304C179.965 45.557 180.231 45.0114 179.845 43.1256L151.619 6.29322C149.861 4.62609 148.866 4.44082 147.06 6.46861L128.301 25.9372C126.805 27.4128 126.78 28.069 127.425 29.0942L130.756 32.7775L135.84 41.0209L129.879 34.0052L128.652 33.6544L119.185 23.3063C115.865 19.7882 113.936 20.1975 110.419 23.6571L108.315 21.2016L107.789 20.1492L107.088 19.623L105.334 17.1675L104.458 16.6414L104.283 15.2382L93.0621 1.03144C92.0041 -0.366102 91.4343 -0.200801 90.4323 0.680652L83.0689 7.69636V8.9241L76.9328 14.7121V15.7644L72.3745 19.7984H71.8485L69.5694 22.4293L72.1991 25.2356L72.3745 27.5157L78.16 35.7592L71.8485 29.6204L71.6732 28.3927L69.92 28.2173L62.206 20.1492L62.0306 19.0969L61.154 19.2723L59.4008 17.5183C57.5569 15.6976 56.6957 15.6687 55.3685 16.8168L51.3362 21.5524L50.1089 21.377L39.5898 32.4267V38.0393L41.8689 41.5471L38.7132 38.39H36.96L31.5251 32.7775V31.5497H30.2979L29.5966 30.1466C27.4693 27.5908 26.2248 28.0132 23.9864 29.445Z" fill="black"/>
<path d="M8.56602 80.1599C7.49935 80.1599 6.51268 79.9865 5.60602 79.6398C4.71268 79.2798 3.93268 78.7798 3.26602 78.1398C2.61268 77.4865 2.09935 76.7265 1.72602 75.8598C1.35268 74.9931 1.16602 74.0398 1.16602 72.9998C1.16602 71.9598 1.35268 71.0065 1.72602 70.1398C2.09935 69.2731 2.61935 68.5198 3.28602 67.8798C3.95268 67.2265 4.73268 66.7265 5.62602 66.3798C6.53268 66.0198 7.51935 65.8398 8.58602 65.8398C9.66602 65.8398 10.6594 66.0265 11.5661 66.3998C12.4861 66.7598 13.2661 67.2998 13.9061 68.0198L12.6061 69.2798C12.0727 68.7198 11.4727 68.3065 10.8061 68.0398C10.1394 67.7598 9.42602 67.6199 8.66602 67.6199C7.87935 67.6199 7.14602 67.7531 6.46602 68.0198C5.79935 68.2865 5.21935 68.6598 4.72602 69.1398C4.23268 69.6198 3.84602 70.1931 3.56602 70.8598C3.29935 71.5131 3.16602 72.2265 3.16602 72.9998C3.16602 73.7731 3.29935 74.4932 3.56602 75.1599C3.84602 75.8132 4.23268 76.3798 4.72602 76.8598C5.21935 77.3398 5.79935 77.7132 6.46602 77.9799C7.14602 78.2466 7.87935 78.3798 8.66602 78.3798C9.42602 78.3798 10.1394 78.2466 10.8061 77.9799C11.4727 77.6999 12.0727 77.2731 12.6061 76.6998L13.9061 77.9598C13.2661 78.6798 12.4861 79.2265 11.5661 79.5998C10.6594 79.9731 9.65935 80.1599 8.56602 80.1599ZM19.2071 79.9998L25.5471 65.9998H27.5272L33.8872 79.9998H31.7872L26.1272 67.1199H26.9272L21.2671 79.9998H19.2071ZM21.9071 76.4998L22.4471 74.8998H30.3271L30.9072 76.4998H21.9071ZM40.8756 79.9998V65.9998H46.3356C47.5623 65.9998 48.6089 66.1931 49.4756 66.5798C50.3423 66.9665 51.0089 67.5265 51.4756 68.2598C51.9423 68.9931 52.1756 69.8665 52.1756 70.8798C52.1756 71.8931 51.9423 72.7665 51.4756 73.4998C51.0089 74.2198 50.3423 74.7732 49.4756 75.1599C48.6089 75.5466 47.5623 75.7398 46.3356 75.7398H41.9756L42.8756 74.8198V79.9998H40.8756ZM50.2356 79.9998L46.6756 74.9198H48.8156L52.4156 79.9998H50.2356ZM42.8756 75.0198L41.9756 74.0398H46.2756C47.5556 74.0398 48.5223 73.7665 49.1756 73.2198C49.8423 72.6598 50.1756 71.8798 50.1756 70.8798C50.1756 69.8798 49.8423 69.1065 49.1756 68.5598C48.5223 68.0131 47.5556 67.7398 46.2756 67.7398H41.9756L42.8756 66.7398V75.0198ZM64.3868 80.1599C63.3202 80.1599 62.3002 79.9998 61.3268 79.6798C60.3535 79.3465 59.5868 78.9198 59.0268 78.3998L59.7668 76.8398C60.3002 77.3065 60.9802 77.6931 61.8068 77.9998C62.6335 78.3065 63.4935 78.4598 64.3868 78.4598C65.2002 78.4598 65.8602 78.3665 66.3668 78.1798C66.8735 77.9931 67.2468 77.7398 67.4868 77.4198C67.7268 77.0865 67.8468 76.7132 67.8468 76.2999C67.8468 75.8199 67.6868 75.4331 67.3668 75.1398C67.0602 74.8465 66.6535 74.6131 66.1468 74.4398C65.6535 74.2531 65.1068 74.0931 64.5068 73.9598C63.9068 73.8265 63.3002 73.6731 62.6868 73.4998C62.0868 73.3131 61.5335 73.0799 61.0268 72.7999C60.5335 72.5199 60.1335 72.1465 59.8268 71.6798C59.5202 71.1998 59.3668 70.5865 59.3668 69.8398C59.3668 69.1198 59.5535 68.4598 59.9268 67.8598C60.3135 67.2465 60.9002 66.7598 61.6868 66.3998C62.4868 66.0265 63.5002 65.8398 64.7268 65.8398C65.5402 65.8398 66.3468 65.9466 67.1468 66.1599C67.9468 66.3732 68.6402 66.6798 69.2268 67.0798L68.5667 68.6798C67.9667 68.2798 67.3335 67.9931 66.6668 67.8198C66.0002 67.6331 65.3535 67.5398 64.7268 67.5398C63.9402 67.5398 63.2935 67.6398 62.7868 67.8398C62.2802 68.0398 61.9068 68.3065 61.6668 68.6398C61.4402 68.9731 61.3268 69.3465 61.3268 69.7598C61.3268 70.2531 61.4802 70.6465 61.7868 70.9398C62.1068 71.2331 62.5135 71.4665 63.0068 71.6398C63.5135 71.8131 64.0668 71.9732 64.6668 72.1199C65.2668 72.2532 65.8668 72.4065 66.4668 72.5798C67.0802 72.7531 67.6335 72.9798 68.1268 73.2598C68.6335 73.5398 69.0402 73.9131 69.3468 74.3798C69.6535 74.8465 69.8068 75.4465 69.8068 76.1798C69.8068 76.8865 69.6135 77.5466 69.2268 78.1599C68.8402 78.7599 68.2402 79.2466 67.4268 79.6199C66.6268 79.9799 65.6135 80.1599 64.3868 80.1599ZM87.6687 65.9998H89.6687V79.9998H87.6687V65.9998ZM79.6287 79.9998H77.6287V65.9998H79.6287V79.9998ZM87.8487 73.7598H79.4286V72.0198H87.8487V73.7598ZM100.579 72.0398H107.779V73.7398H100.579V72.0398ZM100.759 78.2598H108.919V79.9998H98.7592V65.9998H108.639V67.7398H100.759V78.2598ZM117.057 79.9998V65.9998H122.517C123.744 65.9998 124.791 66.1931 125.657 66.5798C126.524 66.9665 127.191 67.5265 127.657 68.2598C128.124 68.9931 128.357 69.8665 128.357 70.8798C128.357 71.8931 128.124 72.7665 127.657 73.4998C127.191 74.2198 126.524 74.7732 125.657 75.1599C124.791 75.5466 123.744 75.7398 122.517 75.7398H118.157L119.057 74.8198V79.9998H117.057ZM126.417 79.9998L122.857 74.9198H124.997L128.597 79.9998H126.417ZM119.057 75.0198L118.157 74.0398H122.457C123.737 74.0398 124.704 73.7665 125.357 73.2198C126.024 72.6598 126.357 71.8798 126.357 70.8798C126.357 69.8798 126.024 69.1065 125.357 68.5598C124.704 68.0131 123.737 67.7398 122.457 67.7398H118.157L119.057 66.7398V75.0198ZM136.489 79.9998V65.9998H141.949C143.175 65.9998 144.222 66.1931 145.089 66.5798C145.955 66.9665 146.622 67.5265 147.089 68.2598C147.555 68.9931 147.789 69.8665 147.789 70.8798C147.789 71.8931 147.555 72.7665 147.089 73.4998C146.622 74.2198 145.955 74.7798 145.089 75.1798C144.222 75.5665 143.175 75.7598 141.949 75.7598H137.589L138.489 74.8198V79.9998H136.489ZM138.489 75.0198L137.589 74.0198H141.889C143.169 74.0198 144.135 73.7465 144.789 73.1998C145.455 72.6531 145.789 71.8798 145.789 70.8798C145.789 69.8798 145.455 69.1065 144.789 68.5598C144.135 68.0131 143.169 67.7398 141.889 67.7398H137.589L138.489 66.7398V75.0198ZM152.804 79.9998L159.144 65.9998H161.124L167.484 79.9998H165.384L159.724 67.1199H160.524L154.864 79.9998H152.804ZM155.504 76.4998L156.044 74.8998H163.924L164.504 76.4998H155.504ZM178.552 80.1599C177.486 80.1599 176.466 79.9998 175.492 79.6798C174.519 79.3465 173.752 78.9198 173.192 78.3998L173.932 76.8398C174.466 77.3065 175.146 77.6931 175.972 77.9998C176.799 78.3065 177.659 78.4598 178.552 78.4598C179.366 78.4598 180.026 78.3665 180.532 78.1798C181.039 77.9931 181.412 77.7398 181.652 77.4198C181.892 77.0865 182.012 76.7132 182.012 76.2999C182.012 75.8199 181.852 75.4331 181.532 75.1398C181.226 74.8465 180.819 74.6131 180.312 74.4398C179.819 74.2531 179.272 74.0931 178.672 73.9598C178.072 73.8265 177.466 73.6731 176.852 73.4998C176.252 73.3131 175.699 73.0799 175.192 72.7999C174.699 72.5199 174.299 72.1465 173.992 71.6798C173.686 71.1998 173.532 70.5865 173.532 69.8398C173.532 69.1198 173.719 68.4598 174.092 67.8598C174.479 67.2465 175.066 66.7598 175.852 66.3998C176.652 66.0265 177.666 65.8398 178.892 65.8398C179.706 65.8398 180.512 65.9466 181.312 66.1599C182.112 66.3732 182.806 66.6798 183.392 67.0798L182.732 68.6798C182.132 68.2798 181.499 67.9931 180.832 67.8198C180.166 67.6331 179.519 67.5398 178.892 67.5398C178.106 67.5398 177.459 67.6398 176.952 67.8398C176.446 68.0398 176.072 68.3065 175.832 68.6398C175.606 68.9731 175.492 69.3465 175.492 69.7598C175.492 70.2531 175.646 70.6465 175.952 70.9398C176.272 71.2331 176.679 71.4665 177.172 71.6398C177.679 71.8131 178.232 71.9732 178.832 72.1199C179.432 72.2532 180.032 72.4065 180.632 72.5798C181.246 72.7531 181.799 72.9798 182.292 73.2598C182.799 73.5398 183.206 73.9131 183.512 74.3798C183.819 74.8465 183.972 75.4465 183.972 76.1798C183.972 76.8865 183.779 77.5466 183.392 78.1599C183.006 78.7599 182.406 79.2466 181.592 79.6199C180.792 79.9799 179.779 80.1599 178.552 80.1599Z" fill="#131313"/>
</svg>
