<svg width="1920" height="1380" viewBox="0 0 1920 1380" fill="none" xmlns="http://www.w3.org/2000/svg">
<g id="Group 145">
<g id="Group 18">
<path id="Vector" d="M0 14.6098L29 8.56389C58 2.18201 116 -9.90998 174.4 15.2817C232.6 40.4733 291.4 102.948 349.6 111.346C408 119.743 466 74.0621 524 57.6035C582 41.4809 640 54.9165 698 48.8705C756 42.4886 814 16.9611 872.4 9.57151C930.6 2.18197 989.4 13.6021 1047.6 40.8091C1106 68.352 1164 112.017 1222 123.774C1280 135.53 1338 115.376 1396 92.536C1454 69.3597 1512 43.8321 1570.4 44.168C1628.6 44.8398 1687.4 71.7109 1745.6 71.7109C1804 71.7109 1862 44.8398 1891 31.4043L1920 17.9687V767H1891C1862 767 1804 767 1745.6 767C1687.4 767 1628.6 767 1570.4 767C1512 767 1454 767 1396 767C1338 767 1280 767 1222 767C1164 767 1106 767 1047.6 767C989.4 767 930.6 767 872.4 767C814 767 756 767 698 767C640 767 582 767 524 767C466 767 408 767 349.6 767C291.4 767 232.6 767 174.4 767C116 767 58 767 29 767H0V14.6098Z" fill="#6600FF"/>
<path id="Vector_2" d="M0 669.53L29 653.282C58 637.034 161.5 598.5 199 586C256 567 279.84 511.135 338.04 529.333C396.44 548.181 458.954 592.188 516.954 591.538C574.954 590.238 640 570.164 698 519.469C756 468.125 814 446.602 872.4 445.303C930.6 444.003 989.4 511.596 1047.6 508.346C1106 505.097 1164 431.004 1222 409.556C1280 388.108 1338 418.005 1396 429.054C1454 440.103 1512 431.004 1570.4 446.602C1628.6 461.551 1687.4 500.547 1745.6 542.793C1804 585.039 1862 630.534 1891 653.282L1920 676.03V975H1891C1862 975 1804 975 1745.6 975C1687.4 975 1628.6 975 1570.4 975C1512 975 1454 975 1396 975C1338 975 1280 975 1222 975C1164 975 1106 975 1047.6 975C989.4 975 930.6 975 872.4 975C814 975 756 975 698 975C640 975 582 975 524 975C466 975 408 975 349.6 975C291.4 975 232.6 975 174.4 975C116 975 58 975 29 975H0V669.53Z" fill="#EFEFEF"/>
</g>
</g>
</svg>
