<svg width="1920" height="2881" viewBox="0 0 1920 2881" fill="none" xmlns="http://www.w3.org/2000/svg">
<path d="M1920 892.11L1891 904.319C1862 915.972 1804 940.389 1745.6 963.141C1687.4 986.447 1628.6 1008.64 1570.4 988.112C1512 968.135 1454 904.874 1396 912.643C1338 919.857 1280 997.546 1222 1054.7C1164 1112.42 1106 1149.04 1047.6 1114.08C989.4 1079.12 930.6 971.464 872.4 940.944C814 910.423 756 957.036 698 999.211C640 1041.94 582 1080.78 524 1058.59C466 1036.39 408 953.152 349.6 922.631C291.4 892.11 232.6 914.307 174.4 958.701C116 1003.1 58.0001 1069.69 29.0001 1102.98L6.07967e-05 1136.28L6.07967e-05 265.045H29.0001C58.0001 265.045 116 265.045 174.4 265.045C232.6 265.045 291.4 265.045 349.6 265.045C408 265.045 466 265.045 524 265.045C582 265.045 640 265.045 698 265.045C756 265.045 814 265.045 872.4 265.045C930.6 265.045 989.4 265.045 1047.6 265.045C1106 265.045 1164 265.045 1222 265.045C1280 265.045 1338 265.045 1396 265.045C1454 265.045 1512 265.045 1570.4 265.045C1628.6 265.045 1687.4 265.045 1745.6 265.045C1804 265.045 1862 265.045 1891 265.045H1920L1920 892.11Z" fill="#6936FB"/>
<path d="M1920 400.806L1891 422.126C1862 443.445 1758.5 494.005 1721 510.406C1664 535.336 1640.16 608.636 1581.96 584.758C1523.56 560.028 1461.05 502.287 1403.05 503.14C1345.05 504.845 1280 531.184 1222 597.701C1164 665.07 1106 693.309 1047.6 695.015C989.4 696.72 930.6 608.031 872.4 612.295C814 616.559 756 713.776 698 741.918C640 770.059 582 730.832 524 716.334C466 701.837 408 713.776 349.6 693.309C291.4 673.695 232.6 622.529 174.4 567.098C116 511.667 58 451.973 29 422.126L0 392.278V0.000272036H29C58 0.000272036 116 0.000272036 174.4 0.000272036C232.6 0.000272036 291.4 0.000272036 349.6 0.000272036C408 0.000272036 466 0.000272036 524 0.000272036C582 0.000272036 640 0.000272036 698 0.000272036C756 0.000272036 814 0.000272036 872.4 0.000272036C930.6 0.000272036 989.4 0.000272036 1047.6 0.000272036C1106 0.000272036 1164 0.000272036 1222 0.000272036C1280 0.000272036 1338 0.000272036 1396 0.000272036C1454 0.000272036 1512 0.000272036 1570.4 0.000272036C1628.6 0.000272036 1687.4 0.000272036 1745.6 0.000272036C1804 0.000272036 1862 0.000272036 1891 0.000272036H1920V400.806Z" fill="url(#paint0_linear_388_20)"/>
<rect y="777" width="1920" height="2104" fill="#6936FB"/>
<defs>
<linearGradient id="paint0_linear_388_20" x1="960" y1="751.832" x2="960" y2="0.000244141" gradientUnits="userSpaceOnUse">
<stop offset="0.0104167" stop-color="#140042"/>
<stop offset="0.494792"/>
</linearGradient>
</defs>
</svg>
