<svg width="30" height="23" viewBox="0 0 30 23" fill="none" xmlns="http://www.w3.org/2000/svg">
<path d="M17.5072 14.6147C16.7608 15.1123 15.8938 15.3753 15 15.3753C14.1062 15.3753 13.2393 15.1123 12.4929 14.6147L0.199746 6.41902C0.131543 6.37356 0.0650977 6.32615 0 6.2774V19.7069C0 21.2466 1.24951 22.4686 2.7617 22.4686H27.2382C28.778 22.4686 29.9999 21.2191 29.9999 19.7069V6.27734C29.9347 6.32621 29.8682 6.37373 29.7998 6.41926L17.5072 14.6147Z" fill="#4300D0"/>
<path d="M1.1748 4.95656L13.4679 13.1523C13.9333 13.4626 14.4666 13.6177 14.9999 13.6177C15.5333 13.6177 16.0667 13.4625 16.5321 13.1523L28.8252 4.95656C29.5608 4.46643 30 3.64611 30 2.76076C30 1.23844 28.7615 0 27.2392 0H2.76076C1.2385 5.85938e-05 0 1.2385 0 2.76223C0 3.64611 0.439219 4.46643 1.1748 4.95656Z" fill="#4300D0"/>
</svg>
