<svg width="30" height="30" viewBox="0 0 30 30" fill="none" xmlns="http://www.w3.org/2000/svg">
<path d="M22.8082 19.8457C21.8281 18.878 20.6045 18.878 19.6306 19.8457C18.8877 20.5823 18.1448 21.319 17.4144 22.0681C17.2146 22.2741 17.046 22.3178 16.8026 22.1805C16.3219 21.9183 15.81 21.706 15.348 21.4189C13.1942 20.0642 11.39 18.3224 9.79183 16.3621C8.99899 15.3883 8.29354 14.3457 7.80036 13.172C7.70047 12.9348 7.7192 12.7787 7.91273 12.5852C8.65563 11.8673 9.3798 11.1306 10.1102 10.394C11.1278 9.37013 11.1278 8.1715 10.104 7.14142C9.52339 6.55459 8.9428 5.98025 8.36221 5.39342C7.7629 4.7941 7.16983 4.18855 6.56427 3.59547C5.58414 2.64031 4.36054 2.64031 3.38665 3.60172C2.6375 4.33838 1.91957 5.09376 1.15794 5.81793C0.4525 6.48592 0.096656 7.30374 0.0217416 8.2589C-0.0968729 9.81337 0.283942 11.2804 0.820829 12.7101C1.91957 15.6692 3.59266 18.2974 5.6216 20.7072C8.36222 23.966 11.6335 26.5443 15.4604 28.4046C17.1834 29.2412 18.9688 29.8842 20.9104 29.9903C22.2464 30.0652 23.4075 29.7281 24.3377 28.6856C24.9745 27.9739 25.6924 27.3246 26.3666 26.6441C27.3655 25.6328 27.3717 24.4092 26.3791 23.4103C25.193 22.218 24.0006 21.0318 22.8082 19.8457Z" fill="#4300D0"/>
<path d="M21.6149 14.8705L23.9185 14.4772C23.5565 12.3609 22.5576 10.4443 21.0406 8.92107C19.4362 7.31665 17.4072 6.30531 15.1723 5.99316L14.8477 8.30927C16.5769 8.55274 18.1501 9.3331 19.3925 10.5754C20.5661 11.7491 21.334 13.2349 21.6149 14.8705Z" fill="#4300D0"/>
<path d="M25.2178 4.85695C22.5583 2.19749 19.1934 0.518158 15.4789 0L15.1543 2.3161C18.3631 2.76559 21.2723 4.22018 23.5697 6.51131C25.7484 8.69007 27.1781 11.4432 27.6962 14.471L29.9998 14.0777C29.3943 10.5692 27.7399 7.38531 25.2178 4.85695Z" fill="#4300D0"/>
</svg>
