<svg width="58" height="58" viewBox="0 0 58 58" fill="none" xmlns="http://www.w3.org/2000/svg">
<path d="M29.0095 0C16.9022 0 13.3613 0.01249 12.673 0.0695869C10.1884 0.276117 8.64236 0.667321 6.958 1.50593C5.65993 2.1505 4.6362 2.89767 3.62585 3.94504C1.78582 5.85511 0.670641 8.20501 0.266948 10.9983C0.0706773 12.3544 0.0135804 12.6309 0.00198253 19.5575C-0.00247817 21.8664 0.00198253 24.905 0.00198253 28.9807C0.00198253 41.0781 0.0153646 44.6155 0.0733537 45.3024C0.274085 47.7201 0.653245 49.2412 1.45617 50.9051C2.99065 54.09 5.92133 56.4809 9.37391 57.3731C10.5694 57.6809 11.8897 57.8504 13.5848 57.9307C14.303 57.9619 21.623 57.9842 28.9475 57.9842C36.2719 57.9842 43.5964 57.9753 44.2967 57.9396C46.2594 57.8472 47.3991 57.6942 48.6593 57.3686C52.1342 56.472 55.0113 54.1168 56.577 50.8872C57.3643 49.2635 57.7636 47.6844 57.9442 45.393C57.9835 44.8934 58 36.9279 58 28.9731C58 21.017 57.9822 13.0663 57.9429 12.5667C57.76 10.2382 57.3608 8.67249 56.548 7.01757C55.8812 5.66286 55.1407 4.65117 54.0657 3.61674C52.1471 1.78428 49.8008 0.669105 47.0048 0.265858C45.6501 0.070033 45.3802 0.0120439 38.4483 0H29.0095Z" fill="url(#paint0_radial_356_490)"/>
<path d="M29.0095 0C16.9022 0 13.3613 0.01249 12.673 0.0695869C10.1884 0.276117 8.64236 0.667321 6.958 1.50593C5.65993 2.1505 4.6362 2.89767 3.62585 3.94504C1.78582 5.85511 0.670641 8.20501 0.266948 10.9983C0.0706773 12.3544 0.0135804 12.6309 0.00198253 19.5575C-0.00247817 21.8664 0.00198253 24.905 0.00198253 28.9807C0.00198253 41.0781 0.0153646 44.6155 0.0733537 45.3024C0.274085 47.7201 0.653245 49.2412 1.45617 50.9051C2.99065 54.09 5.92133 56.4809 9.37391 57.3731C10.5694 57.6809 11.8897 57.8504 13.5848 57.9307C14.303 57.9619 21.623 57.9842 28.9475 57.9842C36.2719 57.9842 43.5964 57.9753 44.2967 57.9396C46.2594 57.8472 47.3991 57.6942 48.6593 57.3686C52.1342 56.472 55.0113 54.1168 56.577 50.8872C57.3643 49.2635 57.7636 47.6844 57.9442 45.393C57.9835 44.8934 58 36.9279 58 28.9731C58 21.017 57.9822 13.0663 57.9429 12.5667C57.76 10.2382 57.3608 8.67249 56.548 7.01757C55.8812 5.66286 55.1407 4.65117 54.0657 3.61674C52.1471 1.78428 49.8008 0.669105 47.0048 0.265858C45.6501 0.070033 45.3802 0.0120439 38.4483 0H29.0095Z" fill="url(#paint1_radial_356_490)"/>
<path d="M28.9952 7.58301C23.1802 7.58301 22.4504 7.60843 20.1666 7.71237C17.8871 7.81675 16.3312 8.17762 14.9698 8.7071C13.5616 9.25399 12.367 9.98554 11.1769 11.1761C9.9859 12.3662 9.25435 13.5608 8.70568 14.9686C8.17486 16.3304 7.81354 17.8868 7.71095 20.1653C7.6088 22.4492 7.58203 23.1794 7.58203 28.9944C7.58203 34.8093 7.6079 35.5369 7.71139 37.8208C7.81622 40.1002 8.17709 41.6561 8.70613 43.0175C9.25346 44.4257 9.98501 45.6203 11.1756 46.8104C12.3652 48.0014 13.5598 48.7347 14.9672 49.2816C16.3295 49.8111 17.8858 50.172 20.1648 50.2764C22.4487 50.3803 23.178 50.4057 28.9925 50.4057C34.8079 50.4057 35.5355 50.3803 37.8193 50.2764C40.0988 50.172 41.6564 49.8111 43.0187 49.2816C44.4265 48.7347 45.6193 48.0014 46.809 46.8104C48 45.6203 48.7315 44.4257 49.2802 43.0179C49.8066 41.6561 50.1679 40.0997 50.2749 37.8212C50.3775 35.5373 50.4043 34.8093 50.4043 28.9944C50.4043 23.1794 50.3775 22.4496 50.2749 20.1657C50.1679 17.8863 49.8066 16.3304 49.2802 14.969C48.7315 13.5608 48 12.3662 46.809 11.1761C45.618 9.98509 44.427 9.25354 43.0174 8.7071C41.6524 8.17762 40.0956 7.81675 37.8162 7.71237C35.5323 7.60843 34.8052 7.58301 28.9885 7.58301H28.9952ZM27.0744 11.4415C27.6445 11.4406 28.2806 11.4415 28.9952 11.4415C34.712 11.4415 35.3896 11.462 37.6471 11.5646C39.7348 11.6601 40.8678 12.0089 41.6225 12.302C42.6217 12.6901 43.3341 13.154 44.083 13.9034C44.8324 14.6528 45.2964 15.3665 45.6853 16.3657C45.9784 17.1195 46.3277 18.2526 46.4227 20.3402C46.5253 22.5973 46.5476 23.2753 46.5476 28.9895C46.5476 34.7036 46.5253 35.3816 46.4227 37.6388C46.3272 39.7264 45.9784 40.8594 45.6853 41.6132C45.2972 42.6124 44.8324 43.3239 44.083 44.0729C43.3336 44.8223 42.6222 45.2862 41.6225 45.6743C40.8687 45.9687 39.7348 46.3166 37.6471 46.4121C35.39 46.5147 34.712 46.537 28.9952 46.537C23.2779 46.537 22.6003 46.5147 20.3432 46.4121C18.2556 46.3157 17.1226 45.9669 16.3674 45.6738C15.3682 45.2857 14.6545 44.8218 13.9051 44.0724C13.1557 43.323 12.6918 42.6111 12.3028 41.6115C12.0097 40.8576 11.6604 39.7246 11.5654 37.637C11.4628 35.3799 11.4423 34.7018 11.4423 28.9841C11.4423 23.2664 11.4628 22.5919 11.5654 20.3348C11.6609 18.2472 12.0097 17.1142 12.3028 16.3594C12.6909 15.3602 13.1557 14.6465 13.9051 13.8971C14.6545 13.1477 15.3682 12.6838 16.3674 12.2948C17.1221 12.0004 18.2556 11.6525 20.3432 11.5566C22.3184 11.4674 23.0839 11.4406 27.0744 11.4362V11.4415ZM40.4244 14.9967C39.0059 14.9967 37.855 16.1462 37.855 17.5652C37.855 18.9837 39.0059 20.1345 40.4244 20.1345C41.8429 20.1345 42.9937 18.9837 42.9937 17.5652C42.9937 16.1467 41.8429 14.9958 40.4244 14.9958V14.9967ZM28.9952 17.9987C22.9228 17.9987 17.9995 22.922 17.9995 28.9944C17.9995 35.0667 22.9228 39.9878 28.9952 39.9878C35.0675 39.9878 39.989 35.0667 39.989 28.9944C39.989 22.922 35.0671 17.9987 28.9947 17.9987H28.9952ZM28.9952 21.8572C32.9366 21.8572 36.1323 25.0524 36.1323 28.9944C36.1323 32.9358 32.9366 36.1315 28.9952 36.1315C25.0533 36.1315 21.8581 32.9358 21.8581 28.9944C21.8581 25.0524 25.0533 21.8572 28.9952 21.8572V21.8572Z" fill="white"/>
<defs>
<radialGradient id="paint0_radial_356_490" cx="0" cy="0" r="1" gradientUnits="userSpaceOnUse" gradientTransform="translate(15.4063 62.4502) rotate(-90) scale(57.4666 53.463)">
<stop stop-color="#FFDD55"/>
<stop offset="0.1" stop-color="#FFDD55"/>
<stop offset="0.5" stop-color="#FF543E"/>
<stop offset="1" stop-color="#C837AB"/>
</radialGradient>
<radialGradient id="paint1_radial_356_490" cx="0" cy="0" r="1" gradientUnits="userSpaceOnUse" gradientTransform="translate(-9.71531 4.17708) rotate(78.6776) scale(25.6881 105.914)">
<stop stop-color="#3771C8"/>
<stop offset="0.128" stop-color="#3771C8"/>
<stop offset="1" stop-color="#6600FF" stop-opacity="0"/>
</radialGradient>
</defs>
</svg>
