<svg width="64" height="64" viewBox="0 0 64 64" fill="none" xmlns="http://www.w3.org/2000/svg">
<path d="M26.72 63.68C11.52 60.96 0 47.84 0 32C0 14.4 14.4 0 32 0C49.6 0 64 14.4 64 32C64 47.84 52.48 60.96 37.28 63.68L35.52 62.24H28.48L26.72 63.68Z" fill="url(#paint0_linear_356_479)"/>
<path d="M44.4809 40.9605L45.9209 32.0005H37.4409V25.7605C37.4409 23.2005 38.4009 21.2805 42.2409 21.2805H46.4009V13.1205C44.1609 12.8005 41.6009 12.4805 39.3609 12.4805C32.0009 12.4805 26.8809 16.9605 26.8809 24.9605V32.0005H18.8809V40.9605H26.8809V63.5205C28.6409 63.8405 30.4009 64.0005 32.1609 64.0005C33.9209 64.0005 35.6809 63.8405 37.4409 63.5205V40.9605H44.4809Z" fill="white"/>
<defs>
<linearGradient id="paint0_linear_356_479" x1="32.0016" y1="61.7743" x2="32.0016" y2="-0.0117884" gradientUnits="userSpaceOnUse">
<stop stop-color="#0062E0"/>
<stop offset="1" stop-color="#19AFFF"/>
</linearGradient>
</defs>
</svg>
