<svg width="62" height="63" viewBox="0 0 62 63" fill="none" xmlns="http://www.w3.org/2000/svg">
<path d="M0 62.2782L4.37981 46.287C1.67402 41.5959 0.252753 36.2743 0.25929 30.8588C0.266422 13.843 14.1137 0 31.1299 0C39.3873 0.00419562 47.1378 3.21762 52.9668 9.0508C58.7958 14.884 62.0029 22.6375 62 30.8836C61.9924 47.8981 48.1431 61.7436 31.1294 61.7436H31.116C25.9499 61.7415 20.8736 60.4455 16.3646 57.9869L0 62.2782Z" fill="white"/>
<path d="M31.1387 5.21296C16.9856 5.21296 5.47576 16.7186 5.47073 30.8608C5.46376 35.69 6.82366 40.4225 9.39322 44.5113L10.0037 45.4817L7.41121 54.9462L17.1224 52.3999L18.0601 52.9554C21.9986 55.2928 26.5143 56.5288 31.1194 56.5313H31.1291C45.2713 56.5313 56.7811 45.0244 56.7866 30.8814C56.7972 27.5104 56.1392 24.1709 54.8504 21.056C53.5616 17.9411 51.6678 15.1128 49.2785 12.7349C46.9025 10.3439 44.0758 8.44798 40.9621 7.15683C37.8484 5.86569 34.5095 5.20498 31.1387 5.21296V5.21296Z" fill="url(#paint0_linear_356_497)"/>
<path fill-rule="evenodd" clip-rule="evenodd" d="M23.4142 17.958C22.8361 16.6737 22.2277 16.6477 21.6785 16.6255L20.1999 16.6074C19.6856 16.6074 18.8498 16.8004 18.1432 17.5724C17.4367 18.3444 15.4434 20.2102 15.4434 24.0051C15.4434 27.8001 18.2074 31.4671 18.5926 31.9823C18.9778 32.4975 23.9286 40.5334 31.769 43.6251C38.2843 46.1945 39.6102 45.6835 41.0249 45.5551C42.4397 45.4267 45.5885 43.6893 46.2309 41.8882C46.8732 40.087 46.8736 38.5438 46.681 38.2212C46.4885 37.8985 45.9741 37.7068 45.2021 37.3208C44.4301 36.9348 40.6385 35.069 39.9315 34.8114C39.2246 34.5538 38.7106 34.4258 38.1958 35.1978C37.681 35.9698 36.2046 37.7064 35.7544 38.2212C35.3042 38.736 34.8548 38.8006 34.0828 38.415C33.3108 38.0294 30.827 37.2146 27.88 34.5869C25.5871 32.5424 24.0394 30.0175 23.5887 29.2459C23.1381 28.4743 23.5409 28.0564 23.9278 27.6721C24.2739 27.3264 24.6989 26.7713 25.0853 26.3211C25.4717 25.8709 25.5989 25.5491 25.8556 25.0352C26.1124 24.5212 25.9844 24.0698 25.7914 23.6842C25.5984 23.2986 24.0998 19.4839 23.4142 17.9584" fill="white"/>
<defs>
<linearGradient id="paint0_linear_356_497" x1="30.6063" y1="8.29255" x2="30.8664" y2="52.1473" gradientUnits="userSpaceOnUse">
<stop stop-color="#57D163"/>
<stop offset="1" stop-color="#23B33A"/>
</linearGradient>
</defs>
</svg>
