<svg width="64" height="61" viewBox="0 0 64 61" fill="none" xmlns="http://www.w3.org/2000/svg">
<path d="M62.7454 44.8061C54.189 43.398 50.3329 34.6336 50.1769 34.2616C50.1649 34.2376 50.1569 34.2136 50.1409 34.1896C49.7048 33.3016 49.6008 32.5695 49.8408 32.0135C50.3089 30.9174 52.1009 30.3494 53.285 29.9734C53.629 29.8654 53.953 29.7614 54.221 29.6574C55.3891 29.1974 56.2211 28.6973 56.7732 28.1333C57.4292 27.4573 57.5572 26.8093 57.5492 26.3892C57.5292 25.3652 56.7452 24.4531 55.4931 24.0091C55.0731 23.8371 54.5891 23.7451 54.101 23.7451C53.769 23.7451 53.273 23.7891 52.805 24.0091C51.8049 24.4771 50.9089 24.7332 50.1368 24.7692C49.7288 24.7492 49.4408 24.6612 49.2528 24.5771C49.2768 24.1771 49.3008 23.7651 49.3288 23.3411L49.3408 23.1571C49.6168 18.8249 49.9568 13.4366 48.5248 10.2365C47.5447 8.04438 46.2287 6.16029 44.6086 4.63222C43.2525 3.35216 41.6765 2.31211 39.9244 1.54407C36.8802 0.200009 34.0401 0 32.616 0H32.612C32.556 0 32.504 0 32.456 0C32.06 0.00400019 31.416 0.0120005 31.356 0.0120005C29.9359 0.0120005 27.0918 0.21201 24.0396 1.55607C22.2915 2.32411 20.7235 3.36016 19.3714 4.64022C17.7593 6.16829 16.4473 8.04838 15.4712 10.2325C14.0392 13.4286 14.3792 18.8169 14.6512 23.1451V23.1531C14.6792 23.6171 14.7112 24.1011 14.7392 24.5731C14.5312 24.6652 14.1912 24.7692 13.6911 24.7692C12.8831 24.7692 11.9231 24.5131 10.839 24.0051C10.519 23.8571 10.155 23.7811 9.75496 23.7811C9.11093 23.7811 8.4269 23.9691 7.83887 24.3171C7.09484 24.7532 6.61482 25.3652 6.48281 26.0492C6.39881 26.4972 6.40281 27.3893 7.39485 28.2933C7.94288 28.7893 8.74291 29.2494 9.77896 29.6574C10.051 29.7654 10.375 29.8654 10.715 29.9734C11.8991 30.3494 13.6951 30.9174 14.1632 32.0135C14.3992 32.5695 14.2952 33.3016 13.8592 34.1896C13.8472 34.2136 13.8352 34.2376 13.8272 34.2616C13.7151 34.5176 12.6951 36.8177 10.603 39.2458C9.41495 40.6259 8.10688 41.782 6.71482 42.678C5.01474 43.774 3.17865 44.4861 1.25456 44.8021C0.49853 44.9261 -0.0414956 45.5981 0.00250645 46.3622C0.014507 46.5822 0.0665094 46.8022 0.158514 47.0142V47.0182C0.466528 47.7342 1.17456 48.3383 2.32662 48.8703C3.73468 49.5223 5.83878 50.0703 8.58691 50.4984C8.72691 50.7624 8.87092 51.4224 8.97093 51.8744C9.07493 52.3544 9.18294 52.8505 9.33894 53.3745C9.50695 53.9425 9.93897 54.6226 11.055 54.6226C11.479 54.6226 11.9631 54.5265 12.5271 54.4185C13.3511 54.2585 14.4792 54.0385 15.8832 54.0385C16.6633 54.0385 17.4713 54.1065 18.2834 54.2425C19.8514 54.5025 21.2035 55.4546 22.7676 56.5586C25.0557 58.1747 27.6478 60.0028 31.608 60.0028C31.716 60.0028 31.824 59.9988 31.932 59.9908C32.06 59.9988 32.224 60.0028 32.392 60.0028C36.3522 60.0028 38.9443 58.1747 41.2324 56.5626L41.2364 56.5586C42.8005 55.4586 44.1526 54.5065 45.7206 54.2465C46.5327 54.1105 47.3407 54.0425 48.1208 54.0425C49.4648 54.0425 50.5289 54.2145 51.4769 54.3985C52.0969 54.5185 52.577 54.5786 52.949 54.5786H52.985H53.021C53.837 54.5786 54.437 54.1305 54.6651 53.3505C54.8171 52.8345 54.9251 52.3544 55.0331 51.8624C55.1251 51.4384 55.2771 50.7584 55.4131 50.4944C58.1612 50.0623 60.2653 49.5183 61.6734 48.8663C62.8214 48.3343 63.5295 47.7302 63.8375 47.0182C63.9295 46.8062 63.9855 46.5862 63.9975 46.3582C64.0415 45.6021 63.5015 44.9261 62.7454 44.8061Z" fill="#FFEB3B"/>
</svg>
