<svg width="64" height="39" viewBox="0 0 64 39" fill="none" xmlns="http://www.w3.org/2000/svg">
<path d="M56.8374 4.38647C54.5958 2.58293 51.9936 1.32045 49.1852 0.650563C47.5878 0.264089 45.9646 0.0837367 44.3156 0.0322069C43.1047 -0.0193229 41.868 0.00644044 40.657 0.00644044H23.3172C22.1063 0.00644044 20.8696 0.00644201 19.6586 0.0322069C18.0097 0.0837367 16.4122 0.264089 14.7891 0.650563C11.9807 1.32045 9.4042 2.58293 7.16265 4.38647C2.62803 8.01932 0 13.5072 0 19.3301C0 25.153 2.62803 30.6409 7.16265 34.2737C9.4042 36.0773 12.0064 37.3398 14.8148 38.0097C16.4122 38.3961 18.0354 38.5765 19.6844 38.628C20.8953 38.6796 22.1321 38.6538 23.343 38.6538H40.6828C41.8937 38.6538 43.1304 38.6538 44.3414 38.628C45.9903 38.5765 47.5878 38.3961 49.2109 38.0097C52.0193 37.3398 54.5958 36.0773 56.8374 34.2737C61.372 30.6409 64 25.153 64 19.3301C64 13.5072 61.372 8.01932 56.8374 4.38647ZM48.3607 24.5346C47.5105 25.1272 46.5572 25.4879 45.5523 25.6425C44.5475 25.7971 43.5169 25.7713 42.5121 25.7713H21.5137C20.4831 25.7713 19.4783 25.7971 18.4734 25.6425C17.4428 25.4879 16.5153 25.1272 15.6651 24.5346C13.9646 23.3494 12.934 21.4171 12.934 19.3301C12.934 17.2432 13.9646 15.3108 15.6651 14.1256C16.5153 13.533 17.4686 13.1723 18.4734 13.0177C19.4783 12.8631 20.5089 12.8889 21.5137 12.8889H42.5121C43.5427 12.8889 44.5475 12.8631 45.5523 13.0177C46.5829 13.1723 47.5105 13.533 48.3607 14.1256C50.0612 15.3108 51.0918 17.2432 51.0918 19.3301C51.1176 21.4171 50.087 23.3494 48.3607 24.5346Z" fill="#1C1C1C"/>
</svg>
