<svg width="52" height="59" viewBox="0 0 52 59" fill="none" xmlns="http://www.w3.org/2000/svg">
<path d="M38.5381 21.2114C42.3322 23.9221 46.9801 25.517 52 25.517V15.8621C51.05 15.8623 50.1024 15.7633 49.1729 15.5665V23.1663C44.1534 23.1663 39.5061 21.5713 35.711 18.8608V38.5637C35.711 48.4201 27.7168 56.4098 17.8559 56.4098C14.1766 56.4098 10.7568 55.298 7.91602 53.3913C11.1583 56.7048 15.68 58.7603 20.6824 58.7603C30.5438 58.7603 38.5385 50.7707 38.5385 40.9139V21.2114H38.5381V21.2114ZM42.0256 11.4707C40.0867 9.35348 38.8136 6.61734 38.5381 3.59242V2.35059H35.859C36.5334 6.19526 38.8335 9.47992 42.0256 11.4707ZM14.153 45.8278C13.0697 44.4081 12.4843 42.6714 12.4869 40.8857C12.4869 36.3777 16.1434 32.7226 20.6546 32.7226C21.4953 32.7224 22.331 32.8511 23.1322 33.1052V23.2344C22.1959 23.1062 21.2509 23.0517 20.3063 23.0717V30.7546C19.5045 30.5005 18.6684 30.3714 17.8275 30.3723C13.3163 30.3723 9.65998 34.027 9.65998 38.5355C9.65998 41.7234 11.4876 44.4833 14.153 45.8278Z" fill="#FF004F"/>
<path d="M35.712 18.8606C39.5071 21.5711 44.1544 23.1661 49.174 23.1661V15.5663C46.3721 14.9698 43.8916 13.5063 42.0267 11.4707C38.8344 9.47972 36.5344 6.19506 35.8601 2.35059H28.8229V40.9135C28.807 45.4091 25.1567 49.0493 20.6552 49.0493C18.0025 49.0493 15.6459 47.7855 14.1534 45.8278C11.4883 44.4833 9.66062 41.7232 9.66062 38.5357C9.66062 34.0276 13.3169 30.3725 17.8281 30.3725C18.6924 30.3725 19.5255 30.507 20.3069 30.7548V23.0719C10.6193 23.272 2.82812 31.1835 2.82812 40.9137C2.82812 45.7709 4.76831 50.1742 7.91725 53.3915C10.7581 55.298 14.1778 56.41 17.8571 56.41C27.7182 56.41 35.7123 48.4199 35.7123 38.5637V18.8606H35.712Z" fill="black"/>
<path d="M49.1727 15.566V13.5111C46.6461 13.5149 44.1691 12.8077 42.0254 11.4703C43.9231 13.5468 46.4219 14.9786 49.1727 15.566ZM35.8588 2.35036C35.7945 1.98294 35.7451 1.61309 35.7108 1.24183V0H25.9944V38.5633C25.9788 43.0583 22.3288 46.6985 17.8269 46.6985C16.5052 46.6985 15.2573 46.385 14.1522 45.8278C15.6447 47.7853 18.0013 49.0489 20.654 49.0489C25.155 49.0489 28.8059 45.4091 28.8217 40.9135V2.35036H35.8588ZM20.3061 23.0717V20.8841C19.4942 20.7731 18.6757 20.7175 17.8561 20.7179C7.99426 20.7177 0 28.7077 0 38.5633C0 44.7422 3.14189 50.1877 7.91622 53.3909C4.76728 50.1738 2.82709 45.7703 2.82709 40.9133C2.82709 31.1833 10.6181 23.2717 20.3061 23.0717Z" fill="#00F2EA"/>
</svg>
