<svg width="58" height="38" viewBox="0 0 58 38" fill="none" xmlns="http://www.w3.org/2000/svg">
<path d="M6.17948 25.0601C6.17948 27.2446 6.65895 28.9218 7.28565 29.9364C8.10733 31.2654 9.33288 31.8285 10.5823 31.8285C12.1938 31.8285 13.6681 31.4286 16.5091 27.4993C18.7851 24.3498 21.467 19.9291 23.2715 17.1577L26.3274 12.4624C28.4503 9.20157 30.9073 5.57665 33.7245 3.11958C36.0244 1.11414 38.5053 0 41.0022 0C45.1941 0 49.1871 2.42921 52.243 6.98524C55.5874 11.975 57.2109 18.2599 57.2109 24.7458C57.2109 28.6015 56.4509 31.4346 55.1577 33.6728C53.9083 35.8374 51.4731 38 47.3766 38V31.8285C50.8842 31.8285 51.7596 28.6054 51.7596 24.9169C51.7596 19.6605 50.534 13.8272 47.8342 9.65916C45.9183 6.70272 43.4354 4.89623 40.7038 4.89623C37.7493 4.89623 35.3718 7.1245 32.6999 11.0976C31.2794 13.2085 29.821 15.7809 28.1837 18.6837L26.3812 21.8769C22.7602 28.2971 21.843 29.7594 20.0326 32.1727C16.8593 36.3984 14.1495 38 10.5823 38C6.35058 38 3.67466 36.1676 2.01738 33.4062C0.664503 31.156 0 28.2036 0 24.8393L6.17948 25.0601Z" fill="#0081FB"/>
<path d="M4.87109 7.42094C7.70418 3.05393 11.7927 0 16.482 0C19.1977 0 21.8975 0.80377 24.7166 3.10565C27.8004 5.62241 31.0871 9.7666 35.1875 16.5966L36.6578 19.0477C40.2071 24.9606 42.2265 28.0026 43.4083 29.4371C44.9283 31.2794 45.9927 31.8285 47.3754 31.8285C50.8829 31.8285 51.7583 28.6054 51.7583 24.9169L57.2096 24.7458C57.2096 28.6015 56.4496 31.4346 55.1564 33.6728C53.907 35.8374 51.4718 38 47.3754 38C44.8288 38 42.5727 37.4469 40.0778 35.0933C38.1599 33.2868 35.9177 30.0777 34.1928 27.1929L29.0618 18.622C26.4873 14.3206 24.1258 11.1135 22.7589 9.66115C21.2887 8.09937 19.3986 6.2133 16.3825 6.2133C13.9414 6.2133 11.8683 7.92628 10.1334 10.5465L4.87109 7.42094Z" fill="url(#paint0_linear_356_524)"/>
<path d="M16.3838 6.2133C13.9426 6.2133 11.8695 7.92628 10.1347 10.5465C7.68157 14.249 6.17948 19.764 6.17948 25.0601C6.17948 27.2446 6.65895 28.9218 7.28565 29.9364L2.01738 33.4062C0.664503 31.156 0 28.2036 0 24.8393C0 18.7215 1.67916 12.345 4.87236 7.42094C7.70545 3.05393 11.7939 0 16.4832 0L16.3838 6.2133Z" fill="url(#paint1_linear_356_524)"/>
<defs>
<linearGradient id="paint0_linear_356_524" x1="12.1349" y1="23.2775" x2="51.5275" y2="25.267" gradientUnits="userSpaceOnUse">
<stop stop-color="#0064E1"/>
<stop offset="0.4" stop-color="#0064E1"/>
<stop offset="0.83" stop-color="#0073EE"/>
<stop offset="1" stop-color="#0082FB"/>
</linearGradient>
<linearGradient id="paint1_linear_356_524" x1="8.95288" y1="27.6544" x2="8.95288" y2="13.1309" gradientUnits="userSpaceOnUse">
<stop stop-color="#0082FB"/>
<stop offset="1" stop-color="#0064E0"/>
</linearGradient>
</defs>
</svg>
