<svg width="64" height="65" viewBox="0 0 64 65" fill="none" xmlns="http://www.w3.org/2000/svg">
<path d="M32 0C13.976 0 0 13.208 0 31.04C0 40.368 3.824 48.432 10.048 54C10.568 54.464 10.888 55.12 10.904 55.824L11.08 61.52C11.0928 61.9391 11.2084 62.3486 11.4165 62.7126C11.6247 63.0766 11.9191 63.3839 12.2738 63.6075C12.6285 63.831 13.0327 63.9641 13.4509 63.9948C13.869 64.0256 14.2884 63.9532 14.672 63.784L21.024 60.984C21.56 60.744 22.168 60.704 22.736 60.856C25.656 61.656 28.76 62.088 32 62.088C50.024 62.088 64 48.88 64 31.048C64 13.216 50.024 0 32 0Z" fill="url(#paint0_radial_356_485)"/>
<path d="M12.7831 40.1196L22.1831 25.2076C22.5367 24.6462 23.0028 24.1642 23.5521 23.792C24.1014 23.4198 24.7219 23.1655 25.3744 23.0453C26.027 22.925 26.6973 22.9413 27.3432 23.0932C27.9891 23.245 28.5965 23.5292 29.1271 23.9276L36.6071 29.5356C36.941 29.7856 37.3473 29.9201 37.7644 29.9186C38.1815 29.9172 38.5869 29.7799 38.9191 29.5276L49.0151 21.8636C50.3591 20.8396 52.1191 22.4556 51.2231 23.8876L41.8151 38.7916C41.4614 39.353 40.9953 39.835 40.446 40.2072C39.8967 40.5794 39.2762 40.8337 38.6237 40.9539C37.9712 41.0742 37.3008 41.0579 36.6549 40.906C36.009 40.7542 35.4016 40.47 34.8711 40.0716L27.3911 34.4636C27.0571 34.2136 26.6509 34.0791 26.2337 34.0806C25.8166 34.082 25.4112 34.2193 25.0791 34.4716L14.9831 42.1356C13.6391 43.1596 11.8791 41.5516 12.7831 40.1196V40.1196Z" fill="white"/>
<defs>
<radialGradient id="paint0_radial_356_485" cx="0" cy="0" r="1" gradientUnits="userSpaceOnUse" gradientTransform="translate(10.72 64) scale(70.4)">
<stop stop-color="#0099FF"/>
<stop offset="0.6" stop-color="#A033FF"/>
<stop offset="0.9" stop-color="#FF5280"/>
<stop offset="1" stop-color="#FF7061"/>
</radialGradient>
</defs>
</svg>
