<svg width="1148" height="617" viewBox="0 0 1148 617" fill="none" xmlns="http://www.w3.org/2000/svg">
<path d="M753.617 610.919L753.626 610.923C759.533 613.169 765.916 614.282 772.754 614.282C779.513 614.282 785.781 613.169 791.537 610.918C797.34 608.679 802.387 605.556 806.654 601.54L806.655 601.54C810.997 597.447 814.382 592.641 816.801 587.135L816.805 587.125C819.233 581.516 820.438 575.463 820.438 568.99C820.438 562.444 819.236 556.423 816.799 550.959C814.381 545.458 811 540.656 806.661 536.566C802.395 532.469 797.345 529.303 791.537 527.062C785.778 524.809 779.469 523.697 772.634 523.697C765.873 523.697 759.567 524.811 753.736 527.06C747.926 529.301 742.838 532.466 738.494 536.56C734.151 540.652 730.767 545.458 728.348 550.964L728.342 550.976L728.338 550.987C725.991 556.518 724.83 562.526 724.83 568.99C724.83 575.453 725.991 581.462 728.338 586.992L728.342 587.004L728.348 587.016C730.763 592.513 734.102 597.315 738.36 601.407L738.367 601.413L738.374 601.42C742.718 605.513 747.806 608.678 753.617 610.919ZM782.176 592.008L782.168 592.011L782.16 592.015C779.318 593.181 776.151 593.779 772.634 593.779C769.118 593.779 765.905 593.181 762.972 592.008C760.036 590.834 757.479 589.153 755.284 586.962C753.169 584.77 751.477 582.168 750.215 579.134C749.041 576.04 748.443 572.664 748.443 568.99C748.443 565.227 749.044 561.856 750.212 558.853C751.471 555.824 753.199 553.223 755.392 551.03C757.596 548.826 760.121 547.142 762.981 545.968C765.911 544.797 769.121 544.201 772.634 544.201C776.15 544.201 779.364 544.799 782.296 545.971C785.232 547.146 787.743 548.824 789.853 551.006L789.864 551.018L789.876 551.03C792.065 553.219 793.75 555.813 794.929 558.834L794.936 558.854L794.944 558.873C796.187 561.87 796.825 565.233 796.825 568.99C796.825 572.747 796.187 576.11 794.944 579.107L794.936 579.126L794.929 579.146C793.75 582.167 792.065 584.761 789.876 586.95C787.679 589.147 785.118 590.832 782.176 592.008ZM854.373 610.847V582.351H891.121H893.121V580.351V564.804V562.804H891.121H854.373V544.679H896.263H898.263V542.679V527.132V525.132H896.263H832.999H830.999V527.132V610.847V612.847H832.999H852.373H854.373V610.847ZM930.753 610.847V582.351H967.501H969.501V580.351V564.804V562.804H967.501H930.753V544.679H972.644H974.644V542.679V527.132V525.132H972.644H909.379H907.379V527.132V610.847V612.847H909.379H928.753H930.753V610.847ZM1007.01 593.3V577.926H1043.88H1045.88V575.926V560.858V558.858H1043.88H1007.01V544.679H1049.02H1051.02V542.679V527.132V525.132H1049.02H985.76H983.76V527.132V610.847V612.847H985.76H1050.58H1052.58V610.847V595.3V593.3H1050.58H1007.01ZM1063.99 610.847V612.847H1065.99H1085.37H1087.37V610.847V589.527H1102.09L1117.57 611.982L1118.16 612.847H1119.21H1140.14H1143.97L1141.78 609.704L1124.43 584.805C1129.21 582.339 1133.03 578.994 1135.83 574.756L1135.84 574.75L1135.84 574.743C1139.03 569.828 1140.59 564.056 1140.59 557.509C1140.59 550.888 1139.03 545.074 1135.84 540.155C1132.66 535.257 1128.16 531.548 1122.42 529.015C1116.69 526.401 1109.93 525.132 1102.23 525.132H1065.99H1063.99V527.132V610.847ZM1101.15 570.099H1087.37V544.919H1101.15C1106.9 544.919 1110.8 546.151 1113.24 548.258C1115.67 550.358 1116.97 553.347 1116.97 557.509C1116.97 561.571 1115.68 564.577 1113.23 566.769C1110.79 568.87 1106.89 570.099 1101.15 570.099Z" fill="#121212" stroke="#480075" stroke-width="4"/>
<mask id="path-2-outside-1_381_2" maskUnits="userSpaceOnUse" x="0" y="0" width="715" height="93" fill="black">
<rect fill="white" width="715" height="93"/>
<path d="M38.0839 89.5851C31.3867 89.5851 24.9686 88.7081 18.8295 86.9541C12.6904 85.1203 7.74724 82.7684 4 79.8981L10.5776 65.3078C14.1654 67.8591 18.391 69.9719 23.2544 71.6462C28.1976 73.2408 33.1806 74.0381 38.2035 74.0381C42.0305 74.0381 45.1 73.6793 47.4122 72.9617C49.804 72.1645 51.558 71.0881 52.6742 69.7327C53.7904 68.3774 54.3485 66.8227 54.3485 65.0686C54.3485 62.8362 53.4715 61.0822 51.7175 59.8065C49.9635 58.4512 47.6513 57.3748 44.7811 56.5775C41.9109 55.7005 38.7218 54.9032 35.2137 54.1857C31.7854 53.3884 28.3172 52.4317 24.8091 51.3155C21.3808 50.1993 18.2315 48.7641 15.3613 47.0101C12.4911 45.2561 10.1391 42.944 8.30534 40.0737C6.55131 37.2035 5.6743 33.536 5.6743 29.0712C5.6743 24.2875 6.94995 19.9423 9.50127 16.0356C12.1323 12.0492 16.039 8.8999 21.2214 6.58778C26.4834 4.19593 33.061 3 40.9542 3C46.2162 3 51.3986 3.63783 56.5012 4.91348C61.6038 6.10941 66.1085 7.94316 70.0152 10.4147L64.0356 25.1247C60.1289 22.8923 56.2222 21.2578 52.3155 20.2214C48.4088 19.1052 44.5818 18.5471 40.8346 18.5471C37.0873 18.5471 34.0178 18.9856 31.6259 19.8626C29.2341 20.7396 27.5199 21.8957 26.4834 23.3308C25.447 24.6861 24.9287 26.2807 24.9287 28.1145C24.9287 30.2671 25.8057 32.0212 27.5598 33.3766C29.3138 34.6522 31.6259 35.6887 34.4961 36.486C37.3664 37.2832 40.5156 38.0805 43.944 38.8778C47.452 39.6751 50.9202 40.592 54.3485 41.6284C57.8566 42.6649 61.0457 44.0602 63.916 45.8142C66.7862 47.5682 69.0983 49.8803 70.8523 52.7506C72.6861 55.6208 73.603 59.2484 73.603 63.6335C73.603 68.3375 72.2874 72.6428 69.6564 76.5495C67.0254 80.4562 63.0788 83.6055 57.8167 85.9974C52.6344 88.3892 46.0568 89.5851 38.0839 89.5851Z"/>
<path d="M86.8413 88.15V4.43511H123.078C130.572 4.43511 137.03 5.6709 142.452 8.14249C147.873 10.5343 152.059 14.0025 155.009 18.5471C157.959 23.0916 159.434 28.5131 159.434 34.8117C159.434 41.0305 157.959 46.4122 155.009 50.9567C152.059 55.5012 147.873 59.0093 142.452 61.4808C137.03 63.8727 130.572 65.0686 123.078 65.0686H97.6047L106.215 56.3384V88.15H86.8413ZM106.215 58.491L97.6047 49.2824H122.002C127.981 49.2824 132.446 48.0067 135.396 45.4554C138.346 42.9041 139.821 39.3562 139.821 34.8117C139.821 30.1874 138.346 26.5996 135.396 24.0483C132.446 21.497 127.981 20.2214 122.002 20.2214H97.6047L106.215 11.0127V58.491Z"/>
<path d="M215.095 89.5851C208.478 89.5851 202.339 88.5088 196.678 86.3561C191.097 84.2035 186.233 81.1738 182.088 77.2671C178.021 73.3604 174.832 68.776 172.52 63.5139C170.288 58.2518 169.172 52.5114 169.172 46.2926C169.172 40.0737 170.288 34.3333 172.52 29.0712C174.832 23.8091 178.061 19.2247 182.207 15.318C186.353 11.4114 191.216 8.38167 196.797 6.229C202.378 4.07633 208.438 3 214.976 3C221.593 3 227.652 4.07633 233.154 6.229C238.735 8.38167 243.558 11.4114 247.624 15.318C251.77 19.2247 254.999 23.8091 257.311 29.0712C259.624 34.2536 260.78 39.994 260.78 46.2926C260.78 52.5114 259.624 58.2917 257.311 63.6335C254.999 68.8956 251.77 73.48 247.624 77.3867C243.558 81.2136 238.735 84.2035 233.154 86.3561C227.652 88.5088 221.633 89.5851 215.095 89.5851ZM214.976 73.0813C218.723 73.0813 222.151 72.4435 225.261 71.1679C228.45 69.8922 231.24 68.0584 233.632 65.6666C236.024 63.2747 237.858 60.4444 239.133 57.1755C240.489 53.9066 241.166 50.279 241.166 46.2926C241.166 42.3061 240.489 38.6785 239.133 35.4096C237.858 32.1408 236.024 29.3104 233.632 26.9185C231.32 24.5267 228.569 22.6929 225.38 21.4173C222.191 20.1416 218.723 19.5038 214.976 19.5038C211.228 19.5038 207.76 20.1416 204.571 21.4173C201.462 22.6929 198.711 24.5267 196.319 26.9185C193.927 29.3104 192.054 32.1408 190.698 35.4096C189.423 38.6785 188.785 42.3061 188.785 46.2926C188.785 50.1993 189.423 53.8269 190.698 57.1755C192.054 60.4444 193.887 63.2747 196.2 65.6666C198.591 68.0584 201.382 69.8922 204.571 71.1679C207.76 72.4435 211.228 73.0813 214.976 73.0813Z"/>
<path d="M291.513 88.15V20.2214H264.724V4.43511H337.676V20.2214H310.887V88.15H291.513Z"/>
<path d="M348.1 88.15V4.43511H367.474V72.3638H409.451V88.15H348.1Z"/>
<path d="M420.276 88.15V4.43511H439.65V88.15H420.276Z"/>
<path d="M499.94 89.5851C493.322 89.5851 487.223 88.5487 481.642 86.4757C476.141 84.3231 471.317 81.2934 467.171 77.3867C463.105 73.48 459.916 68.8956 457.604 63.6335C455.372 58.3714 454.255 52.5911 454.255 46.2926C454.255 39.994 455.372 34.2137 457.604 28.9516C459.916 23.6895 463.145 19.1052 467.291 15.1985C471.437 11.2918 476.3 8.30194 481.881 6.229C487.462 4.07633 493.601 3 500.299 3C507.713 3 514.371 4.23579 520.271 6.70737C526.25 9.17895 531.273 12.7667 535.339 17.4707L522.902 28.9516C519.872 25.7625 516.563 23.4105 512.975 21.8957C509.388 20.3011 505.481 19.5038 501.255 19.5038C497.189 19.5038 493.482 20.1416 490.133 21.4173C486.785 22.6929 483.875 24.5267 481.403 26.9185C479.011 29.3104 477.137 32.1408 475.782 35.4096C474.506 38.6785 473.869 42.3061 473.869 46.2926C473.869 50.1993 474.506 53.787 475.782 57.0559C477.137 60.3248 479.011 63.195 481.403 65.6666C483.875 68.0584 486.745 69.8922 490.014 71.1679C493.362 72.4435 497.03 73.0813 501.016 73.0813C504.843 73.0813 508.55 72.4834 512.138 71.2874C515.806 70.0118 519.354 67.899 522.782 64.949L533.785 78.9414C529.24 82.3697 523.938 85.0007 517.879 86.8345C511.899 88.6683 505.919 89.5851 499.94 89.5851ZM516.085 76.4299V44.977H533.785V78.9414L516.085 76.4299Z"/>
<path d="M609.186 4.43511H628.56V88.15H609.186V4.43511ZM571.155 88.15H551.781V4.43511H571.155V88.15ZM610.621 53.8269H569.72V37.4427H610.621V53.8269Z"/>
<path d="M665.707 88.15V20.2214H638.919V4.43511H711.87V20.2214H685.081V88.15H665.707Z"/>
</mask>
<path d="M38.0839 89.5851C31.3867 89.5851 24.9686 88.7081 18.8295 86.9541C12.6904 85.1203 7.74724 82.7684 4 79.8981L10.5776 65.3078C14.1654 67.8591 18.391 69.9719 23.2544 71.6462C28.1976 73.2408 33.1806 74.0381 38.2035 74.0381C42.0305 74.0381 45.1 73.6793 47.4122 72.9617C49.804 72.1645 51.558 71.0881 52.6742 69.7327C53.7904 68.3774 54.3485 66.8227 54.3485 65.0686C54.3485 62.8362 53.4715 61.0822 51.7175 59.8065C49.9635 58.4512 47.6513 57.3748 44.7811 56.5775C41.9109 55.7005 38.7218 54.9032 35.2137 54.1857C31.7854 53.3884 28.3172 52.4317 24.8091 51.3155C21.3808 50.1993 18.2315 48.7641 15.3613 47.0101C12.4911 45.2561 10.1391 42.944 8.30534 40.0737C6.55131 37.2035 5.6743 33.536 5.6743 29.0712C5.6743 24.2875 6.94995 19.9423 9.50127 16.0356C12.1323 12.0492 16.039 8.8999 21.2214 6.58778C26.4834 4.19593 33.061 3 40.9542 3C46.2162 3 51.3986 3.63783 56.5012 4.91348C61.6038 6.10941 66.1085 7.94316 70.0152 10.4147L64.0356 25.1247C60.1289 22.8923 56.2222 21.2578 52.3155 20.2214C48.4088 19.1052 44.5818 18.5471 40.8346 18.5471C37.0873 18.5471 34.0178 18.9856 31.6259 19.8626C29.2341 20.7396 27.5199 21.8957 26.4834 23.3308C25.447 24.6861 24.9287 26.2807 24.9287 28.1145C24.9287 30.2671 25.8057 32.0212 27.5598 33.3766C29.3138 34.6522 31.6259 35.6887 34.4961 36.486C37.3664 37.2832 40.5156 38.0805 43.944 38.8778C47.452 39.6751 50.9202 40.592 54.3485 41.6284C57.8566 42.6649 61.0457 44.0602 63.916 45.8142C66.7862 47.5682 69.0983 49.8803 70.8523 52.7506C72.6861 55.6208 73.603 59.2484 73.603 63.6335C73.603 68.3375 72.2874 72.6428 69.6564 76.5495C67.0254 80.4562 63.0788 83.6055 57.8167 85.9974C52.6344 88.3892 46.0568 89.5851 38.0839 89.5851Z" fill="#121212"/>
<path d="M86.8413 88.15V4.43511H123.078C130.572 4.43511 137.03 5.6709 142.452 8.14249C147.873 10.5343 152.059 14.0025 155.009 18.5471C157.959 23.0916 159.434 28.5131 159.434 34.8117C159.434 41.0305 157.959 46.4122 155.009 50.9567C152.059 55.5012 147.873 59.0093 142.452 61.4808C137.03 63.8727 130.572 65.0686 123.078 65.0686H97.6047L106.215 56.3384V88.15H86.8413ZM106.215 58.491L97.6047 49.2824H122.002C127.981 49.2824 132.446 48.0067 135.396 45.4554C138.346 42.9041 139.821 39.3562 139.821 34.8117C139.821 30.1874 138.346 26.5996 135.396 24.0483C132.446 21.497 127.981 20.2214 122.002 20.2214H97.6047L106.215 11.0127V58.491Z" fill="#121212"/>
<path d="M215.095 89.5851C208.478 89.5851 202.339 88.5088 196.678 86.3561C191.097 84.2035 186.233 81.1738 182.088 77.2671C178.021 73.3604 174.832 68.776 172.52 63.5139C170.288 58.2518 169.172 52.5114 169.172 46.2926C169.172 40.0737 170.288 34.3333 172.52 29.0712C174.832 23.8091 178.061 19.2247 182.207 15.318C186.353 11.4114 191.216 8.38167 196.797 6.229C202.378 4.07633 208.438 3 214.976 3C221.593 3 227.652 4.07633 233.154 6.229C238.735 8.38167 243.558 11.4114 247.624 15.318C251.77 19.2247 254.999 23.8091 257.311 29.0712C259.624 34.2536 260.78 39.994 260.78 46.2926C260.78 52.5114 259.624 58.2917 257.311 63.6335C254.999 68.8956 251.77 73.48 247.624 77.3867C243.558 81.2136 238.735 84.2035 233.154 86.3561C227.652 88.5088 221.633 89.5851 215.095 89.5851ZM214.976 73.0813C218.723 73.0813 222.151 72.4435 225.261 71.1679C228.45 69.8922 231.24 68.0584 233.632 65.6666C236.024 63.2747 237.858 60.4444 239.133 57.1755C240.489 53.9066 241.166 50.279 241.166 46.2926C241.166 42.3061 240.489 38.6785 239.133 35.4096C237.858 32.1408 236.024 29.3104 233.632 26.9185C231.32 24.5267 228.569 22.6929 225.38 21.4173C222.191 20.1416 218.723 19.5038 214.976 19.5038C211.228 19.5038 207.76 20.1416 204.571 21.4173C201.462 22.6929 198.711 24.5267 196.319 26.9185C193.927 29.3104 192.054 32.1408 190.698 35.4096C189.423 38.6785 188.785 42.3061 188.785 46.2926C188.785 50.1993 189.423 53.8269 190.698 57.1755C192.054 60.4444 193.887 63.2747 196.2 65.6666C198.591 68.0584 201.382 69.8922 204.571 71.1679C207.76 72.4435 211.228 73.0813 214.976 73.0813Z" fill="#121212"/>
<path d="M291.513 88.15V20.2214H264.724V4.43511H337.676V20.2214H310.887V88.15H291.513Z" fill="#121212"/>
<path d="M348.1 88.15V4.43511H367.474V72.3638H409.451V88.15H348.1Z" fill="#121212"/>
<path d="M420.276 88.15V4.43511H439.65V88.15H420.276Z" fill="#121212"/>
<path d="M499.94 89.5851C493.322 89.5851 487.223 88.5487 481.642 86.4757C476.141 84.3231 471.317 81.2934 467.171 77.3867C463.105 73.48 459.916 68.8956 457.604 63.6335C455.372 58.3714 454.255 52.5911 454.255 46.2926C454.255 39.994 455.372 34.2137 457.604 28.9516C459.916 23.6895 463.145 19.1052 467.291 15.1985C471.437 11.2918 476.3 8.30194 481.881 6.229C487.462 4.07633 493.601 3 500.299 3C507.713 3 514.371 4.23579 520.271 6.70737C526.25 9.17895 531.273 12.7667 535.339 17.4707L522.902 28.9516C519.872 25.7625 516.563 23.4105 512.975 21.8957C509.388 20.3011 505.481 19.5038 501.255 19.5038C497.189 19.5038 493.482 20.1416 490.133 21.4173C486.785 22.6929 483.875 24.5267 481.403 26.9185C479.011 29.3104 477.137 32.1408 475.782 35.4096C474.506 38.6785 473.869 42.3061 473.869 46.2926C473.869 50.1993 474.506 53.787 475.782 57.0559C477.137 60.3248 479.011 63.195 481.403 65.6666C483.875 68.0584 486.745 69.8922 490.014 71.1679C493.362 72.4435 497.03 73.0813 501.016 73.0813C504.843 73.0813 508.55 72.4834 512.138 71.2874C515.806 70.0118 519.354 67.899 522.782 64.949L533.785 78.9414C529.24 82.3697 523.938 85.0007 517.879 86.8345C511.899 88.6683 505.919 89.5851 499.94 89.5851ZM516.085 76.4299V44.977H533.785V78.9414L516.085 76.4299Z" fill="#121212"/>
<path d="M609.186 4.43511H628.56V88.15H609.186V4.43511ZM571.155 88.15H551.781V4.43511H571.155V88.15ZM610.621 53.8269H569.72V37.4427H610.621V53.8269Z" fill="#121212"/>
<path d="M665.707 88.15V20.2214H638.919V4.43511H711.87V20.2214H685.081V88.15H665.707Z" fill="#121212"/>
<path d="M18.8295 86.9541L17.9709 89.8286L17.9881 89.8337L18.0053 89.8387L18.8295 86.9541ZM4 79.8981L1.26508 78.6652L0.287561 80.8335L2.17577 82.2798L4 79.8981ZM10.5776 65.3078L12.3162 62.8629L9.34238 60.7482L7.84268 64.0749L10.5776 65.3078ZM23.2544 71.6462L22.2779 74.4828L22.3056 74.4924L22.3334 74.5014L23.2544 71.6462ZM47.4122 72.9617L48.3014 75.8269L48.3312 75.8177L48.3608 75.8078L47.4122 72.9617ZM52.6742 69.7327L50.3585 67.8256L50.3585 67.8256L52.6742 69.7327ZM51.7175 59.8065L49.8832 62.1804L49.9177 62.2071L49.953 62.2328L51.7175 59.8065ZM44.7811 56.5775L43.9045 59.4466L43.9412 59.4578L43.9782 59.4681L44.7811 56.5775ZM35.2137 54.1857L34.5342 57.1077L34.5732 57.1168L34.6125 57.1248L35.2137 54.1857ZM24.8091 51.3155L23.8804 54.1681L23.8899 54.1712L23.8995 54.1742L24.8091 51.3155ZM15.3613 47.0101L13.797 49.57L13.797 49.57L15.3613 47.0101ZM8.30534 40.0737L5.74549 41.6381L5.76112 41.6637L5.77725 41.6889L8.30534 40.0737ZM9.50127 16.0356L6.99744 14.3831L6.99343 14.3891L6.98945 14.3952L9.50127 16.0356ZM21.2214 6.58778L22.4437 9.32747L22.4532 9.32321L22.4628 9.31888L21.2214 6.58778ZM56.5012 4.91348L55.7736 7.82391L55.7951 7.82928L55.8166 7.83433L56.5012 4.91348ZM70.0152 10.4147L72.7943 11.5445L73.739 9.22065L71.6191 7.87951L70.0152 10.4147ZM64.0356 25.1247L62.5471 27.7294L65.5237 29.4303L66.8147 26.2544L64.0356 25.1247ZM52.3155 20.2214L51.4913 23.1059L51.5187 23.1137L51.5462 23.121L52.3155 20.2214ZM31.6259 19.8626L30.5932 17.0459L30.5932 17.0459L31.6259 19.8626ZM26.4834 23.3308L28.8665 25.1531L28.8914 25.1205L28.9155 25.0872L26.4834 23.3308ZM27.5598 33.3766L25.7254 35.7504L25.76 35.7771L25.7953 35.8028L27.5598 33.3766ZM34.4961 36.486L33.6932 39.3765L33.6932 39.3765L34.4961 36.486ZM43.944 38.8778L43.2644 41.7998L43.2718 41.8015L43.2791 41.8032L43.944 38.8778ZM54.3485 41.6284L53.4804 44.5001L53.4894 44.5028L53.4985 44.5055L54.3485 41.6284ZM63.916 45.8142L65.4803 43.2544L65.4803 43.2544L63.916 45.8142ZM70.8523 52.7506L68.2925 54.3149L68.3081 54.3405L68.3242 54.3657L70.8523 52.7506ZM69.6564 76.5495L72.1447 78.2253L72.1447 78.2253L69.6564 76.5495ZM57.8167 85.9974L56.5753 83.2663L56.5674 83.2698L56.5596 83.2735L57.8167 85.9974ZM86.8413 88.15H83.8413V91.15H86.8413V88.15ZM86.8413 4.43511V1.43511H83.8413V4.43511H86.8413ZM142.452 8.14249L141.208 10.8722L141.224 10.8798L141.241 10.8872L142.452 8.14249ZM155.009 18.5471L152.493 20.1805L152.493 20.1805L155.009 18.5471ZM142.452 61.4808L143.663 64.2256L143.68 64.2182L143.696 64.2106L142.452 61.4808ZM97.6047 65.0686L95.4688 62.962L90.4321 68.0686H97.6047V65.0686ZM106.215 56.3384H109.215V49.0245L104.079 54.2317L106.215 56.3384ZM106.215 88.15V91.15H109.215V88.15H106.215ZM106.215 58.491L104.024 60.54L109.215 66.0918V58.491H106.215ZM97.6047 49.2824V46.2824H90.6923L95.4134 51.3314L97.6047 49.2824ZM97.6047 20.2214L95.4134 18.1724L90.6923 23.2214H97.6047V20.2214ZM106.215 11.0127H109.215V3.41195L104.024 8.96373L106.215 11.0127ZM196.678 86.3561L195.598 89.1551L195.605 89.1577L195.612 89.1602L196.678 86.3561ZM182.088 77.2671L180.009 79.4304L180.02 79.4405L180.03 79.4504L182.088 77.2671ZM172.52 63.5139L169.758 64.6856L169.766 64.7032L169.774 64.7207L172.52 63.5139ZM172.52 29.0712L169.774 27.8644L169.766 27.8819L169.758 27.8996L172.52 29.0712ZM196.797 6.229L195.718 3.42999L195.718 3.42999L196.797 6.229ZM233.154 6.229L232.06 9.02273L232.067 9.02538L232.074 9.028L233.154 6.229ZM247.624 15.318L245.546 17.4814L245.556 17.4914L245.567 17.5014L247.624 15.318ZM257.311 29.0712L254.565 30.278L254.568 30.2858L254.572 30.2935L257.311 29.0712ZM257.311 63.6335L260.058 64.8403L260.061 64.8328L260.065 64.8252L257.311 63.6335ZM247.624 77.3867L249.68 79.5713L249.682 79.57L247.624 77.3867ZM233.154 86.3561L232.074 83.5571L232.067 83.5597L232.06 83.5624L233.154 86.3561ZM225.261 71.1679L224.146 68.3824L224.134 68.3873L224.122 68.3923L225.261 71.1679ZM233.632 65.6666L231.511 63.5453L231.511 63.5453L233.632 65.6666ZM239.133 57.1755L236.362 56.0265L236.35 56.0555L236.339 56.0849L239.133 57.1755ZM239.133 35.4096L236.339 36.5003L236.35 36.5296L236.362 36.5587L239.133 35.4096ZM233.632 26.9185L231.475 29.0036L231.493 29.0219L231.511 29.0399L233.632 26.9185ZM225.38 21.4173L224.266 24.2027L224.266 24.2027L225.38 21.4173ZM204.571 21.4173L203.457 18.6318L203.445 18.6368L203.432 18.6418L204.571 21.4173ZM196.319 26.9185L198.44 29.0399L198.44 29.0399L196.319 26.9185ZM190.698 35.4096L187.927 34.2606L187.915 34.2897L187.904 34.319L190.698 35.4096ZM190.698 57.1755L187.895 58.2435L187.91 58.2843L187.927 58.3246L190.698 57.1755ZM196.2 65.6666L194.043 67.7517L194.06 67.7699L194.078 67.7879L196.2 65.6666ZM204.571 71.1679L203.457 73.9533L203.457 73.9533L204.571 71.1679ZM291.513 88.15H288.513V91.15H291.513V88.15ZM291.513 20.2214H294.513V17.2214H291.513V20.2214ZM264.724 20.2214H261.724V23.2214H264.724V20.2214ZM264.724 4.43511V1.43511H261.724V4.43511H264.724ZM337.676 4.43511H340.676V1.43511H337.676V4.43511ZM337.676 20.2214V23.2214H340.676V20.2214H337.676ZM310.887 20.2214V17.2214H307.887V20.2214H310.887ZM310.887 88.15V91.15H313.887V88.15H310.887ZM348.1 88.15H345.1V91.15H348.1V88.15ZM348.1 4.43511V1.43511H345.1V4.43511H348.1ZM367.474 4.43511H370.474V1.43511H367.474V4.43511ZM367.474 72.3638H364.474V75.3638H367.474V72.3638ZM409.451 72.3638H412.451V69.3638H409.451V72.3638ZM409.451 88.15V91.15H412.451V88.15H409.451ZM420.276 88.15H417.276V91.15H420.276V88.15ZM420.276 4.43511V1.43511H417.276V4.43511H420.276ZM439.65 4.43511H442.65V1.43511H439.65V4.43511ZM439.65 88.15V91.15H442.65V88.15H439.65ZM481.642 86.4757L480.549 89.2695L480.573 89.2789L480.598 89.288L481.642 86.4757ZM467.171 77.3867L465.093 79.55L465.103 79.5601L465.114 79.57L467.171 77.3867ZM457.604 63.6335L454.842 64.8052L454.85 64.8228L454.857 64.8403L457.604 63.6335ZM457.604 28.9516L454.857 27.7448L454.85 27.7623L454.842 27.78L457.604 28.9516ZM467.291 15.1985L469.348 17.3818L469.348 17.3818L467.291 15.1985ZM481.881 6.229L482.926 9.04127L482.943 9.03475L482.961 9.028L481.881 6.229ZM520.271 6.70737L519.111 9.47438L519.118 9.47714L519.125 9.47987L520.271 6.70737ZM535.339 17.4707L537.374 19.6751L539.508 17.7056L537.609 15.5089L535.339 17.4707ZM522.902 28.9516L520.727 31.0179L522.763 33.1619L524.936 31.156L522.902 28.9516ZM512.975 21.8957L511.757 24.6371L511.783 24.6485L511.809 24.6594L512.975 21.8957ZM481.403 26.9185L479.317 24.7627L479.299 24.7798L479.282 24.7972L481.403 26.9185ZM475.782 35.4096L473.011 34.2606L472.999 34.2897L472.987 34.319L475.782 35.4096ZM475.782 57.0559L472.987 58.1465L472.999 58.1759L473.011 58.205L475.782 57.0559ZM481.403 65.6666L479.247 67.7529L479.281 67.7882L479.317 67.8224L481.403 65.6666ZM490.014 71.1679L488.923 73.9626L488.934 73.967L488.946 73.9713L490.014 71.1679ZM512.138 71.2874L513.087 74.1335L513.105 74.1273L513.124 74.1209L512.138 71.2874ZM522.782 64.949L525.14 63.0947L523.202 60.6298L520.825 62.675L522.782 64.949ZM533.785 78.9414L535.591 81.3363L536.785 80.4361V78.9414H533.785ZM517.879 86.8345L517.01 83.9631L516.999 83.9663L517.879 86.8345ZM516.085 76.4299H513.085V79.0343L515.663 79.4002L516.085 76.4299ZM516.085 44.977V41.977H513.085V44.977H516.085ZM533.785 44.977H536.785V41.977H533.785V44.977ZM609.186 4.43511V1.43511H606.186V4.43511H609.186ZM628.56 4.43511H631.56V1.43511H628.56V4.43511ZM628.56 88.15V91.15H631.56V88.15H628.56ZM609.186 88.15H606.186V91.15H609.186V88.15ZM571.155 88.15V91.15H574.155V88.15H571.155ZM551.781 88.15H548.781V91.15H551.781V88.15ZM551.781 4.43511V1.43511H548.781V4.43511H551.781ZM571.155 4.43511H574.155V1.43511H571.155V4.43511ZM610.621 53.8269V56.8269H613.621V53.8269H610.621ZM569.72 53.8269H566.72V56.8269H569.72V53.8269ZM569.72 37.4427V34.4427H566.72V37.4427H569.72ZM610.621 37.4427H613.621V34.4427H610.621V37.4427ZM665.707 88.15H662.707V91.15H665.707V88.15ZM665.707 20.2214H668.707V17.2214H665.707V20.2214ZM638.919 20.2214H635.919V23.2214H638.919V20.2214ZM638.919 4.43511V1.43511H635.919V4.43511H638.919ZM711.87 4.43511H714.87V1.43511H711.87V4.43511ZM711.87 20.2214V23.2214H714.87V20.2214H711.87ZM685.081 20.2214V17.2214H682.081V20.2214H685.081ZM685.081 88.15V91.15H688.081V88.15H685.081ZM38.0839 86.5851C31.6518 86.5851 25.5119 85.7433 19.6537 84.0695L18.0053 89.8387C24.4253 91.6729 31.1217 92.5851 38.0839 92.5851V86.5851ZM19.6881 84.0796C13.7814 82.3153 9.19913 80.1015 5.82423 77.5165L2.17577 82.2798C6.29535 85.4352 11.5994 87.9254 17.9709 89.8286L19.6881 84.0796ZM6.73492 81.1311L13.3125 66.5408L7.84268 64.0749L1.26508 78.6652L6.73492 81.1311ZM8.83903 67.7527C12.6962 70.4956 17.1875 72.7304 22.2779 74.4828L24.231 68.8096C19.5945 67.2135 15.6345 65.2227 12.3162 62.8629L8.83903 67.7527ZM22.3334 74.5014C27.5639 76.1886 32.8574 77.0381 38.2035 77.0381V71.0381C33.5039 71.0381 28.8313 70.293 24.1754 68.7911L22.3334 74.5014ZM38.2035 77.0381C42.1785 77.0381 45.5844 76.6701 48.3014 75.8269L46.523 70.0966C44.6157 70.6885 41.8825 71.0381 38.2035 71.0381V77.0381ZM48.3608 75.8078C51.0665 74.9059 53.3916 73.5809 54.99 71.6399L50.3585 67.8256C49.7245 68.5954 48.5416 69.423 46.4635 70.1157L48.3608 75.8078ZM54.99 71.6399C56.5481 69.748 57.3485 67.5193 57.3485 65.0686H51.3485C51.3485 66.126 51.0328 67.0068 50.3585 67.8256L54.99 71.6399ZM57.3485 65.0686C57.3485 61.9097 56.0388 59.2398 53.482 57.3803L49.953 62.2328C50.9043 62.9246 51.3485 63.7628 51.3485 65.0686H57.3485ZM53.5518 57.4327C51.4048 55.7736 48.7072 54.5545 45.5841 53.687L43.9782 59.4681C46.5955 60.1951 48.5221 61.1287 49.8832 62.1804L53.5518 57.4327ZM45.6578 53.7085C42.6816 52.7991 39.3987 51.9796 35.8149 51.2465L34.6125 57.1248C38.0448 57.8269 41.1402 58.602 43.9045 59.4466L45.6578 53.7085ZM35.8932 51.2637C32.5459 50.4852 29.1544 49.5499 25.7187 48.4567L23.8995 54.1742C27.48 55.3135 31.0249 56.2916 34.5342 57.1077L35.8932 51.2637ZM25.7379 48.4628C22.5163 47.4139 19.5824 46.0738 16.9257 44.4503L13.797 49.57C16.8807 51.4545 20.2454 52.9846 23.8804 54.1681L25.7379 48.4628ZM16.9257 44.4503C14.4493 42.9369 12.425 40.9498 10.8334 38.4586L5.77725 41.6889C7.85314 44.9381 10.5329 47.5753 13.797 49.57L16.9257 44.4503ZM10.8652 38.5094C9.47866 36.2405 8.6743 33.1599 8.6743 29.0712H2.6743C2.6743 33.9122 3.62396 38.1665 5.74549 41.6381L10.8652 38.5094ZM8.6743 29.0712C8.6743 24.8545 9.78873 21.082 12.0131 17.676L6.98945 14.3952C4.11118 18.8026 2.6743 23.7205 2.6743 29.0712H8.6743ZM12.0051 17.6881C14.2662 14.2622 17.6838 11.4511 22.4437 9.32747L19.999 3.84808C14.3942 6.34872 9.99842 9.83613 6.99744 14.3831L12.0051 17.6881ZM22.4628 9.31888C27.22 7.15652 33.3418 6 40.9542 6V0C32.7803 0 25.7469 1.23533 19.9799 3.85668L22.4628 9.31888ZM40.9542 6C45.9711 6 50.9091 6.60777 55.7736 7.82391L57.2288 2.00305C51.8881 0.667881 46.4614 0 40.9542 0V6ZM55.8166 7.83433C60.6364 8.96397 64.8224 10.6795 68.4113 12.95L71.6191 7.87951C67.3946 5.20683 62.5712 3.25484 57.1858 1.99263L55.8166 7.83433ZM67.236 9.28501L61.2564 23.9949L66.8147 26.2544L72.7943 11.5445L67.236 9.28501ZM65.524 22.5199C61.4166 20.1728 57.2695 18.4319 53.0848 17.3217L51.5462 23.121C55.1748 24.0837 58.8412 25.6117 62.5471 27.7294L65.524 22.5199ZM53.1396 17.3368C48.9873 16.1504 44.883 15.5471 40.8346 15.5471V21.5471C44.2806 21.5471 47.8302 22.0599 51.4913 23.1059L53.1396 17.3368ZM40.8346 15.5471C36.8855 15.5471 33.4325 16.0048 30.5932 17.0459L32.6587 22.6792C34.603 21.9663 37.2892 21.5471 40.8346 21.5471V15.5471ZM30.5932 17.0459C27.875 18.0426 25.5607 19.4844 24.0514 21.5743L28.9155 25.0872C29.4791 24.3069 30.5931 23.4366 32.6587 22.6792L30.5932 17.0459ZM24.1004 21.5084C22.633 23.4272 21.9287 25.6744 21.9287 28.1145H27.9287C27.9287 26.887 28.2609 25.9451 28.8665 25.1531L24.1004 21.5084ZM21.9287 28.1145C21.9287 31.2281 23.2618 33.8467 25.7254 35.7504L29.3941 31.0027C28.3497 30.1957 27.9287 29.3062 27.9287 28.1145H21.9287ZM25.7953 35.8028C27.9256 37.3521 30.5975 38.5166 33.6932 39.3765L35.2991 33.5954C32.6544 32.8608 30.702 31.9523 29.3243 30.9503L25.7953 35.8028ZM33.6932 39.3765C36.6109 40.187 39.8019 40.9946 43.2644 41.7998L44.6235 35.9558C41.2294 35.1665 38.1219 34.3795 35.2991 33.5954L33.6932 39.3765ZM43.2791 41.8032C46.7191 42.585 50.1195 43.484 53.4804 44.5001L55.2167 38.7568C51.721 37.7 48.185 36.7652 44.6088 35.9524L43.2791 41.8032ZM53.4985 44.5055C56.7774 45.4743 59.7232 46.7678 62.3516 48.374L65.4803 43.2544C62.3683 41.3526 58.9358 39.8556 55.1986 38.7514L53.4985 44.5055ZM62.3516 48.374C64.8157 49.8799 66.7866 51.8508 68.2925 54.3149L73.4122 51.1862C71.41 47.9099 68.7566 45.2565 65.4803 43.2544L62.3516 48.374ZM68.3242 54.3657C69.7727 56.6329 70.603 59.6583 70.603 63.6335H76.603C76.603 58.8386 75.5995 54.6087 73.3804 51.1354L68.3242 54.3657ZM70.603 63.6335C70.603 67.7396 69.4661 71.4616 67.1681 74.8737L72.1447 78.2253C75.1088 73.8241 76.603 68.9354 76.603 63.6335H70.603ZM67.1681 74.8737C64.9107 78.2257 61.4469 81.0519 56.5753 83.2663L59.0581 88.7285C64.7107 86.1591 69.1401 82.6868 72.1447 78.2253L67.1681 74.8737ZM56.5596 83.2735C51.8953 85.4262 45.7838 86.5851 38.0839 86.5851V92.5851C46.3297 92.5851 53.3735 91.3522 59.0739 88.7212L56.5596 83.2735ZM89.8413 88.15V4.43511H83.8413V88.15H89.8413ZM86.8413 7.43511H123.078V1.43511H86.8413V7.43511ZM123.078 7.43511C130.25 7.43511 136.264 8.61843 141.208 10.8722L143.696 5.41276C137.797 2.72338 130.894 1.43511 123.078 1.43511V7.43511ZM141.241 10.8872C146.181 13.0665 149.89 16.1712 152.493 20.1805L157.526 16.9136C154.228 11.8339 149.566 8.00218 143.663 5.39773L141.241 10.8872ZM152.493 20.1805C155.078 24.1638 156.434 28.9966 156.434 34.8117H162.434C162.434 28.0296 160.84 22.0194 157.526 16.9136L152.493 20.1805ZM156.434 34.8117C156.434 40.5386 155.082 45.3339 152.493 49.3233L157.526 52.5901C160.836 47.4904 162.434 41.5223 162.434 34.8117H156.434ZM152.493 49.3233C149.885 53.3415 146.163 56.492 141.208 58.7511L143.696 64.2106C149.584 61.5266 154.234 57.6609 157.526 52.5901L152.493 49.3233ZM141.241 58.7361C136.288 60.9214 130.262 62.0686 123.078 62.0686V68.0686C130.883 68.0686 137.773 66.824 143.663 64.2256L141.241 58.7361ZM123.078 62.0686H97.6047V68.0686H123.078V62.0686ZM99.7406 67.1753L108.351 58.445L104.079 54.2317L95.4688 62.962L99.7406 67.1753ZM103.215 56.3384V88.15H109.215V56.3384H103.215ZM106.215 85.15H86.8413V91.15H106.215V85.15ZM108.407 56.442L99.7959 47.2334L95.4134 51.3314L104.024 60.54L108.407 56.442ZM97.6047 52.2824H122.002V46.2824H97.6047V52.2824ZM122.002 52.2824C128.333 52.2824 133.638 50.9426 137.358 47.7245L133.434 43.1863C131.254 45.0709 127.629 46.2824 122.002 46.2824V52.2824ZM137.358 47.7245C141.079 44.5068 142.821 40.0681 142.821 34.8117H136.821C136.821 38.6443 135.613 41.3014 133.434 43.1863L137.358 47.7245ZM142.821 34.8117C142.821 29.4942 141.091 25.0073 137.358 21.7792L133.434 26.3174C135.601 28.1919 136.821 30.8806 136.821 34.8117H142.821ZM137.358 21.7792C133.638 18.5612 128.333 17.2214 122.002 17.2214V23.2214C127.629 23.2214 131.254 24.4328 133.434 26.3174L137.358 21.7792ZM122.002 17.2214H97.6047V23.2214H122.002V17.2214ZM99.7959 22.2703L108.407 13.0617L104.024 8.96373L95.4134 18.1724L99.7959 22.2703ZM103.215 11.0127V58.491H109.215V11.0127H103.215ZM215.095 86.5851C208.808 86.5851 203.034 85.5637 197.744 83.552L195.612 89.1602C201.643 91.4539 208.147 92.5851 215.095 92.5851V86.5851ZM197.758 83.5571C192.521 81.5373 187.994 78.7105 184.145 75.0837L180.03 79.4504C184.473 83.637 189.673 86.8697 195.598 89.1551L197.758 83.5571ZM184.166 75.1038C180.389 71.4744 177.424 67.2168 175.267 62.3071L169.774 64.7207C172.241 70.3352 175.654 75.2463 180.009 79.4304L184.166 75.1038ZM175.282 62.3423C173.22 57.4823 172.172 52.1445 172.172 46.2926H166.172C166.172 52.8783 167.355 59.0214 169.758 64.6856L175.282 62.3423ZM172.172 46.2926C172.172 40.4406 173.22 35.1028 175.282 30.2429L169.758 27.8996C167.355 33.5638 166.172 39.7069 166.172 46.2926H172.172ZM175.267 30.278C177.418 25.381 180.414 21.1296 184.265 17.5014L180.15 13.1347C175.708 17.3199 172.246 22.2373 169.774 27.8644L175.267 30.278ZM184.265 17.5014C188.113 13.8746 192.64 11.0479 197.877 9.028L195.718 3.42999C189.793 5.71546 184.593 8.94812 180.15 13.1347L184.265 17.5014ZM197.877 9.028C203.083 7.02003 208.773 6 214.976 6V0C208.103 0 201.674 1.13264 195.718 3.42999L197.877 9.028ZM214.976 6C221.264 6 226.947 7.02179 232.06 9.02273L234.247 3.43527C228.358 1.13088 221.922 0 214.976 0V6ZM232.074 9.028C237.306 11.0461 241.784 13.8674 245.546 17.4814L249.703 13.1547C245.332 8.95534 240.163 5.71725 234.233 3.42999L232.074 9.028ZM245.567 17.5014C249.417 21.1296 252.413 25.381 254.565 30.278L260.058 27.8644C257.585 22.2373 254.123 17.3199 249.682 13.1347L245.567 17.5014ZM254.572 30.2935C256.694 35.0509 257.78 40.3687 257.78 46.2926H263.78C263.78 39.6194 262.553 33.4562 260.051 27.8489L254.572 30.2935ZM257.78 46.2926C257.78 52.1299 256.697 57.5015 254.558 62.4418L260.065 64.8252C262.55 59.0819 263.78 52.8929 263.78 46.2926H257.78ZM254.565 62.4267C252.413 67.3237 249.417 71.5751 245.567 75.2033L249.682 79.57C254.123 75.3848 257.585 70.4675 260.058 64.8403L254.565 62.4267ZM245.568 75.2021C241.805 78.7445 237.319 81.5341 232.074 83.5571L234.233 89.1551C240.15 86.8728 245.312 83.6828 249.68 79.5713L245.568 75.2021ZM232.06 83.5624C226.943 85.5649 221.299 86.5851 215.095 86.5851V92.5851C221.967 92.5851 228.362 91.4527 234.247 89.1499L232.06 83.5624ZM214.976 76.0813C219.069 76.0813 222.889 75.3834 226.399 73.9434L224.122 68.3923C221.413 69.5036 218.377 70.0813 214.976 70.0813V76.0813ZM226.375 73.9533C229.935 72.5291 233.07 70.4716 235.753 67.7879L231.511 63.5453C229.411 65.6453 226.964 67.2553 224.146 68.3824L226.375 73.9533ZM235.753 67.7879C238.45 65.0917 240.507 61.9067 241.928 58.2661L236.339 56.0849C235.208 58.9821 233.598 61.4577 231.511 63.5453L235.753 67.7879ZM241.905 58.3246C243.429 54.6481 244.166 50.6236 244.166 46.2926H238.166C238.166 49.9344 237.548 53.1651 236.362 56.0265L241.905 58.3246ZM244.166 46.2926C244.166 41.9616 243.429 37.937 241.905 34.2606L236.362 36.5587C237.548 39.42 238.166 42.6507 238.166 46.2926H244.166ZM241.928 34.319C240.507 30.6785 238.45 27.4934 235.753 24.7972L231.511 29.0399C233.598 31.1274 235.208 33.603 236.339 36.5003L241.928 34.319ZM235.789 24.8335C233.173 22.1272 230.063 20.0595 226.494 18.6318L224.266 24.2027C227.075 25.3264 229.467 26.9262 231.475 29.0036L235.789 24.8335ZM226.494 18.6318C222.92 17.2021 219.07 16.5038 214.976 16.5038V22.5038C218.376 22.5038 221.462 23.0812 224.266 24.2027L226.494 18.6318ZM214.976 16.5038C210.882 16.5038 207.031 17.2021 203.457 18.6318L205.685 24.2027C208.489 23.0812 211.575 22.5038 214.976 22.5038V16.5038ZM203.432 18.6418C199.953 20.0693 196.869 22.1262 194.198 24.7972L198.44 29.0399C200.553 26.9271 202.97 25.3166 205.71 24.1928L203.432 18.6418ZM194.198 24.7972C191.515 27.4802 189.426 30.6452 187.927 34.2606L193.469 36.5587C194.681 33.6363 196.34 31.1406 198.44 29.0399L194.198 24.7972ZM187.904 34.319C186.475 37.9795 185.785 41.9833 185.785 46.2926H191.785C191.785 42.6289 192.37 39.3775 193.493 36.5003L187.904 34.319ZM185.785 46.2926C185.785 50.5312 186.478 54.5243 187.895 58.2435L193.502 56.1075C192.367 53.1295 191.785 49.8673 191.785 46.2926H185.785ZM187.927 58.3246C189.417 61.9188 191.452 65.0722 194.043 67.7517L198.356 63.5815C196.322 61.4773 194.69 58.9699 193.469 56.0265L187.927 58.3246ZM194.078 67.7879C196.762 70.4716 199.896 72.5291 203.457 73.9533L205.685 68.3824C202.867 67.2553 200.421 65.6453 198.321 63.5453L194.078 67.7879ZM203.457 73.9533C207.031 75.3831 210.882 76.0813 214.976 76.0813V70.0813C211.575 70.0813 208.489 69.5039 205.685 68.3824L203.457 73.9533ZM294.513 88.15V20.2214H288.513V88.15H294.513ZM291.513 17.2214H264.724V23.2214H291.513V17.2214ZM267.724 20.2214V4.43511H261.724V20.2214H267.724ZM264.724 7.43511H337.676V1.43511H264.724V7.43511ZM334.676 4.43511V20.2214H340.676V4.43511H334.676ZM337.676 17.2214H310.887V23.2214H337.676V17.2214ZM307.887 20.2214V88.15H313.887V20.2214H307.887ZM310.887 85.15H291.513V91.15H310.887V85.15ZM351.1 88.15V4.43511H345.1V88.15H351.1ZM348.1 7.43511H367.474V1.43511H348.1V7.43511ZM364.474 4.43511V72.3638H370.474V4.43511H364.474ZM367.474 75.3638H409.451V69.3638H367.474V75.3638ZM406.451 72.3638V88.15H412.451V72.3638H406.451ZM409.451 85.15H348.1V91.15H409.451V85.15ZM423.276 88.15V4.43511H417.276V88.15H423.276ZM420.276 7.43511H439.65V1.43511H420.276V7.43511ZM436.65 4.43511V88.15H442.65V4.43511H436.65ZM439.65 85.15H420.276V91.15H439.65V85.15ZM499.94 86.5851C493.639 86.5851 487.898 85.5992 482.687 83.6634L480.598 89.288C486.548 91.4982 493.005 92.5851 499.94 92.5851V86.5851ZM482.735 83.682C477.578 81.6639 473.085 78.837 469.229 75.2033L465.114 79.57C469.55 83.7498 474.704 86.9822 480.549 89.2695L482.735 83.682ZM469.25 75.2234C465.472 71.594 462.508 67.3364 460.351 62.4267L454.857 64.8403C457.324 70.4548 460.738 75.3659 465.093 79.55L469.25 75.2234ZM460.366 62.4619C458.306 57.6065 457.255 52.2298 457.255 46.2926H451.255C451.255 52.9525 452.437 59.1363 454.842 64.8052L460.366 62.4619ZM457.255 46.2926C457.255 40.3554 458.306 34.9786 460.366 30.1233L454.842 27.78C452.437 33.4488 451.255 39.6326 451.255 46.2926H457.255ZM460.351 30.1584C462.502 25.2614 465.498 21.01 469.348 17.3818L465.234 13.0151C460.792 17.2003 457.33 22.1177 454.857 27.7448L460.351 30.1584ZM469.348 17.3818C473.189 13.7628 477.704 10.9809 482.926 9.04127L480.837 3.41672C474.897 5.623 469.685 8.82073 465.234 13.0151L469.348 17.3818ZM482.961 9.028C488.159 7.02314 493.927 6 500.299 6V0C493.276 0 486.766 1.12952 480.802 3.42999L482.961 9.028ZM500.299 6C507.378 6 513.632 7.17908 519.111 9.47438L521.43 3.94036C515.109 1.2925 508.049 0 500.299 0V6ZM519.125 9.47987C524.69 11.7801 529.322 15.0973 533.07 19.4326L537.609 15.5089C533.224 10.4361 527.811 6.5778 521.417 3.93487L519.125 9.47987ZM533.304 15.2663L520.867 26.7472L524.936 31.156L537.374 19.6751L533.304 15.2663ZM525.077 26.8854C521.799 23.4356 518.157 20.8269 514.142 19.1319L511.809 24.6594C514.97 25.994 517.945 28.0894 520.727 31.0179L525.077 26.8854ZM514.194 19.1542C510.194 17.3765 505.868 16.5038 501.255 16.5038V22.5038C505.094 22.5038 508.581 23.2257 511.757 24.6371L514.194 19.1542ZM501.255 16.5038C496.873 16.5038 492.798 17.1919 489.065 18.6138L491.201 24.2207C494.166 23.0913 497.505 22.5038 501.255 22.5038V16.5038ZM489.065 18.6138C485.353 20.028 482.093 22.0764 479.317 24.7627L483.489 29.0744C485.657 26.9769 488.216 25.3579 491.201 24.2207L489.065 18.6138ZM479.282 24.7972C476.599 27.4802 474.51 30.6452 473.011 34.2606L478.553 36.5587C479.765 33.6363 481.424 31.1406 483.524 29.0399L479.282 24.7972ZM472.987 34.319C471.559 37.9795 470.869 41.9833 470.869 46.2926H476.869C476.869 42.6289 477.454 39.3775 478.577 36.5003L472.987 34.319ZM470.869 46.2926C470.869 50.5302 471.562 54.4928 472.987 58.1465L478.577 55.9653C477.451 53.0813 476.869 49.8683 476.869 46.2926H470.869ZM473.011 58.205C474.506 61.8119 476.585 65.0025 479.247 67.7529L483.559 63.5803C481.437 61.3876 479.769 58.8377 478.553 55.9069L473.011 58.205ZM479.317 67.8224C482.08 70.4969 485.291 72.5452 488.923 73.9626L491.104 68.3731C488.199 67.2392 485.669 65.62 483.489 63.5108L479.317 67.8224ZM488.946 73.9713C492.672 75.3907 496.706 76.0813 501.016 76.0813V70.0813C497.354 70.0813 494.053 69.4963 491.082 68.3644L488.946 73.9713ZM501.016 76.0813C505.162 76.0813 509.19 75.4326 513.087 74.1335L511.19 68.4414C507.911 69.5341 504.525 70.0813 501.016 70.0813V76.0813ZM513.124 74.1209C517.201 72.7028 521.071 70.379 524.739 67.2231L520.825 62.675C517.636 65.419 514.411 67.3207 511.153 68.454L513.124 74.1209ZM520.424 66.8034L531.426 80.7957L536.143 77.087L525.14 63.0947L520.424 66.8034ZM531.978 76.5464C527.745 79.7395 522.769 82.2203 517.01 83.9631L518.748 89.7059C525.108 87.7812 530.735 85 535.591 81.3363L531.978 76.5464ZM516.999 83.9663C511.291 85.7167 505.608 86.5851 499.94 86.5851V92.5851C506.231 92.5851 512.507 91.6198 518.758 89.7027L516.999 83.9663ZM519.085 76.4299V44.977H513.085V76.4299H519.085ZM516.085 47.977H533.785V41.977H516.085V47.977ZM530.785 44.977V78.9414H536.785V44.977H530.785ZM534.206 75.9711L516.506 73.4597L515.663 79.4002L533.363 81.9116L534.206 75.9711ZM609.186 7.43511H628.56V1.43511H609.186V7.43511ZM625.56 4.43511V88.15H631.56V4.43511H625.56ZM628.56 85.15H609.186V91.15H628.56V85.15ZM612.186 88.15V4.43511H606.186V88.15H612.186ZM571.155 85.15H551.781V91.15H571.155V85.15ZM554.781 88.15V4.43511H548.781V88.15H554.781ZM551.781 7.43511H571.155V1.43511H551.781V7.43511ZM568.155 4.43511V88.15H574.155V4.43511H568.155ZM610.621 50.8269H569.72V56.8269H610.621V50.8269ZM572.72 53.8269V37.4427H566.72V53.8269H572.72ZM569.72 40.4427H610.621V34.4427H569.72V40.4427ZM607.621 37.4427V53.8269H613.621V37.4427H607.621ZM668.707 88.15V20.2214H662.707V88.15H668.707ZM665.707 17.2214H638.919V23.2214H665.707V17.2214ZM641.919 20.2214V4.43511H635.919V20.2214H641.919ZM638.919 7.43511H711.87V1.43511H638.919V7.43511ZM708.87 4.43511V20.2214H714.87V4.43511H708.87ZM711.87 17.2214H685.081V23.2214H711.87V17.2214ZM682.081 20.2214V88.15H688.081V20.2214H682.081ZM685.081 85.15H665.707V91.15H685.081V85.15Z" fill="#480075" mask="url(#path-2-outside-1_381_2)"/>
<rect x="56.7695" y="43.1318" width="1017.33" height="528.308" rx="24.0505" fill="#480075"/>
<path fill-rule="evenodd" clip-rule="evenodd" d="M56.7695 547.39V86.4567C57.1248 86.3088 57.474 86.1557 57.8171 85.9974C63.0792 83.6055 67.0258 80.4563 69.6568 76.5496C72.2878 72.6429 73.6034 68.3375 73.6034 63.6335C73.6034 59.2485 72.6865 55.6208 70.8527 52.7506C69.0987 49.8804 66.7866 47.5683 63.9164 45.8142C62.257 44.8002 60.4911 43.9061 58.6186 43.1318H86.8417V88.1501H106.216V65.0687H123.078C130.573 65.0687 137.031 63.8727 142.452 61.4809C147.874 59.0093 152.06 55.5012 155.01 50.9567C156.554 48.5778 157.694 45.9695 158.43 43.1318H169.271C169.205 44.1713 169.172 45.2249 169.172 46.2926C169.172 52.5114 170.288 58.2519 172.521 63.514C174.833 68.776 178.022 73.3604 182.088 77.2671C186.234 81.1738 191.097 84.2035 196.678 86.3562C202.339 88.5088 208.478 89.5852 215.096 89.5852C221.633 89.5852 227.653 88.5088 233.154 86.3562C238.735 84.2035 243.559 81.2137 247.625 77.3867C251.771 73.48 255 68.8956 257.312 63.6335C259.624 58.2917 260.78 52.5114 260.78 46.2926C260.78 45.2229 260.747 44.1693 260.68 43.1318H291.513V88.1501H310.887V43.1318H348.1V88.1501H409.452V72.3638H367.474V43.1318H420.277V88.1501H439.651V43.1318H454.352C454.288 44.1705 454.256 45.2241 454.256 46.2926C454.256 52.5911 455.372 58.3715 457.604 63.6335C459.917 68.8956 463.106 73.48 467.172 77.3867C471.318 81.2934 476.141 84.3231 481.643 86.4758C487.224 88.5487 493.323 89.5852 499.94 89.5852C505.92 89.5852 511.9 88.6683 517.879 86.8345C523.939 85.0008 529.24 82.3697 533.785 78.9414V44.9771H516.085V69.5674C514.785 70.2511 513.47 70.8244 512.139 71.2875C508.551 72.4834 504.844 73.0814 501.017 73.0814C497.03 73.0814 493.363 72.4435 490.014 71.1679C486.745 69.8922 483.875 68.0585 481.403 65.6666C479.012 63.195 477.138 60.3248 475.783 57.0559C474.507 53.7871 473.869 50.1993 473.869 46.2926C473.869 45.2127 473.916 44.1591 474.009 43.1318H551.782V88.1501H571.156V53.8269H609.186V88.1501H628.56V43.1318H665.708V88.1501H685.082V43.1318H1050.05C1063.34 43.1318 1074.1 53.8996 1074.1 67.1823V530.338H1065.99V571.44H1043.88V564.064H1005.01V545.885H1049.02V530.338H985.759V571.44H967.501V568.01H928.753V545.885H972.643V530.338H909.379V571.44H891.12V568.01H852.372V545.885H896.263V530.338H832.998V571.44H818.432C818.343 565.437 817.189 559.949 814.969 554.975C812.657 549.712 809.428 545.128 805.282 541.221C801.216 537.315 796.393 534.285 790.812 532.132C785.31 529.98 779.251 528.903 772.634 528.903C766.096 528.903 760.036 529.98 754.456 532.132C748.875 534.285 744.011 537.315 739.865 541.221C735.719 545.128 732.49 549.712 730.178 554.975C728.036 560.023 726.922 565.511 726.835 571.44H80.82C67.5373 571.44 56.7695 560.672 56.7695 547.39ZM798.816 571.44H746.451C746.526 567.75 747.162 564.374 748.356 561.313C749.712 558.044 751.585 555.214 753.977 552.822C756.369 550.43 759.12 548.596 762.229 547.321C765.418 546.045 768.886 545.407 772.634 545.407C776.381 545.407 779.849 546.045 783.038 547.321C786.227 548.596 788.978 550.43 791.29 552.822C793.682 555.214 795.516 558.044 796.791 561.313C798.061 564.374 798.735 567.75 798.816 571.44ZM106.216 49.2824V43.1318H137.49C136.903 43.9813 136.205 44.7558 135.396 45.4554C132.446 48.0068 127.982 49.2824 122.002 49.2824H106.216ZM188.785 46.2926C188.785 45.2127 188.832 44.1591 188.926 43.1318H241.018C241.117 44.1591 241.167 45.2127 241.167 46.2926C241.167 50.279 240.489 53.9067 239.134 57.1755C237.858 60.4444 236.024 63.2748 233.632 65.6666C231.241 68.0585 228.45 69.8922 225.261 71.1679C222.152 72.4435 218.723 73.0814 214.976 73.0814C211.229 73.0814 207.761 72.4435 204.571 71.1679C201.382 69.8922 198.592 68.0585 196.2 65.6666C193.888 63.2748 192.054 60.4444 190.699 57.1755C189.423 53.8269 188.785 50.1993 188.785 46.2926Z" fill="#090909"/>
<g clip-path="url(#clip0_381_2)">
<path d="M313.716 380.741C356.959 368.382 387.955 422.071 355.634 453.344C331.27 476.916 342.299 518.083 375.187 526.315C418.814 537.232 418.814 599.231 375.187 610.147C342.299 618.38 331.27 659.552 355.634 683.124C387.955 714.391 356.959 768.081 313.716 755.727C281.119 746.411 250.981 776.548 260.297 809.145C272.651 852.388 218.962 883.385 187.694 851.064C164.122 826.699 122.95 837.729 114.718 870.617C103.801 914.244 41.8025 914.244 30.8856 870.617C22.6533 837.729 -18.5136 826.699 -42.0858 851.064C-73.3534 883.385 -127.048 852.388 -114.689 809.145C-105.378 776.548 -135.515 746.411 -168.112 755.727C-211.35 768.081 -242.347 714.391 -210.026 683.124C-185.661 659.552 -196.691 618.38 -229.579 610.147C-273.205 599.231 -273.205 537.232 -229.579 526.315C-196.691 518.083 -185.661 476.916 -210.026 453.344C-242.347 422.076 -211.35 368.382 -168.112 380.741C-135.515 390.052 -105.378 359.914 -114.689 327.317C-127.048 284.079 -73.3585 253.083 -42.0858 285.404C-18.5136 309.768 22.6533 298.739 30.8856 265.851C41.8025 222.224 103.801 222.224 114.718 265.851C122.95 298.739 164.122 309.768 187.694 285.404C218.962 253.083 272.651 284.079 260.297 327.317C250.981 359.914 281.119 390.057 313.716 380.741V380.741Z" fill="#0D0D0D"/>
</g>
<g clip-path="url(#clip1_381_2)">
<path d="M817.159 230.625C773.916 242.983 742.92 189.294 775.241 158.021C799.605 134.449 788.576 93.2823 755.688 85.0499C712.061 74.1331 712.061 12.1347 755.688 1.2179C788.576 -7.01446 799.605 -48.1865 775.241 -71.7586C742.92 -103.026 773.916 -156.716 817.159 -144.362C849.756 -135.046 879.894 -165.183 870.578 -197.78C858.224 -241.023 911.913 -272.02 943.181 -239.699C966.753 -215.334 1007.92 -226.363 1016.16 -259.252C1027.07 -302.878 1089.07 -302.878 1099.99 -259.252C1108.22 -226.363 1149.39 -215.334 1172.96 -239.699C1204.23 -272.02 1257.92 -241.023 1245.56 -197.78C1236.25 -165.183 1266.39 -135.046 1298.99 -144.362C1342.23 -156.716 1373.22 -103.026 1340.9 -71.7586C1316.54 -48.1865 1327.57 -7.01446 1360.45 1.2179C1404.08 12.1347 1404.08 74.1331 1360.45 85.0499C1327.57 93.2823 1316.54 134.449 1340.9 158.021C1373.22 189.289 1342.23 242.983 1298.99 230.625C1266.39 221.313 1236.25 251.451 1245.56 284.048C1257.92 327.286 1204.23 358.282 1172.96 325.961C1149.39 301.597 1108.22 312.626 1099.99 345.515C1089.07 389.141 1027.07 389.141 1016.16 345.515C1007.92 312.626 966.753 301.597 943.181 325.961C911.913 358.282 858.224 327.286 870.578 284.048C879.894 251.451 849.756 221.308 817.159 230.625V230.625Z" fill="#0D0D0D"/>
</g>
<defs>
<clipPath id="clip0_381_2">
<path d="M56.7695 45.5371H640.394V568.234H80.82C67.5373 568.234 56.7695 557.466 56.7695 544.183V45.5371Z" fill="white"/>
</clipPath>
<clipPath id="clip1_381_2">
<path d="M1074.1 565.828L490.479 565.828L490.479 43.1315L1050.05 43.1315C1063.34 43.1315 1074.1 53.8993 1074.1 67.182V565.828Z" fill="white"/>
</clipPath>
</defs>
</svg>
