<svg width="13" height="13" viewBox="0 0 13 13" fill="none" xmlns="http://www.w3.org/2000/svg">
<path d="M2.25798 13C1.62708 13 1.09313 12.7786 0.656143 12.3359C0.218714 11.8931 0 11.3619 0 10.742V5.08046C0 4.72627 0.0803577 4.38868 0.241073 4.06769C0.401345 3.7467 0.625373 3.48106 0.913155 3.27075L4.66539 0.448276C4.86462 0.304385 5.08046 0.193699 5.3129 0.11622C5.54534 0.0387399 5.78331 0 6.02682 0C6.27033 0 6.5083 0.0387399 6.74074 0.11622C6.97318 0.193699 7.18902 0.304385 7.38825 0.448276L11.1405 3.27075C11.4393 3.48106 11.6662 3.7467 11.8212 4.06769C11.9762 4.38868 12.0536 4.72627 12.0536 5.08046V10.742C12.0536 11.3619 11.8351 11.8931 11.3982 12.3359C10.9607 12.7786 10.4266 13 9.79566 13H7.55428V7.48787H4.49936V13H2.25798Z" fill="#B0B0B0"/>
</svg>
