<svg width="185" height="91" viewBox="0 0 185 91" fill="none" xmlns="http://www.w3.org/2000/svg">
<path d="M23.9864 29.445L4 46.6335L6.45447 46.2827L8.20766 45.7565L9.25957 44.8796L11.0128 44.178L11.5387 43.4764L13.1166 43.1256L13.6426 42.4241H14.5191L15.0451 40.6702H16.7983L18.2008 39.7932L18.5515 39.0916L22.0579 38.39V39.0916L21.3566 39.7932V41.8979L19.2528 44.178C18.8791 46.3205 19.5247 46.4364 22.0579 44.8796L23.4604 44.178L25.9149 42.4241L27.4928 40.6702L29.4213 41.0209L29.246 39.7932H33.6289V40.6702L36.2587 41.5471L38.3625 43.1256H39.5898L39.9404 44.0026H41.1677L52.7387 54L47.6545 44.7042L46.2519 43.1256V41.5471L45.0247 41.1963L44.4987 39.0916H43.7974L43.6221 37.6885L42.7455 37.1623L42.9208 35.0576H48.5311V34.5314L49.7583 34.1806L50.1089 32.9529H50.8102V29.9712L53.0894 27.5157H58.5243L59.2255 28.2173L61.68 29.6204L64.8357 31.5497L67.1149 33.6544L70.7966 35.7592L73.2511 38.0393L75.8808 39.267L78.16 41.7225L80.2638 42.9503L84.8221 45.9319C86.4112 46.5329 86.8269 46.3086 86.4 44.5288L84.6468 38.0393L77.8094 28.2173L76.7574 25.9372V23.6571H77.8094L78.686 20.8508L84.4715 20.6754L84.8221 19.9738L86.7506 19.623L87.1013 18.3953L90.0817 16.8168H91.3089L91.4842 15.7644L94.64 16.1152L97.7957 19.9738H99.023L103.055 24.534H104.283L106.386 26.8141V27.8665L97.0945 36.6361L96.7438 38.0393L96.0425 38.2147L96.3932 41.7225L99.1983 41.8979L100.951 42.2487L101.127 40.8455L106.386 40.6702L108.49 39.267V35.7592L111.295 32.7775H114.626L114.802 34.0052L126.548 44.0026L119.535 35.233L132.334 45.4058H142.327C143.667 45.458 144.037 45.2129 143.379 43.8272L136.541 33.6544L137.243 26.1126L143.028 25.7618L144.606 25.2356V24.3586L146.184 24.7094L146.359 23.6571L149.34 21.9031L152.495 22.0785L178.267 45.2304C179.965 45.557 180.231 45.0114 179.845 43.1256L151.619 6.29322C149.861 4.62609 148.866 4.44082 147.06 6.46861L128.301 25.9372C126.805 27.4128 126.78 28.069 127.425 29.0942L130.756 32.7775L135.84 41.0209L129.879 34.0052L128.652 33.6544L119.185 23.3063C115.865 19.7882 113.936 20.1975 110.419 23.6571L108.315 21.2016L107.789 20.1492L107.088 19.623L105.334 17.1675L104.458 16.6414L104.283 15.2382L93.0621 1.03144C92.0041 -0.366102 91.4343 -0.200801 90.4323 0.680652L83.0689 7.69636V8.9241L76.9328 14.7121V15.7644L72.3745 19.7984H71.8485L69.5694 22.4293L72.1991 25.2356L72.3745 27.5157L78.16 35.7592L71.8485 29.6204L71.6732 28.3927L69.92 28.2173L62.206 20.1492L62.0306 19.0969L61.154 19.2723L59.4008 17.5183C57.5569 15.6976 56.6957 15.6687 55.3685 16.8168L51.3362 21.5524L50.1089 21.377L39.5898 32.4267V38.0393L41.8689 41.5471L38.7132 38.39H36.96L31.5251 32.7775V31.5497H30.2979L29.5966 30.1466C27.4693 27.5908 26.2248 28.0132 23.9864 29.445Z" fill="#E8E8E8"/>
<path d="M8.56586 80.16C7.49919 80.16 6.51252 79.9867 5.60586 79.64C4.71252 79.28 3.93252 78.78 3.26586 78.14C2.61252 77.4867 2.09919 76.7267 1.72586 75.86C1.35252 74.9933 1.16586 74.04 1.16586 73C1.16586 71.96 1.35252 71.0067 1.72586 70.14C2.09919 69.2733 2.61919 68.52 3.28586 67.88C3.95252 67.2267 4.73252 66.7267 5.62586 66.38C6.53252 66.02 7.51919 65.84 8.58586 65.84C9.66586 65.84 10.6592 66.0267 11.5659 66.4C12.4859 66.76 13.2659 67.3 13.9059 68.02L12.6059 69.28C12.0725 68.72 11.4725 68.3067 10.8059 68.04C10.1392 67.76 9.42586 67.62 8.66586 67.62C7.87919 67.62 7.14586 67.7533 6.46586 68.02C5.79919 68.2867 5.21919 68.66 4.72586 69.14C4.23252 69.62 3.84586 70.1933 3.56586 70.86C3.29919 71.5133 3.16586 72.2267 3.16586 73C3.16586 73.7733 3.29919 74.4933 3.56586 75.16C3.84586 75.8133 4.23252 76.38 4.72586 76.86C5.21919 77.34 5.79919 77.7133 6.46586 77.98C7.14586 78.2467 7.87919 78.38 8.66586 78.38C9.42586 78.38 10.1392 78.2467 10.8059 77.98C11.4725 77.7 12.0725 77.2733 12.6059 76.7L13.9059 77.96C13.2659 78.68 12.4859 79.2267 11.5659 79.6C10.6592 79.9733 9.65919 80.16 8.56586 80.16ZM19.2069 80L25.5469 66H27.527L33.887 80H31.787L26.127 67.12H26.927L21.2669 80H19.2069ZM21.9069 76.5L22.4469 74.9H30.3269L30.907 76.5H21.9069ZM40.8754 80V66H46.3354C47.5621 66 48.6087 66.1933 49.4754 66.58C50.3421 66.9667 51.0087 67.5267 51.4754 68.26C51.9421 68.9933 52.1754 69.8667 52.1754 70.88C52.1754 71.8933 51.9421 72.7667 51.4754 73.5C51.0087 74.22 50.3421 74.7733 49.4754 75.16C48.6087 75.5467 47.5621 75.74 46.3354 75.74H41.9754L42.8754 74.82V80H40.8754ZM50.2354 80L46.6754 74.92H48.8154L52.4154 80H50.2354ZM42.8754 75.02L41.9754 74.04H46.2754C47.5554 74.04 48.5221 73.7667 49.1754 73.22C49.8421 72.66 50.1754 71.88 50.1754 70.88C50.1754 69.88 49.8421 69.1067 49.1754 68.56C48.5221 68.0133 47.5554 67.74 46.2754 67.74H41.9754L42.8754 66.74V75.02ZM64.3866 80.16C63.32 80.16 62.3 80 61.3266 79.68C60.3533 79.3467 59.5866 78.92 59.0266 78.4L59.7666 76.84C60.3 77.3067 60.98 77.6933 61.8066 78C62.6333 78.3067 63.4933 78.46 64.3866 78.46C65.2 78.46 65.86 78.3667 66.3666 78.18C66.8733 77.9933 67.2466 77.74 67.4866 77.42C67.7266 77.0867 67.8466 76.7133 67.8466 76.3C67.8466 75.82 67.6866 75.4333 67.3666 75.14C67.06 74.8467 66.6533 74.6133 66.1466 74.44C65.6533 74.2533 65.1066 74.0933 64.5066 73.96C63.9066 73.8267 63.3 73.6733 62.6866 73.5C62.0866 73.3133 61.5333 73.08 61.0266 72.8C60.5333 72.52 60.1333 72.1467 59.8266 71.68C59.52 71.2 59.3666 70.5867 59.3666 69.84C59.3666 69.12 59.5533 68.46 59.9266 67.86C60.3133 67.2467 60.9 66.76 61.6866 66.4C62.4866 66.0267 63.5 65.84 64.7266 65.84C65.54 65.84 66.3466 65.9467 67.1466 66.16C67.9466 66.3733 68.64 66.68 69.2266 67.08L68.5666 68.68C67.9666 68.28 67.3333 67.9933 66.6666 67.82C66 67.6333 65.3533 67.54 64.7266 67.54C63.94 67.54 63.2933 67.64 62.7866 67.84C62.28 68.04 61.9066 68.3067 61.6666 68.64C61.44 68.9733 61.3266 69.3467 61.3266 69.76C61.3266 70.2533 61.48 70.6467 61.7866 70.94C62.1066 71.2333 62.5133 71.4667 63.0066 71.64C63.5133 71.8133 64.0666 71.9733 64.6666 72.12C65.2666 72.2533 65.8666 72.4067 66.4666 72.58C67.08 72.7533 67.6333 72.98 68.1266 73.26C68.6333 73.54 69.04 73.9133 69.3466 74.38C69.6533 74.8467 69.8066 75.4467 69.8066 76.18C69.8066 76.8867 69.6133 77.5467 69.2266 78.16C68.84 78.76 68.24 79.2467 67.4266 79.62C66.6266 79.98 65.6133 80.16 64.3866 80.16ZM87.6685 66H89.6685V80H87.6685V66ZM79.6285 80H77.6285V66H79.6285V80ZM87.8485 73.76H79.4285V72.02H87.8485V73.76ZM100.579 72.04H107.779V73.74H100.579V72.04ZM100.759 78.26H108.919V80H98.759V66H108.639V67.74H100.759V78.26ZM117.057 80V66H122.517C123.744 66 124.791 66.1933 125.657 66.58C126.524 66.9667 127.191 67.5267 127.657 68.26C128.124 68.9933 128.357 69.8667 128.357 70.88C128.357 71.8933 128.124 72.7667 127.657 73.5C127.191 74.22 126.524 74.7733 125.657 75.16C124.791 75.5467 123.744 75.74 122.517 75.74H118.157L119.057 74.82V80H117.057ZM126.417 80L122.857 74.92H124.997L128.597 80H126.417ZM119.057 75.02L118.157 74.04H122.457C123.737 74.04 124.704 73.7667 125.357 73.22C126.024 72.66 126.357 71.88 126.357 70.88C126.357 69.88 126.024 69.1067 125.357 68.56C124.704 68.0133 123.737 67.74 122.457 67.74H118.157L119.057 66.74V75.02ZM136.489 80V66H141.949C143.175 66 144.222 66.1933 145.089 66.58C145.955 66.9667 146.622 67.5267 147.089 68.26C147.555 68.9933 147.789 69.8667 147.789 70.88C147.789 71.8933 147.555 72.7667 147.089 73.5C146.622 74.22 145.955 74.78 145.089 75.18C144.222 75.5667 143.175 75.76 141.949 75.76H137.589L138.489 74.82V80H136.489ZM138.489 75.02L137.589 74.02H141.889C143.169 74.02 144.135 73.7467 144.789 73.2C145.455 72.6533 145.789 71.88 145.789 70.88C145.789 69.88 145.455 69.1067 144.789 68.56C144.135 68.0133 143.169 67.74 141.889 67.74H137.589L138.489 66.74V75.02ZM152.804 80L159.144 66H161.124L167.484 80H165.384L159.724 67.12H160.524L154.864 80H152.804ZM155.504 76.5L156.044 74.9H163.924L164.504 76.5H155.504ZM178.552 80.16C177.486 80.16 176.466 80 175.492 79.68C174.519 79.3467 173.752 78.92 173.192 78.4L173.932 76.84C174.466 77.3067 175.146 77.6933 175.972 78C176.799 78.3067 177.659 78.46 178.552 78.46C179.366 78.46 180.026 78.3667 180.532 78.18C181.039 77.9933 181.412 77.74 181.652 77.42C181.892 77.0867 182.012 76.7133 182.012 76.3C182.012 75.82 181.852 75.4333 181.532 75.14C181.226 74.8467 180.819 74.6133 180.312 74.44C179.819 74.2533 179.272 74.0933 178.672 73.96C178.072 73.8267 177.466 73.6733 176.852 73.5C176.252 73.3133 175.699 73.08 175.192 72.8C174.699 72.52 174.299 72.1467 173.992 71.68C173.686 71.2 173.532 70.5867 173.532 69.84C173.532 69.12 173.719 68.46 174.092 67.86C174.479 67.2467 175.066 66.76 175.852 66.4C176.652 66.0267 177.666 65.84 178.892 65.84C179.706 65.84 180.512 65.9467 181.312 66.16C182.112 66.3733 182.806 66.68 183.392 67.08L182.732 68.68C182.132 68.28 181.499 67.9933 180.832 67.82C180.166 67.6333 179.519 67.54 178.892 67.54C178.106 67.54 177.459 67.64 176.952 67.84C176.446 68.04 176.072 68.3067 175.832 68.64C175.606 68.9733 175.492 69.3467 175.492 69.76C175.492 70.2533 175.646 70.6467 175.952 70.94C176.272 71.2333 176.679 71.4667 177.172 71.64C177.679 71.8133 178.232 71.9733 178.832 72.12C179.432 72.2533 180.032 72.4067 180.632 72.58C181.246 72.7533 181.799 72.98 182.292 73.26C182.799 73.54 183.206 73.9133 183.512 74.38C183.819 74.8467 183.972 75.4467 183.972 76.18C183.972 76.8867 183.779 77.5467 183.392 78.16C183.006 78.76 182.406 79.2467 181.592 79.62C180.792 79.98 179.779 80.16 178.552 80.16Z" fill="white"/>
</svg>
