<svg width="13" height="12" viewBox="0 0 13 12" fill="none" xmlns="http://www.w3.org/2000/svg">
<path d="M2.06542 11.9977C1.49844 11.9977 1.01246 11.7952 0.607477 11.3902C0.202492 10.9852 0 10.4992 0 9.93224V0.653037C0 0.32905 0.0834268 0.13405 0.25028 0.0680374C0.417539 0.0024299 0.617601 0.0759345 0.850467 0.288551L1.19977 0.63785L1.54907 0.288551C1.65031 0.19743 1.76168 0.126558 1.88318 0.0759346C2.00467 0.0253115 2.13123 0 2.26285 0C2.39447 0 2.52103 0.0253115 2.64252 0.0759346C2.76402 0.126558 2.87539 0.202492 2.97664 0.303738L3.32593 0.63785L3.67523 0.303738C3.77648 0.202492 3.88785 0.126558 4.00935 0.0759346C4.13084 0.0253115 4.2574 0 4.38902 0C4.52064 0 4.6472 0.0253115 4.76869 0.0759346C4.89019 0.126558 5.00156 0.19743 5.1028 0.288551L5.4521 0.63785L5.77103 0.303738C5.87227 0.202492 5.98628 0.128987 6.11304 0.0832242C6.23939 0.0378659 6.36838 0.0151868 6.5 0.0151868C6.63162 0.0151868 6.76081 0.0378659 6.88757 0.0832242C7.01392 0.128987 7.12773 0.202492 7.22897 0.303738L7.5479 0.63785L7.8972 0.288551C7.99844 0.19743 8.10981 0.126558 8.23131 0.0759346C8.3528 0.0253115 8.47936 0 8.61098 0C8.7426 0 8.86916 0.0253115 8.99065 0.0759346C9.11215 0.126558 9.22352 0.202492 9.32477 0.303738L9.67406 0.63785L10.0234 0.303738C10.1246 0.202492 10.236 0.126558 10.3575 0.0759346C10.479 0.0253115 10.6055 0 10.7371 0C10.8688 0 10.9953 0.0253115 11.1168 0.0759346C11.2383 0.126558 11.3497 0.19743 11.4509 0.288551L11.8002 0.63785L12.1495 0.288551C12.3824 0.0759345 12.5825 0.0024299 12.7497 0.0680374C12.9166 0.13405 13 0.32905 13 0.653037V9.93224C13 10.4992 12.7975 10.9852 12.3925 11.3902C11.9875 11.7952 11.5016 11.9977 10.9346 11.9977H2.06542ZM2.06542 9.93224H5.58878V6.43925H2.06542V9.93224ZM7.41121 9.93224H10.9346V9.11215H7.41121V9.93224ZM7.41121 7.27453H10.9346V6.43925H7.41121V7.27453ZM2.06542 4.61682H10.9346V3.40187H2.06542V4.61682Z" fill="#B0B0B0"/>
</svg>
