<svg width="13" height="13" viewBox="0 0 13 13" fill="none" xmlns="http://www.w3.org/2000/svg">
<path d="M3.86181 5.92709C3.50345 5.92709 3.2277 5.76451 3.03456 5.43935C2.84104 5.1138 2.84331 4.79071 3.04135 4.47008L5.50272 0.452666C5.6819 0.150889 5.95312 0 6.31639 0C6.67927 0 6.95031 0.150889 7.12949 0.452666L9.59086 4.47008C9.7889 4.79071 9.79607 5.1138 9.61236 5.43935C9.42828 5.76451 9.14762 5.92709 8.7704 5.92709H3.86181ZM9.84548 12.5615C8.97787 12.5615 8.23758 12.255 7.62459 11.642C7.01161 11.029 6.70511 10.284 6.70511 9.40696C6.70511 8.52992 7.01161 7.78491 7.62459 7.17193C8.23758 6.55894 8.97787 6.25245 9.84548 6.25245C10.7225 6.25245 11.4675 6.55894 12.0805 7.17193C12.6935 7.78491 13 8.52992 13 9.40696C13 10.284 12.6935 11.029 12.0805 11.642C11.4675 12.255 10.7225 12.5615 9.84548 12.5615ZM0.947769 12.2503C0.683714 12.2503 0.459833 12.1584 0.276126 11.9747C0.0920421 11.7906 0 11.5666 0 11.3025V7.49728C0 7.23322 0.0920421 7.00689 0.276126 6.81828C0.459833 6.62967 0.683714 6.53536 0.947769 6.53536H4.76714C5.03119 6.53536 5.25526 6.62967 5.43935 6.81828C5.62305 7.00689 5.71491 7.23322 5.71491 7.49728V11.3025C5.71491 11.5666 5.62305 11.7906 5.43935 11.9747C5.25526 12.1584 5.03119 12.2503 4.76714 12.2503H0.947769Z" fill="#B0B0B0"/>
</svg>
