<svg width="13" height="13" viewBox="0 0 13 13" fill="none" xmlns="http://www.w3.org/2000/svg">
<path d="M11.3244 7.19119C11.1289 6.6792 10.8939 6.2953 10.6195 6.03948C10.3447 5.7833 9.94665 5.55281 9.42535 5.34801L6.06015 4.10526C5.88328 4.0401 5.70417 3.99579 5.52284 3.97233C5.34112 3.94924 5.15252 3.9377 4.95704 3.9377H4.2449V3.61654C4.2449 3.30934 4.31248 3.02077 4.44765 2.75081C4.58244 2.48085 4.77551 2.25743 5.02685 2.08056L7.42857 0.36305C7.76369 0.121017 8.13382 0 8.53895 0C8.9437 0 9.31364 0.121017 9.64876 0.36305L12.0505 2.08056C12.3018 2.25743 12.4973 2.48085 12.6369 2.75081C12.7766 3.02077 12.8464 3.30934 12.8464 3.61654V7.19119H11.3244ZM9.10419 3.40709C9.22521 3.40709 9.32761 3.36278 9.41139 3.27416C9.49517 3.18591 9.53706 3.08127 9.53706 2.96026C9.53706 2.83924 9.49517 2.73684 9.41139 2.65306C9.32761 2.56928 9.22521 2.52739 9.10419 2.52739C8.98317 2.52739 8.87854 2.56928 8.79029 2.65306C8.70167 2.73684 8.65736 2.83924 8.65736 2.96026C8.65736 3.08127 8.70167 3.18591 8.79029 3.27416C8.87854 3.36278 8.98317 3.40709 9.10419 3.40709V3.40709ZM7.98711 3.40709C8.10813 3.40709 8.21053 3.36278 8.29431 3.27416C8.37809 3.18591 8.41998 3.08127 8.41998 2.96026C8.41998 2.83924 8.37809 2.73684 8.29431 2.65306C8.21053 2.56928 8.10813 2.52739 7.98711 2.52739C7.86609 2.52739 7.76146 2.56928 7.67321 2.65306C7.58459 2.73684 7.54028 2.83924 7.54028 2.96026C7.54028 3.08127 7.58459 3.18591 7.67321 3.27416C7.76146 3.36278 7.86609 3.40709 7.98711 3.40709ZM9.09023 4.52417C9.21124 4.52417 9.31588 4.48004 9.40412 4.39179C9.49275 4.30317 9.53706 4.19835 9.53706 4.07734C9.53706 3.95632 9.49517 3.85392 9.41139 3.77014C9.32761 3.68636 9.22521 3.64447 9.10419 3.64447C8.98317 3.64447 8.87854 3.68636 8.79029 3.77014C8.70167 3.85392 8.65736 3.95632 8.65736 4.07734C8.65736 4.19835 8.69925 4.30317 8.78303 4.39179C8.86681 4.48004 8.96921 4.52417 9.09023 4.52417ZM7.97315 4.52417C8.09416 4.52417 8.1988 4.48228 8.28705 4.3985C8.37567 4.31472 8.41998 4.21232 8.41998 4.0913C8.41998 3.97028 8.37567 3.86546 8.28705 3.77684C8.1988 3.68859 8.09416 3.64447 7.97315 3.64447C7.85213 3.64447 7.74973 3.68859 7.66595 3.77684C7.58217 3.86546 7.54028 3.97028 7.54028 4.0913C7.54028 4.21232 7.58217 4.31472 7.66595 4.3985C7.74973 4.48228 7.85213 4.52417 7.97315 4.52417ZM0 11.1847V6.35338C0 5.99964 0.128092 5.69468 0.384275 5.4385C0.640086 5.18269 0.949517 5.05478 1.31257 5.05478C1.66631 5.05478 1.96885 5.18269 2.22019 5.4385C2.47154 5.69468 2.59721 5.99964 2.59721 6.35338V11.1847C2.59721 11.5478 2.47154 11.855 2.22019 12.1063C1.96885 12.3577 1.66631 12.4834 1.31257 12.4834C0.949517 12.4834 0.640086 12.3577 0.384275 12.1063C0.128092 11.855 0 11.5478 0 11.1847V11.1847ZM7.38668 12.623L3.72825 11.5897V5.05478H4.87325C4.99427 5.05478 5.10598 5.06409 5.20838 5.08271C5.31078 5.10133 5.42248 5.13391 5.5435 5.18045L8.69925 6.33942C9.10884 6.49767 9.44639 6.74194 9.71188 7.07222C9.977 7.40288 10.1096 7.72646 10.1096 8.04296C10.1096 8.13605 10.077 8.21742 10.0118 8.28705C9.94665 8.35705 9.86287 8.39205 9.76047 8.39205H8.22449C7.99176 8.39205 7.75439 8.37343 7.51235 8.3362C7.27032 8.29896 7.03294 8.24311 6.80021 8.16864L6.28357 8.01504C6.14393 7.96849 6.00895 7.98004 5.87862 8.04967C5.7483 8.11967 5.66452 8.21984 5.62728 8.35016C5.59005 8.49911 5.59712 8.63874 5.64851 8.76907C5.69952 8.89939 5.79484 8.98783 5.93448 9.03437L6.52094 9.24382C6.73505 9.3276 6.97951 9.38569 7.25431 9.41809C7.52874 9.45086 7.79628 9.46724 8.05693 9.46724H11.2825C11.9248 9.46724 12.3716 9.60687 12.623 9.88614C12.8743 10.1654 13 10.6122 13 11.2266L8.46187 12.609C8.285 12.6649 8.11278 12.6952 7.94522 12.7001C7.77766 12.7045 7.59148 12.6788 7.38668 12.623V12.623Z" fill="#B0B0B0"/>
</svg>
