<svg width="20" height="14" viewBox="0 0 20 14" fill="none" xmlns="http://www.w3.org/2000/svg">
<path d="M6.15951 13.5951L0.294478 7.73006C0.179959 7.64826 0.102249 7.53783 0.0613497 7.39877C0.0204499 7.25971 0 7.11656 0 6.96933C0 6.82209 0.0204499 6.67894 0.0613497 6.53988C0.102249 6.40082 0.179959 6.27403 0.294478 6.15951L6.15951 0.294478C6.35583 0.0981592 6.6135 0 6.93251 0C7.25153 0 7.51738 0.0981592 7.73006 0.294478C7.94274 0.523517 8.04908 0.793456 8.04908 1.10429C8.04908 1.41513 7.94274 1.67689 7.73006 1.88957L3.77914 5.84049H18.8957C19.2065 5.84049 19.4683 5.95092 19.681 6.17178C19.8937 6.39264 20 6.65849 20 6.96933C20 7.28016 19.8937 7.54192 19.681 7.7546C19.4683 7.96728 19.2065 8.07362 18.8957 8.07362H3.77914L7.73006 12.0245C7.94274 12.2372 8.04908 12.499 8.04908 12.8098C8.04908 13.1207 7.94274 13.3824 7.73006 13.5951C7.51738 13.8241 7.25153 13.9387 6.93251 13.9387C6.6135 13.9387 6.35583 13.8241 6.15951 13.5951Z" fill="white"/>
</svg>
