<svg width="13" height="12" viewBox="0 0 13 12" fill="none" xmlns="http://www.w3.org/2000/svg">
<path d="M4.63603 3.68015L6.16544 0H6.83456L8.36397 3.68015H4.63603ZM6.02206 11.7255L0.0955883 4.63603H6.02206V11.7255ZM6.97794 11.7255V4.63603H12.9044L6.97794 11.7255ZM9.46323 3.68015L7.91789 0H9.81372C10.2279 0 10.6077 0.106209 10.9531 0.318627C11.2981 0.531046 11.5662 0.823121 11.7574 1.19485L13 3.68015H9.46323ZM0 3.68015L1.24265 1.19485C1.43382 0.823121 1.70211 0.531046 2.0475 0.318627C2.39247 0.106209 2.77206 0 3.18627 0H5.08211L3.53676 3.68015H0Z" fill="#B0B0B0"/>
</svg>
