<svg width="13" height="13" viewBox="0 0 13 13" fill="none" xmlns="http://www.w3.org/2000/svg">
<path d="M6.4417 10.0123L7.82623 8.65695C8.01084 8.46263 8.10314 8.22945 8.10314 7.9574C8.10314 7.68535 8.01084 7.45703 7.82623 7.27242L6.4417 5.90247C6.29596 5.75673 6.12108 5.68386 5.91704 5.68386C5.713 5.68386 5.53812 5.75673 5.39238 5.90247C5.24664 6.04821 5.17377 6.22543 5.17377 6.43413C5.17377 6.64321 5.24664 6.82063 5.39238 6.96637L6.36883 7.9574L5.39238 8.963C5.24664 9.10874 5.17377 9.28363 5.17377 9.48767C5.17377 9.6917 5.24664 9.86659 5.39238 10.0123C5.53812 10.1581 5.713 10.2309 5.91704 10.2309C6.12108 10.2309 6.29596 10.1581 6.4417 10.0123ZM1.98206 13C1.42825 13 0.959552 12.808 0.575964 12.424C0.191988 12.0404 0 11.5717 0 11.0179V4.91144C0 4.35762 0.191988 3.88873 0.575964 3.50475C0.959552 3.12117 1.42825 2.92937 1.98206 2.92937H3.55605V1.98206C3.55605 1.42825 3.74804 0.959357 4.13202 0.575381C4.51561 0.191794 4.98431 0 5.53812 0H7.46188C8.01569 0 8.48439 0.191794 8.86798 0.575381C9.25196 0.959357 9.44395 1.42825 9.44395 1.98206V2.92937H11.0179C11.5717 2.92937 12.0406 3.12117 12.4246 3.50475C12.8082 3.88873 13 4.35762 13 4.91144V11.0179C13 11.5717 12.8082 12.0404 12.4246 12.424C12.0406 12.808 11.5717 13 11.0179 13H1.98206ZM5.53812 2.92937H7.46188V1.98206H5.53812V2.92937Z" fill="#B0B0B0"/>
</svg>
