<svg width="46" height="35" viewBox="0 0 46 35" fill="none" xmlns="http://www.w3.org/2000/svg">
<path d="M25.7901 17.0952C25.7901 22.2284 22.3133 26.3897 17.1801 26.3897C12.0469 26.3897 7.88574 22.2284 7.88574 17.0952C7.88574 11.962 12.047 7.80078 17.1802 7.80078C22.3134 7.80078 25.7901 11.962 25.7901 17.0952Z" fill="#FEE45A"/>
<path d="M17.18 7.80078C16.8329 7.80078 16.4905 7.82043 16.1533 7.85752C20.8033 8.3686 24.4211 12.3091 24.4211 17.0952C24.4211 21.8813 20.8033 25.8218 16.1533 26.3329C16.4905 26.37 16.8329 26.3897 17.18 26.3897C22.3132 26.3897 26.4744 22.2284 26.4744 17.0952C26.4744 11.962 22.3131 7.80078 17.18 7.80078Z" fill="#FED402"/>
<path d="M17.1802 5.5226H15.4993C15.253 5.5226 15.0809 5.27873 15.1635 5.04664L16.0872 2.45085L16.8444 0.322895C16.9569 0.00695181 17.4036 0.00695181 17.516 0.322895L18.2733 2.45085L19.1969 5.04664C19.2795 5.27866 19.1074 5.5226 18.8611 5.5226H17.1802Z" fill="#FEE45A"/>
<path d="M17.1802 28.667H18.8611C19.1074 28.667 19.2795 28.9109 19.1969 29.143L18.2732 31.7387L17.516 33.8667C17.4036 34.1826 16.9568 34.1826 16.8444 33.8667L16.0872 31.7387L15.1635 29.143C15.0809 28.9109 15.253 28.667 15.4993 28.667H17.1802Z" fill="#FEE45A"/>
<path d="M28.7524 17.0943V15.4134C28.7524 15.167 28.9963 14.995 29.2284 15.0776L31.8242 16.0013L33.9521 16.7585C34.2681 16.8709 34.2681 17.3177 33.9521 17.4301L31.8242 18.1873L29.2284 19.111C28.9963 19.1936 28.7524 19.0215 28.7524 18.7752V17.0943Z" fill="#FED402"/>
<path d="M5.60854 17.0943V18.7752C5.60854 19.0215 5.36467 19.1936 5.13257 19.111L2.53679 18.1873L0.408832 17.4301C0.0928893 17.3177 0.0928893 16.8709 0.408832 16.7584L2.53679 16.0012L5.13257 15.0776C5.36467 14.995 5.60854 15.1671 5.60854 15.4133V17.0943Z" fill="#FEE45A"/>
<path d="M8.9974 8.91199L7.80885 10.1005C7.63466 10.2747 7.34055 10.2239 7.23487 10.0014L6.05255 7.51283L5.08323 5.47269C4.93929 5.16982 5.25523 4.85388 5.55817 4.99775L7.59831 5.967L10.0869 7.14932C10.3094 7.255 10.3601 7.54918 10.186 7.7233L8.9974 8.91199Z" fill="#FEE45A"/>
<path d="M25.3624 25.2774L26.551 24.0889C26.7251 23.9147 27.0193 23.9654 27.1249 24.188L28.3073 26.6766L29.2766 28.7167C29.4204 29.0196 29.1046 29.3355 28.8016 29.1916L26.7615 28.2224L24.2729 27.04C24.0504 26.9343 23.9997 26.6401 24.1738 26.466L25.3624 25.2774Z" fill="#FED402"/>
<path d="M25.3624 8.91188L24.1738 7.72333C23.9996 7.54914 24.0504 7.25503 24.2729 7.14935L26.7615 5.96703L28.8017 4.99778C29.1045 4.85384 29.4205 5.16978 29.2766 5.47272L28.3074 7.51286L27.125 10.0015C27.0193 10.224 26.7251 10.2747 26.551 10.1006L25.3624 8.91188Z" fill="#FED402"/>
<path d="M8.99744 25.2775L10.186 26.4661C10.3602 26.6403 10.3094 26.9344 10.0869 27.04L7.59828 28.2224L5.55814 29.1916C5.25527 29.3356 4.93933 29.0196 5.0832 28.7167L6.05245 26.6765L7.23477 24.1879C7.34045 23.9654 7.63463 23.9147 7.80875 24.0888L8.99744 25.2775Z" fill="#FEE45A"/>
<path d="M18.4371 17.4303C18.8662 17.4303 19.2945 17.473 19.715 17.558C20.0322 15.9752 21.0575 14.625 22.497 13.8942C23.9363 13.1634 25.6314 13.1328 27.0965 13.8109C28.4223 10.1588 32.4577 8.27318 36.1097 9.59902C39.7617 10.9249 41.6473 14.9605 40.3215 18.6123C43.5206 18.7134 46.0477 21.3614 45.9998 24.5616C45.9517 27.7622 43.3462 30.3328 40.1453 30.338H18.4371C14.873 30.338 11.9833 27.4485 11.9833 23.8841C11.9833 20.3197 14.873 17.4303 18.4371 17.4303Z" fill="white" fill-opacity="0.67"/>
</svg>
