<svg width="1920" height="769" viewBox="0 0 1920 769" fill="none" xmlns="http://www.w3.org/2000/svg">
<g id="Group 145">
<g id="Group 18">
<path id="Vector" d="M0 14.6098L29 8.56389C58 2.18201 116 -9.90998 174.4 15.2817C232.6 40.4733 291.4 102.948 349.6 111.346C408 119.743 466 74.0621 524 57.6035C582 41.4809 640 54.9165 698 48.8705C756 42.4886 814 16.9611 872.4 9.57151C930.6 2.18197 989.4 13.6021 1047.6 40.8091C1106 68.3519 1164 112.017 1222 123.774C1280 135.53 1338 115.376 1396 92.536C1454 69.3597 1512 43.8321 1570.4 44.168C1628.6 44.8398 1687.4 71.7109 1745.6 71.7109C1804 71.7109 1862 44.8398 1891 31.4043L1920 17.9687V767H1891C1862 767 1804 767 1745.6 767C1687.4 767 1628.6 767 1570.4 767C1512 767 1454 767 1396 767C1338 767 1280 767 1222 767C1164 767 1106 767 1047.6 767C989.4 767 930.6 767 872.4 767C814 767 756 767 698 767C640 767 582 767 524 767C466 767 408 767 349.6 767C291.4 767 232.6 767 174.4 767C116 767 58 767 29 767H0V14.6098Z" fill="#6600FF"/>
<path id="Vector_2" d="M0 580.814L29 570.804C58 560.794 161.5 537.055 199 529.354C256 517.649 279.84 483.233 338.04 494.444C396.44 506.056 458.954 533.166 516.954 532.766C574.954 531.965 640 519.599 698 488.368C756 456.736 814 443.478 872.4 442.677C930.6 441.876 989.4 483.517 1047.6 481.515C1106 479.513 1164 433.868 1222 420.655C1280 407.442 1338 425.86 1396 432.667C1454 439.474 1512 433.868 1570.4 443.478C1628.6 452.687 1687.4 476.71 1745.6 502.736C1804 528.762 1862 556.79 1891 570.804L1920 584.818V769H1891C1862 769 1804 769 1745.6 769C1687.4 769 1628.6 769 1570.4 769C1512 769 1454 769 1396 769C1338 769 1280 769 1222 769C1164 769 1106 769 1047.6 769C989.4 769 930.6 769 872.4 769C814 769 756 769 698 769C640 769 582 769 524 769C466 769 408 769 349.6 769C291.4 769 232.6 769 174.4 769C116 769 58 769 29 769H0V580.814Z" fill="#EFEFEF"/>
</g>
</g>
</svg>
