<svg width="1920" height="835" viewBox="0 0 1920 835" fill="none" xmlns="http://www.w3.org/2000/svg">
<path d="M0 158L32 129.8C64 101.7 128 45.2997 192 27.7997C256 10.2997 320 31.6997 384 48.4997C448 65.2997 512 77.6997 576 68.4997C640 59.2997 704 28.6997 768 19.2997C832 9.99966 896 21.9997 960 45.9997C1024 69.9997 1088 106 1152 106.7C1216 107.3 1280 72.6997 1344 43.6997C1408 14.6997 1472 -8.70032 1536 3.99968C1600 16.6997 1664 65.2997 1728 89.2997C1792 113.3 1856 112.7 1888 112.3L1920 112V803H1888C1856 803 1792 803 1728 803C1664 803 1600 803 1536 803C1472 803 1408 803 1344 803C1280 803 1216 803 1152 803C1088 803 1024 803 960 803C896 803 832 803 768 803C704 803 640 803 576 803C512 803 448 803 384 803C320 803 256 803 192 803C128 803 64 803 32 803H0V158Z" fill="#1D01C6"/>
<path d="M0 191L32 175C64 159 128 127 192 135.5C256 144 320 193 384 195.7C448 198.3 512 154.7 576 133.3C640 112 704 113 768 129.5C832 146 896 178 960 181.2C1024 184.3 1088 158.7 1152 148.8C1216 139 1280 145 1344 139.7C1408 134.3 1472 117.7 1536 117.8C1600 118 1664 135 1728 155.2C1792 175.3 1856 198.7 1888 210.3L1920 222V680H1888C1856 680 1792 680 1728 680C1664 680 1600 680 1536 680C1472 680 1408 680 1344 680C1280 680 1216 680 1152 680C1088 680 1024 680 960 680C896 680 832 680 768 680C704 680 640 680 576 680C512 680 448 680 384 680C320 680 256 680 192 680C128 680 64 680 32 680H0V191Z" fill="#2E14D0"/>
<path d="M0 388.586L32 397.248C64 405.743 128 423.067 192 406.076C256 389.086 320 338.115 384 344.778C448 351.441 512 415.738 576 435.56C640 455.215 704 430.229 768 395.582C832 360.769 896 316.461 960 303.301C1024 290.309 1088 308.632 1152 333.118C1216 357.437 1280 388.087 1344 419.069C1408 450.218 1472 481.867 1536 467.375C1600 453.05 1664 392.418 1728 374.428C1792 356.438 1856 380.757 1888 393.084L1920 405.244V835H1888C1856 835 1792 835 1728 835C1664 835 1600 835 1536 835C1472 835 1408 835 1344 835C1280 835 1216 835 1152 835C1088 835 1024 835 960 835C896 835 832 835 768 835C704 835 640 835 576 835C512 835 448 835 384 835C320 835 256 835 192 835C128 835 64 835 32 835H0V388.586Z" fill="url(#paint0_linear_127_152)"/>
<defs>
<linearGradient id="paint0_linear_127_152" x1="960" y1="299" x2="960" y2="835" gradientUnits="userSpaceOnUse">
<stop stop-color="#060029"/>
<stop offset="1"/>
</linearGradient>
</defs>
</svg>
