<svg width="934" height="539" viewBox="0 0 934 539" fill="none" xmlns="http://www.w3.org/2000/svg">
<path d="M86.3738 420.266C85.6338 420.3 84.9011 420.106 84.2751 419.709C83.6492 419.313 83.1602 418.734 82.8744 418.05C82.5886 417.367 82.5198 416.612 82.6774 415.888C82.8349 415.164 83.2112 414.506 83.7552 414.003C83.8463 413.641 83.9117 413.381 84.0028 413.019C83.9702 412.94 83.9374 412.861 83.9044 412.783C83.1588 411.022 81.9095 409.52 80.3133 408.467C78.7172 407.414 76.8454 406.856 74.933 406.863C73.0207 406.87 71.1531 407.442 69.5648 408.507C67.9765 409.572 66.7384 411.083 66.0059 412.849C63.0785 419.9 59.3514 426.962 58.4338 434.417C58.0296 437.712 58.2001 441.052 58.9376 444.289C52.062 429.291 48.4917 412.99 48.4687 396.49C48.4673 392.35 48.6973 388.213 49.1577 384.098C49.5383 380.725 50.0662 377.376 50.7415 374.051C54.4267 356.01 62.3389 339.099 73.8285 324.71C79.3894 321.675 83.8866 317.01 86.7141 311.341C87.7384 309.303 88.4623 307.128 88.8634 304.882C88.2361 304.965 87.5985 305.016 86.9712 305.057C86.7758 305.068 86.5701 305.078 86.3747 305.088L86.301 305.091C85.6116 305.122 84.9279 304.953 84.3323 304.605C83.7367 304.256 83.2545 303.743 82.9438 303.127C82.6332 302.51 82.5073 301.817 82.5813 301.131C82.6553 300.445 82.926 299.795 83.3609 299.259C83.6317 298.926 83.9028 298.593 84.1739 298.26C84.5853 297.745 85.0069 297.242 85.4182 296.727C85.4657 296.679 85.5104 296.627 85.5519 296.573C86.0251 295.987 86.498 295.411 86.9712 294.825C86.1076 293.485 84.9462 292.362 83.5775 291.544C78.8367 288.768 72.2962 290.691 68.8716 294.979C65.4369 299.267 64.789 305.284 65.9819 310.641C67.155 315.2 69.0955 319.527 71.7203 323.434C71.4631 323.763 71.1957 324.082 70.9387 324.411C66.2389 330.455 62.1428 336.944 58.7089 343.786C59.544 336.121 58.5474 328.367 55.801 321.162C53.0175 314.447 47.8003 308.792 43.206 302.987C37.6874 296.014 26.3711 299.057 25.3988 307.896C25.3894 307.982 25.3802 308.067 25.3713 308.153C26.0537 308.538 26.7217 308.946 27.3752 309.379C28.1963 309.927 28.8325 310.711 29.2005 311.627C29.5685 312.544 29.6511 313.55 29.4375 314.514C29.224 315.478 28.7241 316.355 28.0035 317.03C27.2829 317.705 26.3752 318.147 25.3993 318.298L25.2993 318.313C25.5424 320.773 25.9721 323.21 26.5848 325.604C28.3599 332.288 31.4968 338.534 35.7988 343.949C40.1007 349.364 45.475 353.832 51.5846 357.073C51.9857 357.278 52.3765 357.484 52.7776 357.679C49.3276 367.456 47.1636 377.64 46.3399 387.975C45.8736 394.073 45.9011 400.198 46.4222 406.291L46.3913 406.075C45.0749 399.3 41.4606 393.186 36.1589 388.767C28.2845 382.299 17.1595 379.917 8.66446 374.717C7.76164 374.138 6.71188 373.828 5.639 373.826C4.56611 373.823 3.51486 374.127 2.60923 374.703C1.70359 375.278 0.981339 376.1 0.527667 377.072C0.073996 378.044 -0.0921838 379.126 0.0487398 380.19C0.0601331 380.265 0.0717173 380.341 0.083484 380.417C1.34984 380.933 2.58285 381.527 3.77533 382.196C4.45775 382.581 5.12574 382.989 5.77933 383.422C6.60041 383.97 7.23662 384.754 7.60462 385.67C7.97261 386.587 8.05523 387.593 7.84163 388.557C7.62804 389.521 7.1282 390.398 6.40761 391.073C5.68702 391.749 4.77928 392.19 3.80333 392.341L3.70333 392.356C3.63133 392.366 3.56964 392.377 3.49776 392.387C5.66151 397.554 8.6984 402.309 12.4754 406.445C17.1413 411.452 22.7807 415.453 29.0478 418.202C35.3148 420.952 42.0775 422.393 48.9211 422.436H48.9315C50.7892 430.509 53.4809 438.367 56.9631 445.883H85.6548C85.7577 445.565 85.8502 445.235 85.9428 444.917C83.287 445.084 80.6208 444.925 78.0036 444.444C80.1324 441.831 82.2611 439.199 84.3899 436.587C84.4374 436.538 84.482 436.486 84.5236 436.432C85.6034 435.096 86.6935 433.769 87.7732 432.432L87.7738 432.43C87.8314 428.333 87.3611 424.244 86.3747 420.266L86.3738 420.266Z" fill="#171717"/>
<path d="M439.74 446.271C439.741 446.427 439.71 446.582 439.651 446.727C439.591 446.872 439.503 447.003 439.393 447.114C439.282 447.224 439.151 447.312 439.006 447.371C438.862 447.431 438.707 447.462 438.55 447.461H1.26031C0.944707 447.461 0.642022 447.336 0.418854 447.113C0.195685 446.889 0.0703125 446.587 0.0703125 446.271C0.0703125 445.955 0.195685 445.653 0.418854 445.43C0.642022 445.206 0.944707 445.081 1.26031 445.081H438.55C438.707 445.081 438.862 445.111 439.006 445.171C439.151 445.23 439.282 445.318 439.393 445.429C439.503 445.539 439.591 445.671 439.651 445.815C439.71 445.96 439.741 446.115 439.74 446.271V446.271Z" fill="#222222"/>
<path d="M206.351 289.303C207.369 289.643 208.3 290.203 209.078 290.942C209.856 291.68 210.463 292.581 210.856 293.58C211.248 294.578 211.417 295.651 211.35 296.722C211.283 297.793 210.983 298.837 210.469 299.779L220.995 312.839L214.619 321.171L200.013 302.519C198.487 301.551 197.369 300.058 196.872 298.321C196.374 296.584 196.53 294.725 197.312 293.096C198.093 291.467 199.445 290.181 201.111 289.482C202.777 288.783 204.641 288.719 206.351 289.303V289.303Z" fill="#A0616A"/>
<path d="M211.059 324.875L205.113 310.085L216.111 302.274L221.252 311.488L228.759 316.608L238.73 325.463C241.433 323.243 262.172 306.623 268.806 313.689C269.613 314.483 270.238 315.441 270.639 316.499C271.039 317.557 271.206 318.689 271.128 319.818C270.714 325.197 265.01 329.712 264.794 329.878L252.203 341.701C251.734 342.502 246.785 350.737 241.129 352.17C240.323 352.391 239.479 352.442 238.652 352.32C237.825 352.199 237.032 351.906 236.323 351.462C223.452 343.559 215.223 335.781 212.201 328.723C211.662 327.492 211.279 326.2 211.059 324.875V324.875Z" fill="#2F2E41"/>
<path d="M204.827 518.438L195.143 518.89L188.789 481.754L203.082 481.086L204.827 518.438Z" fill="#A0616A"/>
<path d="M210.015 536.623L203.144 536.944L201.614 530.514L198.776 537.148L180.551 538C179.677 538.041 178.814 537.802 178.086 537.317C177.358 536.832 176.804 536.128 176.505 535.306C176.206 534.484 176.178 533.588 176.424 532.749C176.67 531.91 177.178 531.171 177.874 530.641L191.957 519.909L191.651 513.351L207.002 513.548L210.015 536.623Z" fill="#2F2E41"/>
<path d="M103.719 438.701L100.191 429.672L133.342 411.767L150.088 422.293L103.719 438.701Z" fill="#A0616A"/>
<path d="M88.153 449.44L85.6494 443.033L91.2518 439.525L84.0581 438.96L77.4181 421.966C77.0997 421.152 77.0501 420.257 77.2765 419.412C77.5028 418.567 77.9932 417.817 78.6762 417.271C79.3591 416.724 80.1988 416.411 81.0726 416.375C81.9465 416.34 82.8087 416.585 83.5334 417.075L98.2083 426.983L104.324 424.594L109.049 439.2L88.153 449.44Z" fill="#2F2E41"/>
<path d="M294.161 411.827C294.161 411.827 290.139 437.503 271.128 439.404C252.116 441.305 234.592 432.74 234.592 432.74L181.359 416.346C181.359 416.346 124.739 432.433 115.233 434.968C115.233 434.968 108.676 420.086 108.896 419.125C110.918 410.28 113.552 416.263 113.552 416.263L173.755 389.647C173.755 389.647 183.261 387.112 199.737 394.083C216.214 401.054 260.355 417.858 260.355 417.858L294.161 411.827Z" fill="#2F2E41"/>
<path d="M293.943 410.253C293.943 410.253 297.114 441.011 278.594 445.71C260.99 450.177 236.707 445.595 236.707 445.595L207.758 442.573C207.758 442.573 206.49 479.769 206.49 498.147C200.608 498.946 194.682 499.369 188.746 499.414C187.479 499.414 187.395 498.75 187.395 498.75L184.94 434.463C184.768 431.668 185.183 428.868 186.158 426.243C187.133 423.618 188.647 421.226 190.602 419.221C192.557 417.217 194.91 415.643 197.51 414.603C200.11 413.562 202.899 413.078 205.697 413.18C207.064 413.232 208.498 413.329 209.998 413.47C227.807 415.178 249.916 411.548 249.916 411.548L293.943 410.253Z" fill="#2F2E41"/>
<path d="M242.575 365.632C242.575 365.632 235.057 411.097 240.138 414.727C245.219 418.356 252.186 418.37 252.186 418.37L253.807 393.267L242.575 365.632Z" fill="#2F2E41"/>
<path d="M255.115 309.794L245.063 319.346C240.39 323.786 237.293 329.629 236.241 335.987C235.189 342.346 236.239 348.875 239.233 354.583L244.038 363.747L255.115 309.794Z" fill="#2F2E41"/>
<path d="M257.364 311.4L243.743 326.915C240.753 330.32 238.901 334.573 238.443 339.081V339.081C238.236 341.128 238.319 343.194 238.691 345.218L243.825 373.123L247.683 413.422C247.683 413.422 277.47 422.447 280.519 408.511C283.567 394.574 257.364 311.4 257.364 311.4Z" fill="#6C63FF"/>
<path d="M249.597 400.235L245.242 390.218L241.546 364.105C241.345 362.585 245.481 337.723 251.469 311.049L258.747 300.861L262.944 297.013L274.902 304.852C279.215 307.133 288.647 336.915 282.842 357.991C280.845 365.241 284.335 374.267 284.874 380.928L293.161 401.292L295.124 413.069L294.824 413.184C294.526 413.298 289.729 413.946 270.148 417.209C253.925 419.912 262.808 406.609 249.597 400.235Z" fill="#2F2E41"/>
<path d="M211.265 389.292C211.861 388.399 212.644 387.647 213.561 387.09C214.478 386.533 215.506 386.183 216.573 386.066C217.64 385.949 218.719 386.067 219.735 386.412C220.751 386.758 221.679 387.322 222.454 388.064L237.817 381.329L244.187 389.667L222.358 398.873C221.024 400.092 219.289 400.779 217.483 400.804C215.676 400.829 213.923 400.191 212.556 399.01C211.189 397.829 210.302 396.187 210.064 394.396C209.826 392.605 210.254 390.789 211.265 389.292V389.292Z" fill="#A0616A"/>
<path d="M246.829 394.075L230.998 395.935L226.344 383.275L236.582 380.729L243.491 374.827L254.65 367.525C253.217 364.335 242.614 339.964 251.172 335.414C252.149 334.844 253.238 334.492 254.364 334.382C255.49 334.273 256.626 334.409 257.695 334.78C262.777 336.589 265.639 343.278 265.743 343.53L273.852 358.779C274.502 359.442 281.152 366.376 281.053 372.21C281.055 373.046 280.883 373.874 280.548 374.64C280.214 375.407 279.724 376.095 279.109 376.662C268.109 387.012 258.446 392.915 250.842 393.981C249.514 394.178 248.166 394.209 246.829 394.075V394.075Z" fill="#2F2E41"/>
<path d="M257.115 295.731C267.579 294.477 275.022 284.789 273.74 274.092C272.459 263.395 262.937 255.74 252.474 256.994C242.01 258.247 234.566 267.935 235.848 278.632C237.13 289.329 246.651 296.984 257.115 295.731Z" fill="#A0616A"/>
<path d="M304.487 261.888C300.816 258.518 298.688 253.719 295.603 249.763C292.517 245.807 287.58 242.526 282.966 244.086C279.785 245.161 277.608 248.342 276.716 251.705C275.825 255.068 276.01 258.636 276.201 262.131C275.426 254.995 269.904 248.649 263.164 247.15C259.749 246.479 256.21 246.91 253.055 248.379C249.901 249.849 247.294 252.281 245.61 255.327C243.64 253.895 241.213 253.237 238.789 253.476C236.366 253.714 234.114 254.834 232.461 256.623C230.883 258.567 230.01 260.989 229.985 263.492C229.96 265.996 230.783 268.435 232.321 270.411C233.905 272.266 236.112 273.48 238.527 273.823C240.942 274.167 243.4 273.617 245.439 272.277L247.106 273.479C246.894 275.002 247.224 276.552 248.039 277.857C248.853 279.161 250.1 280.138 251.562 280.616C253.905 281.251 257.042 280.723 258.16 282.968C258.94 284.537 258.058 286.417 257.047 287.815C256.036 289.214 254.812 290.679 254.881 292.439C254.985 295.093 257.923 296.609 260.459 296.868C263.56 297.111 266.662 296.423 269.369 294.892C272.077 293.361 274.265 291.057 275.656 288.275C275.71 288.166 275.769 288.056 275.835 287.945C277.466 285.252 278.53 282.254 278.963 279.135C279.396 276.016 279.189 272.842 278.354 269.806C278.015 268.614 278.102 267.688 278.905 267.299C282.376 265.622 292.83 267.017 296.182 269.008C299.535 270.999 302.366 273.826 305.624 275.982C308.881 278.139 312.881 279.624 316.553 278.491C318.021 277.948 319.365 277.116 320.506 276.045C321.647 274.974 322.561 273.685 323.195 272.255C324.491 269.335 325.35 266.241 325.744 263.072C322.592 265.315 318.771 266.42 314.908 266.205C311.045 265.99 307.37 264.467 304.487 261.888V261.888Z" fill="#2F2E41"/>
<path d="M307.373 388.846L307.363 388.833L307.373 388.859V388.846Z" fill="#2F2E41"/>
<path d="M183.245 297.742C175.035 299.001 166.635 297.797 159.108 294.283C151.582 290.768 145.266 285.1 140.961 277.996C136.655 270.892 134.553 262.671 134.92 254.373C135.287 246.074 138.106 238.07 143.022 231.374C147.937 224.678 154.728 219.589 162.536 216.753C170.343 213.916 178.816 213.458 186.884 215.437C194.952 217.415 202.251 221.742 207.86 227.87C213.469 233.997 217.134 241.65 218.394 249.861C219.23 255.313 218.984 260.876 217.67 266.233C216.356 271.589 214 276.635 210.736 281.081C207.472 285.527 203.365 289.287 198.648 292.146C193.931 295.004 188.697 296.906 183.245 297.742V297.742ZM170.816 216.69C162.996 217.889 155.707 221.38 149.871 226.722C144.036 232.063 139.915 239.015 138.03 246.699C136.146 254.382 136.582 262.452 139.284 269.888C141.986 277.323 146.832 283.791 153.209 288.472C159.586 293.154 167.209 295.839 175.112 296.189C183.016 296.538 190.846 294.536 197.611 290.435C204.377 286.335 209.775 280.32 213.122 273.152C216.469 265.984 217.616 257.984 216.417 250.164C215.62 244.972 213.809 239.988 211.087 235.495C208.364 231.003 204.783 227.091 200.549 223.983C196.315 220.874 191.509 218.63 186.408 217.379C181.306 216.128 176.008 215.894 170.816 216.69V216.69Z" fill="#3F3D56"/>
<path d="M330.82 138.533C322.609 139.792 314.209 138.588 306.682 135.074C299.156 131.559 292.84 125.891 288.535 118.787C284.229 111.683 282.127 103.462 282.494 95.1636C282.861 86.8649 285.68 78.8613 290.596 72.165C295.512 65.4687 302.302 60.3805 310.11 57.5436C317.917 54.7068 326.391 54.2488 334.458 56.2277C342.526 58.2065 349.826 62.5332 355.434 68.6607C361.043 74.7882 364.709 82.4412 365.968 90.6521C366.804 96.1039 366.558 101.667 365.244 107.024C363.93 112.38 361.574 117.426 358.31 121.872C355.046 126.318 350.939 130.078 346.222 132.937C341.505 135.795 336.271 137.697 330.82 138.533V138.533ZM318.39 57.4808C310.57 58.68 303.281 62.1711 297.446 67.5127C291.61 72.8543 287.489 79.8064 285.605 87.4899C283.72 95.1734 284.156 103.243 286.858 110.679C289.56 118.114 294.406 124.582 300.783 129.263C307.161 133.945 314.783 136.63 322.687 136.98C330.59 137.329 338.42 135.327 345.185 131.226C351.951 127.126 357.349 121.111 360.696 113.943C364.044 106.775 365.19 98.7751 363.991 90.9552C362.383 80.4692 356.675 71.0514 348.123 64.7737C339.571 58.496 328.876 55.8727 318.39 57.4808V57.4808Z" fill="#3F3D56"/>
<path d="M501.015 233.685C492.804 234.944 484.404 233.74 476.878 230.225C469.351 226.71 463.036 221.043 458.73 213.939C454.425 206.835 452.323 198.614 452.689 190.315C453.056 182.016 455.876 174.013 460.791 167.316C465.707 160.62 472.498 155.532 480.305 152.695C488.113 149.858 496.586 149.4 504.654 151.379C512.721 153.358 520.021 157.685 525.63 163.812C531.238 169.94 534.904 177.593 536.163 185.803C536.999 191.255 536.753 196.818 535.439 202.175C534.125 207.532 531.769 212.577 528.506 217.023C525.242 221.47 521.134 225.229 516.417 228.088C511.7 230.947 506.467 232.849 501.015 233.685V233.685ZM488.585 152.632C480.765 153.831 473.477 157.322 467.641 162.664C461.805 168.006 457.685 174.958 455.8 182.641C453.915 190.325 454.352 198.395 457.053 205.83C459.755 213.266 464.601 219.733 470.978 224.415C477.356 229.096 484.978 231.782 492.882 232.131C500.785 232.48 508.615 230.478 515.381 226.378C522.146 222.277 527.544 216.263 530.892 209.094C534.239 201.926 535.385 193.926 534.186 186.107C532.578 175.621 526.87 166.203 518.319 159.925C509.767 153.647 499.071 151.024 488.585 152.632Z" fill="#3F3D56"/>
<path d="M702.777 83.5147C694.566 84.7739 686.166 83.5699 678.639 80.0552C671.113 76.5405 664.797 70.8728 660.492 63.7688C656.187 56.6649 654.084 48.4438 654.451 40.145C654.818 31.8463 657.638 23.8428 662.553 17.1465C667.469 10.4502 674.259 5.3619 682.067 2.52507C689.874 -0.311762 698.348 -0.76972 706.415 1.2091C714.483 3.18793 721.783 7.51466 727.391 13.6421C733 19.7696 736.666 27.4227 737.925 35.6335C738.761 41.0853 738.515 46.6484 737.201 52.0051C735.887 57.3618 733.531 62.4074 730.267 66.8535C727.003 71.2997 722.896 75.0595 718.179 77.9182C713.462 80.777 708.228 82.6786 702.777 83.5147V83.5147ZM690.347 2.46223C682.527 3.66144 675.238 7.15258 669.403 12.4942C663.567 17.8357 659.446 24.7878 657.562 32.4713C655.677 40.1548 656.113 48.2246 658.815 55.6603C661.517 63.0959 666.363 69.5634 672.74 74.2449C679.118 78.9263 686.74 81.6116 694.644 81.961C702.547 82.3104 710.377 80.3083 717.142 76.2078C723.908 72.1074 729.306 66.0927 732.653 58.9245C736.001 51.7563 737.147 43.7565 735.948 35.9367C734.34 25.4506 728.632 16.0328 720.08 9.75516C711.528 3.47748 700.833 0.854125 690.347 2.46222V2.46223Z" fill="#3F3D56"/>
<path d="M894.031 156.366C885.82 157.625 877.42 156.422 869.893 152.907C862.367 149.392 856.051 143.724 851.746 136.62C847.44 129.516 845.338 121.295 845.705 112.997C846.072 104.698 848.891 96.6943 853.807 89.998C858.723 83.3017 865.513 78.2134 873.321 75.3766C881.128 72.5398 889.601 72.0818 897.669 74.0607C905.737 76.0395 913.037 80.3662 918.645 86.4937C924.254 92.6212 927.92 100.274 929.179 108.485C930.867 119.495 928.113 130.726 921.521 139.705C914.93 148.685 905.041 154.678 894.031 156.366ZM881.601 75.3138C873.781 76.513 866.492 80.0041 860.657 85.3457C854.821 90.6873 850.7 97.6394 848.816 105.323C846.931 113.006 847.367 121.076 850.069 128.512C852.771 135.947 857.617 142.415 863.994 147.096C870.371 151.778 877.994 154.463 885.897 154.813C893.801 155.162 901.631 153.16 908.396 149.059C915.162 144.959 920.56 138.944 923.907 131.776C927.255 124.608 928.401 116.608 927.202 108.788C925.594 98.3022 919.886 88.8844 911.334 82.6067C902.782 76.329 892.087 73.7057 881.601 75.3138V75.3138Z" fill="#3F3D56"/>
<path d="M346.43 82.011L351.22 80.2646C351.22 80.2646 347.781 85.5469 347.036 85.9647C347.114 86.9631 347.266 87.9543 347.491 88.9301C344.247 131.109 306.497 118.486 306.497 118.486C319.294 116.827 319.578 111.421 319.578 111.421C311.998 111.471 309.772 106.855 309.772 106.855C310.491 107.104 311.277 107.078 311.978 106.784C312.68 106.49 313.248 105.947 313.574 105.26C305.25 104.412 305.139 96.4366 305.139 96.4366C306.724 97.2481 308.491 97.639 310.271 97.5719C309.214 96.621 300.323 88.7782 304.157 83.4352C304.157 83.4352 311.208 92.4708 325.875 91.1321L326.833 90.7828C326.556 90.0967 326.377 89.3748 326.302 88.6385C325.88 85.886 326.568 83.0784 328.216 80.8336C329.864 78.5887 332.336 77.0904 335.089 76.6683C342.008 75.6072 344.097 79.3336 344.097 79.3336L348.584 75.6104C348.486 75.6255 348.749 80.6436 346.43 82.011Z" fill="#1DA1F2"/>
<path d="M502.803 169.898C505.57 169.482 508.389 170.178 510.644 171.834C512.899 173.489 514.408 175.97 514.84 178.734L518.041 199.605C518.457 202.372 517.761 205.191 516.105 207.446C514.45 209.701 511.969 211.21 509.205 211.642L488.334 214.843C485.568 215.259 482.749 214.563 480.494 212.907C478.238 211.252 476.73 208.771 476.297 206.007L473.097 185.136C472.681 182.369 473.377 179.55 475.032 177.295C476.688 175.04 479.169 173.531 481.933 173.099L502.803 169.898M502.163 165.724L481.293 168.925C477.423 169.53 473.95 171.642 471.632 174.799C469.314 177.957 468.34 181.903 468.923 185.776L472.123 206.647C472.728 210.517 474.84 213.99 477.997 216.307C481.155 218.625 485.101 219.599 488.974 219.017L509.845 215.816C513.715 215.211 517.188 213.099 519.506 209.942C521.823 206.784 522.797 202.838 522.215 198.965L519.014 178.094C518.409 174.225 516.297 170.752 513.14 168.434C509.983 166.116 506.036 165.142 502.163 165.724V165.724Z" fill="#8A3AB9"/>
<path d="M507.534 179.855C506.706 179.98 505.862 179.771 505.188 179.274C504.514 178.777 504.064 178.033 503.938 177.205C503.812 176.377 504.02 175.533 504.516 174.859C505.012 174.184 505.756 173.734 506.584 173.607C507.412 173.48 508.256 173.687 508.931 174.182C509.607 174.678 510.058 175.421 510.185 176.249C510.313 177.076 510.107 177.921 509.612 178.597C509.118 179.272 508.375 179.724 507.547 179.853L507.534 179.855Z" fill="#FCCC63"/>
<path d="M494.291 184.022C495.943 183.768 497.632 184.01 499.146 184.717C500.659 185.424 501.929 186.564 502.795 187.993C503.661 189.421 504.084 191.075 504.01 192.744C503.936 194.412 503.369 196.022 502.381 197.369C501.392 198.715 500.026 199.739 498.456 200.309C496.886 200.88 495.182 200.972 493.56 200.574C491.937 200.176 490.469 199.306 489.341 198.073C488.213 196.841 487.476 195.302 487.223 193.651C487.055 192.554 487.104 191.436 487.368 190.358C487.632 189.281 488.106 188.266 488.763 187.372C489.419 186.478 490.245 185.722 491.194 185.147C492.142 184.572 493.195 184.19 494.291 184.022ZM493.651 179.848C491.174 180.227 488.866 181.333 487.018 183.025C485.169 184.717 483.864 186.919 483.267 189.352C482.67 191.786 482.808 194.342 483.664 196.697C484.52 199.052 486.055 201.101 488.075 202.583C490.094 204.066 492.509 204.917 495.012 205.027C497.515 205.138 499.995 204.504 502.138 203.205C504.281 201.906 505.991 200.001 507.051 197.731C508.111 195.461 508.474 192.927 508.095 190.45V190.45C507.585 187.129 505.777 184.146 503.069 182.158C500.36 180.169 496.972 179.338 493.651 179.848V179.848Z" fill="#BC2A8D"/>
<path d="M884.991 87.7415C878.74 88.7006 873.01 91.7816 868.762 96.4671C864.515 101.152 862.009 107.157 861.666 113.472C861.322 119.787 863.163 126.027 866.877 131.145C870.592 136.264 875.955 139.948 882.065 141.579C881.629 139.502 881.467 137.378 881.581 135.259C881.764 132.967 882.805 119.883 882.805 119.883C882.003 118.619 881.48 117.198 881.271 115.715C880.652 111.681 882.523 108.309 885.44 107.861C887.919 107.481 889.395 109.158 889.736 111.382C890.118 113.873 889.097 117.836 888.812 121.413C888.748 122.077 888.84 122.747 889.083 123.369C889.325 123.991 889.71 124.547 890.207 124.992C890.704 125.438 891.299 125.761 891.943 125.934C892.588 126.108 893.264 126.127 893.917 125.991C899.07 125.201 901.53 118.044 900.326 110.193C899.411 104.226 894.704 100.383 887.4 101.503C879.148 102.768 874.94 109.72 875.995 116.599C876.211 118.551 877.144 120.354 878.612 121.659C878.857 121.805 879.049 122.025 879.161 122.287C879.272 122.549 879.298 122.84 879.234 123.118C879.176 123.637 879.069 124.885 879.01 125.391C879.009 125.542 878.973 125.69 878.903 125.824C878.834 125.957 878.733 126.072 878.61 126.159C878.488 126.246 878.346 126.303 878.197 126.324C878.048 126.345 877.896 126.33 877.753 126.281C873.711 125.308 871.299 121.424 870.58 116.733C869.394 109.003 874.499 98.7297 887.43 96.7467C897.821 95.1531 905.817 101.627 907.054 109.696C908.692 120.379 903.972 129.263 895.222 130.605C892.281 131.056 889.278 129.887 888.054 128.234C888.054 128.234 887.436 134.747 887.282 136.015C886.97 138.176 886.35 140.282 885.442 142.268C889.356 142.799 893.338 142.483 897.119 141.34C900.9 140.198 904.391 138.255 907.356 135.645C910.32 133.034 912.688 129.817 914.3 126.211C915.911 122.605 916.728 118.694 916.696 114.744C916.663 110.795 915.781 106.898 914.11 103.319C912.44 99.7401 910.018 96.5623 907.011 94.0012C904.004 91.4401 900.482 89.5556 896.682 88.4756C892.883 87.3955 888.896 87.1452 884.991 87.7416L884.991 87.7415Z" fill="#C8232C"/>
<path d="M717.998 21.9626L681.33 16.5597C680.388 16.3738 679.41 16.5698 678.612 17.1048C677.814 17.6398 677.261 18.4698 677.075 19.4124L677.072 19.4282L671.657 56.1768C671.537 57.1691 671.802 58.1699 672.397 58.9731C672.992 59.7763 673.872 60.3209 674.857 60.4948L711.513 65.8961C712.483 66.0004 713.455 65.7182 714.219 65.1107C714.982 64.5032 715.476 63.6193 715.592 62.6505L721.007 25.902C721.154 25.011 720.94 24.0983 720.414 23.3646C719.888 22.6309 719.092 22.1364 718.201 21.9898C718.133 21.9787 718.066 21.9697 717.998 21.9626ZM685.799 54.6353L679.505 53.7079L682.389 34.1382L688.683 35.0656L685.799 54.6353ZM686.192 31.6586L686.147 31.6519C685.242 31.5126 684.429 31.0205 683.887 30.2832C683.344 29.5459 683.116 28.6236 683.253 27.7185C683.389 26.8134 683.878 25.9992 684.614 25.4543C685.349 24.9094 686.271 24.6783 687.176 24.8116C688.082 24.9449 688.898 25.4317 689.445 26.1654C689.992 26.8991 690.227 27.8198 690.096 28.7259C689.966 29.6319 689.482 30.4493 688.75 30.999C688.018 31.5487 687.098 31.7859 686.192 31.6586ZM708.802 58.0249L702.508 57.0974L704.085 46.3971C704.462 43.8335 703.805 41.9471 701.527 41.6116C700.814 41.5122 700.088 41.6366 699.449 41.9676C698.809 42.2985 698.288 42.8197 697.958 43.4592C697.717 43.9318 697.566 44.445 697.512 44.9727L695.87 56.1193L689.576 55.1919L692.459 35.6221L698.753 36.5496L698.352 39.273C699.071 38.3661 700.021 37.6698 701.103 37.2572C702.184 36.8445 703.356 36.7308 704.497 36.928C708.629 37.5367 711.353 40.7207 710.488 46.5921L708.802 58.0249Z" fill="#0077B5"/>
<path fill-rule="evenodd" clip-rule="evenodd" d="M204.044 252.229C203.247 247.043 200.982 242.193 197.515 238.255C194.049 234.317 189.526 231.454 184.483 230.006C179.44 228.558 174.088 228.585 169.06 230.084C164.032 231.584 159.538 234.492 156.112 238.466C152.686 242.439 150.47 247.311 149.726 252.505C148.983 257.699 149.743 262.997 151.917 267.773C154.091 272.548 157.588 276.6 161.994 279.45C166.399 282.299 171.529 283.827 176.776 283.852L173.868 264.888L166.975 265.945L165.772 258.098L172.664 257.041L171.747 251.061C170.704 244.26 174.18 239.879 180.379 238.929C182.419 238.645 184.477 238.511 186.536 238.528L187.56 245.207L184.136 245.732C180.767 246.249 180.034 248.502 180.363 250.651L181.144 255.742L188.67 254.588L188.672 262.619L182.347 263.589L185.256 282.554C191.485 280.563 196.8 276.416 200.244 270.857C203.688 265.298 205.035 258.693 204.044 252.229L204.044 252.229Z" fill="#0047FF"/>
<path d="M710.469 427.443L720.511 430.08L735.462 392.599L720.64 388.707L710.469 427.443Z" fill="#FFB6B6"/>
<path d="M707.363 437.827L738.245 445.936L738.348 445.546C739.185 442.358 738.722 438.968 737.059 436.122C735.397 433.275 732.673 431.206 729.485 430.369L729.484 430.368L724.967 424.607L713.318 426.123L710.622 425.416L707.363 437.827Z" fill="#2F2E41"/>
<path d="M761.951 434.956H772.333L777.273 394.906L761.949 394.907L761.951 434.956Z" fill="#FFB6B6"/>
<path d="M761.583 445.788L793.512 445.787V445.383C793.512 442.087 792.202 438.926 789.872 436.596C787.541 434.265 784.38 432.956 781.084 432.955H781.083L775.251 428.531L764.369 432.956L761.582 432.956L761.583 445.788Z" fill="#2F2E41"/>
<path d="M735.982 243.305C733.474 246.44 734.728 257.1 734.728 257.1C734.728 257.1 730.339 291.587 732.22 294.722C734.101 297.857 730.966 300.366 729.085 304.755C727.203 309.144 725.322 319.804 725.322 319.804C714.663 328.582 715.29 368.713 715.29 368.713L711.527 404.455C712.781 408.217 730.339 408.844 732.847 408.217C735.355 407.59 759.81 319.177 759.81 319.177C759.81 319.177 758.556 404.455 758.556 408.217C758.556 411.979 775.486 410.098 779.248 410.098C783.01 410.098 806.838 256.472 806.838 256.472V247.694L803.703 243.305C803.703 243.305 738.49 240.169 735.982 243.305Z" fill="#2F2E41"/>
<path d="M763.571 128.555C774.307 128.555 783.01 119.853 783.01 109.117C783.01 98.3816 774.307 89.6787 763.571 89.6787C752.836 89.6787 744.133 98.3816 744.133 109.117C744.133 119.853 752.836 128.555 763.571 128.555Z" fill="#FFB6B6"/>
<path d="M737.454 257.172L737.348 257.023C731.686 249.096 740.202 230.046 741.487 227.285C739.961 226.79 738.655 225.781 737.79 224.431C736.924 223.081 736.554 221.473 736.741 219.88L737.295 215.173L737.872 210.557L733.737 206.422L733.726 206.319L731.346 185.498L727.886 171.669C726.583 166.441 726.694 160.96 728.208 155.79C729.723 150.619 732.586 145.944 736.504 142.246L744.501 140.976L754.22 131.611H769.893L775.267 136.746C785.833 145.406 788.341 141.644 800.255 157.947L791.724 180.421L796.492 213.569L796.495 219.567L798.979 222.327C799.873 223.321 800.523 224.511 800.877 225.801C801.231 227.09 801.278 228.445 801.016 229.756L800.689 231.389C801.952 231.93 803.066 232.766 803.938 233.826C804.811 234.887 805.416 236.141 805.704 237.484L806.576 241.553C807.323 242.538 812.248 249.106 812.248 250.901C812.248 251.171 812.049 251.431 811.622 251.72C808.265 253.993 789.713 258.627 781.501 255.341C772.755 251.844 737.985 257.091 737.635 257.144L737.454 257.172Z" fill="#3F3D56"/>
<path d="M727.578 178.32L743.741 175.156C749.718 184.083 752.927 208.491 752.927 208.491L770.796 245.55C771.895 246.217 772.797 247.164 773.41 248.293C774.024 249.422 774.327 250.694 774.289 251.978C774.251 253.263 773.874 254.515 773.195 255.606C772.516 256.697 771.56 257.589 770.424 258.19C769.289 258.792 768.014 259.082 766.73 259.03C765.446 258.979 764.198 258.588 763.114 257.897C762.03 257.207 761.149 256.242 760.559 255.1C759.97 253.958 759.694 252.68 759.759 251.396L736.453 207.488L727.578 178.32Z" fill="#FFB6B6"/>
<path d="M727.491 182.155L727.031 158.133L734.637 147.957C736.138 145.965 738.165 144.432 740.491 143.532C742.817 142.632 745.349 142.4 747.799 142.863V142.863C751.117 143.513 754.065 145.399 756.045 148.138C758.026 150.878 758.893 154.268 758.47 157.622C757.179 167.794 754.248 180.524 747.617 183.404L747.55 183.433L754.422 207.468L728.936 211.028L727.491 182.155Z" fill="#3F3D56"/>
<path d="M831.771 161.847C831.771 161.847 807.654 156.904 797.264 159.636L794.973 175.945L824.391 178.556L874.602 169.429C875.795 169.901 877.092 170.049 878.361 169.857C879.629 169.666 880.825 169.142 881.825 168.339C882.826 167.536 883.597 166.483 884.059 165.286C884.521 164.089 884.658 162.791 884.456 161.524C884.255 160.257 883.721 159.066 882.911 158.071C882.1 157.077 881.04 156.315 879.839 155.863C878.639 155.41 877.34 155.283 876.075 155.495C874.809 155.707 873.622 156.25 872.635 157.069L831.771 161.847Z" fill="#FFB6B6"/>
<path d="M802.569 179.764L778.688 177.13L769.575 168.279C767.792 166.535 766.533 164.327 765.939 161.904C765.345 159.482 765.441 156.942 766.215 154.571V154.571C767.286 151.364 769.535 148.684 772.507 147.072C775.479 145.46 778.952 145.037 782.224 145.887C792.146 148.476 802.074 146.061 804.077 153.008L807.653 151.837L831.135 156.311L831.389 182.044L802.569 179.764Z" fill="#3F3D56"/>
<path d="M741.521 96.3456C743.704 92.9688 747.8 90.7182 751.77 91.3506C752.14 88.8166 753.198 86.4324 754.828 84.4579C756.459 82.4833 758.6 80.994 761.019 80.152C763.438 79.3101 766.041 79.1479 768.545 79.683C771.049 80.2181 773.359 81.43 775.222 83.1868C775.835 82.7554 776.549 82.4895 777.294 82.4149C778.04 82.3402 778.792 82.4594 779.479 82.7608C780.845 83.3822 782.034 84.3366 782.936 85.5364C785.215 88.3779 786.68 91.7839 787.177 95.3921C787.673 99.0003 787.182 102.676 785.755 106.027C786.24 104.262 784.472 102.603 782.686 102.207C780.899 101.811 779.026 102.185 777.214 101.928C774.892 101.597 772.805 100.25 770.48 99.9474C768.508 99.8191 766.53 100.073 764.655 100.696C762.78 101.319 760.804 101.584 758.832 101.478C756.874 101.246 754.353 108.663 754.387 113.887C754.394 114.877 754.19 116.148 753.222 116.358C752.031 116.617 751.34 114.972 750.206 114.524C749.684 114.374 749.123 114.433 748.643 114.688C748.163 114.944 747.801 115.375 747.633 115.892C747.49 116.418 747.475 116.97 747.588 117.503C747.702 118.036 747.941 118.534 748.286 118.956C748.983 119.792 749.81 120.509 750.736 121.081L750.269 121.47C749.826 121.938 749.234 122.238 748.593 122.318C747.953 122.397 747.306 122.251 746.761 121.906C745.69 121.18 744.823 120.193 744.242 119.038C742.053 115.653 740.489 111.903 739.622 107.967C738.767 103.992 739.446 99.8414 741.521 96.3456V96.3456Z" fill="#2F2E41"/>
<path d="M904.603 429.976L896.893 417.586L895.353 424.667C895.083 425.907 894.813 427.167 894.563 428.417C892.373 426.546 890.043 424.816 887.764 423.156C880.764 418.076 873.767 412.99 866.773 407.896L868.963 420.596C870.313 428.417 871.724 436.396 875.063 443.546C875.434 444.356 875.833 445.157 876.264 445.937H908.804C909.065 445.212 909.247 444.461 909.344 443.696C909.352 443.647 909.355 443.597 909.353 443.546C909.864 438.696 907.184 434.126 904.603 429.976Z" fill="#252525"/>
<path d="M932.143 447.154L656.393 447.461C656.237 447.462 656.082 447.431 655.937 447.372C655.792 447.312 655.66 447.224 655.549 447.114C655.438 447.003 655.35 446.872 655.29 446.727C655.23 446.582 655.199 446.427 655.199 446.27C655.199 446.114 655.23 445.959 655.29 445.814C655.35 445.669 655.438 445.538 655.549 445.427C655.66 445.317 655.792 445.229 655.937 445.169C656.082 445.11 656.237 445.079 656.393 445.08L932.143 444.772C932.459 444.772 932.762 444.898 932.985 445.121C933.209 445.344 933.334 445.647 933.334 445.963C933.334 446.279 933.209 446.582 932.985 446.805C932.762 447.028 932.459 447.154 932.143 447.154Z" fill="#222222"/>
</svg>
